<?xml version="1.0" encoding="UTF-8" standalone="no"?>
<!DOCTYPE svg PUBLIC "-//W3C//DTD SVG 1.1//EN"
 "http://www.w3.org/Graphics/SVG/1.1/DTD/svg11.dtd">
<!-- Generated by graphviz version 2.40.1 (20161225.0304)
 -->
<!-- Title: dependencies Pages: 1 -->
<svg width="1831pt" height="211pt"
 viewBox="0.00 0.00 1831.00 211.00" xmlns="http://www.w3.org/2000/svg" xmlns:xlink="http://www.w3.org/1999/xlink">
<g id="graph0" class="graph" transform="scale(1 1) rotate(0) translate(4 207)">
<title>dependencies</title>
<polygon fill="#ffffff" stroke="transparent" points="-4,4 -4,-207 1827,-207 1827,4 -4,4"/>
<text text-anchor="start" x="890.5091" y="-42.4" font-family="sans-serif" font-weight="bold" font-size="14.00" fill="#000000">Legend</text>
<polygon fill="#ffffb3" stroke="transparent" points="677.5,-10 677.5,-30 697.5,-30 697.5,-10 677.5,-10"/>
<text text-anchor="start" x="701.129" y="-15.4" font-family="sans-serif" font-size="14.00" fill="#000000"> &#160;Declarations</text>
<polygon fill="#8dd3c7" stroke="transparent" points="790.5,-10 790.5,-30 810.5,-30 810.5,-10 790.5,-10"/>
<text text-anchor="start" x="814.2251" y="-15.4" font-family="sans-serif" font-size="14.00" fill="#000000"> &#160;Module</text>
<polygon fill="#80b1d3" stroke="transparent" points="876.5,-10 876.5,-30 896.5,-30 896.5,-10 876.5,-10"/>
<text text-anchor="start" x="900.2812" y="-15.4" font-family="sans-serif" font-size="14.00" fill="#000000"> &#160;Bootstrap</text>
<polygon fill="#fdb462" stroke="transparent" points="973.5,-10 973.5,-30 993.5,-30 993.5,-10 973.5,-10"/>
<text text-anchor="start" x="997.1732" y="-15.4" font-family="sans-serif" font-size="14.00" fill="#000000"> &#160;Providers</text>
<polygon fill="#fb8072" stroke="transparent" points="1069.5,-10 1069.5,-30 1089.5,-30 1089.5,-10 1069.5,-10"/>
<text text-anchor="start" x="1093.2258" y="-15.4" font-family="sans-serif" font-size="14.00" fill="#000000"> &#160;Exports</text>
<g id="clust1" class="cluster">
<title>cluster_ServiceModule</title>
<polygon fill="none" stroke="#000000" stroke-dasharray="1,5" points="8,-70 8,-195 1815,-195 1815,-70 8,-70"/>
</g>
<g id="clust6" class="cluster">
<title>cluster_ServiceModule_providers</title>
<polygon fill="none" stroke="#000000" points="16,-78 16,-130 1807,-130 1807,-78 16,-78"/>
</g>
<!-- AlertService -->
<g id="node1" class="node">
<title>AlertService</title>
<ellipse fill="#fdb462" stroke="#000000" cx="1739" cy="-104" rx="59.6646" ry="18"/>
<text text-anchor="middle" x="1739" y="-99.8" font-family="Times,serif" font-size="14.00" fill="#000000">AlertService</text>
</g>
<!-- ServiceModule -->
<g id="node12" class="node">
<title>ServiceModule</title>
<polygon fill="#8dd3c7" stroke="#000000" points="982.5285,-187 979.5285,-191 958.5285,-191 955.5285,-187 881.4715,-187 881.4715,-151 982.5285,-151 982.5285,-187"/>
<text text-anchor="middle" x="932" y="-164.8" font-family="Times,serif" font-size="14.00" fill="#000000">ServiceModule</text>
</g>
<!-- AlertService&#45;&gt;ServiceModule -->
<g id="edge1" class="edge">
<title>AlertService&#45;&gt;ServiceModule</title>
<path fill="none" stroke="#000000" d="M1739,-122.0908C1739,-145.1328 1739,-182 1739,-182 1739,-182 992.7872,-182 992.7872,-182"/>
<polygon fill="#000000" stroke="#000000" points="992.7872,-178.5001 982.7872,-182 992.7871,-185.5001 992.7872,-178.5001"/>
</g>
<!-- BiologicosService -->
<g id="node2" class="node">
<title>BiologicosService</title>
<ellipse fill="#fdb462" stroke="#000000" cx="1579" cy="-104" rx="81.6789" ry="18"/>
<text text-anchor="middle" x="1579" y="-99.8" font-family="Times,serif" font-size="14.00" fill="#000000">BiologicosService</text>
</g>
<!-- BiologicosService&#45;&gt;ServiceModule -->
<g id="edge2" class="edge">
<title>BiologicosService&#45;&gt;ServiceModule</title>
<path fill="none" stroke="#000000" d="M1579,-122.2843C1579,-143.3211 1579,-175 1579,-175 1579,-175 992.769,-175 992.769,-175"/>
<polygon fill="#000000" stroke="#000000" points="992.769,-171.5001 982.769,-175 992.769,-178.5001 992.769,-171.5001"/>
</g>
<!-- ConfigService -->
<g id="node3" class="node">
<title>ConfigService</title>
<ellipse fill="#fdb462" stroke="#000000" cx="1412" cy="-104" rx="66.6325" ry="18"/>
<text text-anchor="middle" x="1412" y="-99.8" font-family="Times,serif" font-size="14.00" fill="#000000">ConfigService</text>
</g>
<!-- ConfigService&#45;&gt;ServiceModule -->
<g id="edge3" class="edge">
<title>ConfigService&#45;&gt;ServiceModule</title>
<path fill="none" stroke="#000000" d="M1412,-122.1061C1412,-141.3391 1412,-169 1412,-169 1412,-169 992.914,-169 992.914,-169"/>
<polygon fill="#000000" stroke="#000000" points="992.914,-165.5001 982.914,-169 992.9139,-172.5001 992.914,-165.5001"/>
</g>
<!-- GeolocationService -->
<g id="node4" class="node">
<title>GeolocationService</title>
<ellipse fill="#fdb462" stroke="#000000" cx="1240" cy="-104" rx="87.377" ry="18"/>
<text text-anchor="middle" x="1240" y="-99.8" font-family="Times,serif" font-size="14.00" fill="#000000">GeolocationService</text>
</g>
<!-- GeolocationService&#45;&gt;ServiceModule -->
<g id="edge4" class="edge">
<title>GeolocationService&#45;&gt;ServiceModule</title>
<path fill="none" stroke="#000000" d="M1240,-122.0225C1240,-139.3734 1240,-163 1240,-163 1240,-163 992.8599,-163 992.8599,-163"/>
<polygon fill="#000000" stroke="#000000" points="992.86,-159.5001 982.8599,-163 992.8599,-166.5001 992.86,-159.5001"/>
</g>
<!-- LogService -->
<g id="node5" class="node">
<title>LogService</title>
<ellipse fill="#fdb462" stroke="#000000" cx="1079" cy="-104" rx="55.5966" ry="18"/>
<text text-anchor="middle" x="1079" y="-99.8" font-family="Times,serif" font-size="14.00" fill="#000000">LogService</text>
</g>
<!-- LogService&#45;&gt;ServiceModule -->
<g id="edge5" class="edge">
<title>LogService&#45;&gt;ServiceModule</title>
<path fill="none" stroke="#000000" d="M1079,-122.2396C1079,-137.5706 1079,-157 1079,-157 1079,-157 992.5891,-157 992.5891,-157"/>
<polygon fill="#000000" stroke="#000000" points="992.5891,-153.5001 982.5891,-157 992.589,-160.5001 992.5891,-153.5001"/>
</g>
<!-- MessageService -->
<g id="node6" class="node">
<title>MessageService</title>
<ellipse fill="#fdb462" stroke="#000000" cx="932" cy="-104" rx="73.5522" ry="18"/>
<text text-anchor="middle" x="932" y="-99.8" font-family="Times,serif" font-size="14.00" fill="#000000">MessageService</text>
</g>
<!-- MessageService&#45;&gt;ServiceModule -->
<g id="edge6" class="edge">
<title>MessageService&#45;&gt;ServiceModule</title>
<path fill="none" stroke="#000000" d="M932,-122.1061C932,-122.1061 932,-140.991 932,-140.991"/>
<polygon fill="#000000" stroke="#000000" points="928.5001,-140.9909 932,-150.991 935.5001,-140.991 928.5001,-140.9909"/>
</g>
<!-- MockService -->
<g id="node7" class="node">
<title>MockService</title>
<ellipse fill="#fdb462" stroke="#000000" cx="778" cy="-104" rx="62.5392" ry="18"/>
<text text-anchor="middle" x="778" y="-99.8" font-family="Times,serif" font-size="14.00" fill="#000000">MockService</text>
</g>
<!-- MockService&#45;&gt;ServiceModule -->
<g id="edge7" class="edge">
<title>MockService&#45;&gt;ServiceModule</title>
<path fill="none" stroke="#000000" d="M778,-122.2396C778,-137.5706 778,-157 778,-157 778,-157 871.1478,-157 871.1478,-157"/>
<polygon fill="#000000" stroke="#000000" points="871.1479,-160.5001 881.1478,-157 871.1478,-153.5001 871.1479,-160.5001"/>
</g>
<!-- SheetService -->
<g id="node8" class="node">
<title>SheetService</title>
<ellipse fill="#fdb462" stroke="#000000" cx="636" cy="-104" rx="61.3916" ry="18"/>
<text text-anchor="middle" x="636" y="-99.8" font-family="Times,serif" font-size="14.00" fill="#000000">SheetService</text>
</g>
<!-- SheetService&#45;&gt;ServiceModule -->
<g id="edge8" class="edge">
<title>SheetService&#45;&gt;ServiceModule</title>
<path fill="none" stroke="#000000" d="M636,-122.0225C636,-139.3734 636,-163 636,-163 636,-163 871.4521,-163 871.4521,-163"/>
<polygon fill="#000000" stroke="#000000" points="871.4521,-166.5001 881.4521,-163 871.4521,-159.5001 871.4521,-166.5001"/>
</g>
<!-- SpeechRecognitionService -->
<g id="node9" class="node">
<title>SpeechRecognitionService</title>
<ellipse fill="#fdb462" stroke="#000000" cx="441" cy="-104" rx="115.1686" ry="18"/>
<text text-anchor="middle" x="441" y="-99.8" font-family="Times,serif" font-size="14.00" fill="#000000">SpeechRecognitionService</text>
</g>
<!-- SpeechRecognitionService&#45;&gt;ServiceModule -->
<g id="edge9" class="edge">
<title>SpeechRecognitionService&#45;&gt;ServiceModule</title>
<path fill="none" stroke="#000000" d="M441,-122.1061C441,-141.3391 441,-169 441,-169 441,-169 871.3037,-169 871.3037,-169"/>
<polygon fill="#000000" stroke="#000000" points="871.3037,-172.5001 881.3037,-169 871.3037,-165.5001 871.3037,-172.5001"/>
</g>
<!-- StyleService -->
<g id="node10" class="node">
<title>StyleService</title>
<ellipse fill="#fdb462" stroke="#000000" cx="248" cy="-104" rx="59.6858" ry="18"/>
<text text-anchor="middle" x="248" y="-99.8" font-family="Times,serif" font-size="14.00" fill="#000000">StyleService</text>
</g>
<!-- StyleService&#45;&gt;ServiceModule -->
<g id="edge10" class="edge">
<title>StyleService&#45;&gt;ServiceModule</title>
<path fill="none" stroke="#000000" d="M248,-122.2843C248,-143.3211 248,-175 248,-175 248,-175 871.4261,-175 871.4261,-175"/>
<polygon fill="#000000" stroke="#000000" points="871.4261,-178.5001 881.4261,-175 871.426,-171.5001 871.4261,-178.5001"/>
</g>
<!-- WindowService -->
<g id="node11" class="node">
<title>WindowService</title>
<ellipse fill="#fdb462" stroke="#000000" cx="97" cy="-104" rx="73.4959" ry="18"/>
<text text-anchor="middle" x="97" y="-99.8" font-family="Times,serif" font-size="14.00" fill="#000000">WindowService</text>
</g>
<!-- WindowService&#45;&gt;ServiceModule -->
<g id="edge11" class="edge">
<title>WindowService&#45;&gt;ServiceModule</title>
<path fill="none" stroke="#000000" d="M97,-122.0908C97,-145.1328 97,-182 97,-182 97,-182 871.3361,-182 871.3361,-182"/>
<polygon fill="#000000" stroke="#000000" points="871.3361,-185.5001 881.3361,-182 871.3361,-178.5001 871.3361,-185.5001"/>
</g>
</g>
</svg>
