<?xml version="1.0" encoding="UTF-8" standalone="no"?>
<!DOCTYPE svg PUBLIC "-//W3C//DTD SVG 1.1//EN"
 "http://www.w3.org/Graphics/SVG/1.1/DTD/svg11.dtd">
<!-- Generated by graphviz version 2.40.1 (20161225.0304)
 -->
<!-- Title: dependencies Pages: 1 -->
<svg width="504pt" height="284pt"
 viewBox="0.00 0.00 504.00 284.00" xmlns="http://www.w3.org/2000/svg" xmlns:xlink="http://www.w3.org/1999/xlink">
<g id="graph0" class="graph" transform="scale(1 1) rotate(0) translate(4 280)">
<title>dependencies</title>
<polygon fill="#ffffff" stroke="transparent" points="-4,4 -4,-280 500,-280 500,4 -4,4"/>
<text text-anchor="start" x="227.0091" y="-42.4" font-family="sans-serif" font-weight="bold" font-size="14.00" fill="#000000">Legend</text>
<polygon fill="#ffffb3" stroke="transparent" points="14,-10 14,-30 34,-30 34,-10 14,-10"/>
<text text-anchor="start" x="37.629" y="-15.4" font-family="sans-serif" font-size="14.00" fill="#000000"> &#160;Declarations</text>
<polygon fill="#8dd3c7" stroke="transparent" points="127,-10 127,-30 147,-30 147,-10 127,-10"/>
<text text-anchor="start" x="150.7251" y="-15.4" font-family="sans-serif" font-size="14.00" fill="#000000"> &#160;Module</text>
<polygon fill="#80b1d3" stroke="transparent" points="213,-10 213,-30 233,-30 233,-10 213,-10"/>
<text text-anchor="start" x="236.7812" y="-15.4" font-family="sans-serif" font-size="14.00" fill="#000000"> &#160;Bootstrap</text>
<polygon fill="#fdb462" stroke="transparent" points="310,-10 310,-30 330,-30 330,-10 310,-10"/>
<text text-anchor="start" x="333.6732" y="-15.4" font-family="sans-serif" font-size="14.00" fill="#000000"> &#160;Providers</text>
<polygon fill="#fb8072" stroke="transparent" points="406,-10 406,-30 426,-30 426,-10 406,-10"/>
<text text-anchor="start" x="429.7258" y="-15.4" font-family="sans-serif" font-size="14.00" fill="#000000"> &#160;Exports</text>
<g id="clust1" class="cluster">
<title>cluster_HomeModule</title>
<polygon fill="none" stroke="#000000" stroke-dasharray="1,5" points="30.5,-70 30.5,-268 465.5,-268 465.5,-70 30.5,-70"/>
</g>
<g id="clust2" class="cluster">
<title>cluster_HomeModule_declarations</title>
<polygon fill="none" stroke="#000000" points="325.5,-78 325.5,-130 457.5,-130 457.5,-78 325.5,-78"/>
</g>
<g id="clust4" class="cluster">
<title>cluster_HomeModule_imports</title>
<polygon fill="none" stroke="#000000" points="38.5,-78 38.5,-130 317.5,-130 317.5,-78 38.5,-78"/>
</g>
<g id="clust5" class="cluster">
<title>cluster_HomeModule_exports</title>
<polygon fill="none" stroke="#000000" points="172.5,-208 172.5,-260 308.5,-260 308.5,-208 172.5,-208"/>
</g>
<!-- HomeComponent -->
<g id="node1" class="node">
<title>HomeComponent</title>
<polygon fill="#ffffb3" stroke="#000000" points="449.0451,-122 333.9549,-122 333.9549,-86 449.0451,-86 449.0451,-122"/>
<text text-anchor="middle" x="391.5" y="-99.8" font-family="Times,serif" font-size="14.00" fill="#000000">HomeComponent</text>
</g>
<!-- HomeModule -->
<g id="node2" class="node">
<title>HomeModule</title>
<polygon fill="#8dd3c7" stroke="#000000" points="287.2619,-187 284.2619,-191 263.2619,-191 260.2619,-187 193.7381,-187 193.7381,-151 287.2619,-151 287.2619,-187"/>
<text text-anchor="middle" x="240.5" y="-164.8" font-family="Times,serif" font-size="14.00" fill="#000000">HomeModule</text>
</g>
<!-- HomeComponent&#45;&gt;HomeModule -->
<g id="edge1" class="edge">
<title>HomeComponent&#45;&gt;HomeModule</title>
<path fill="none" stroke="#000000" d="M391.5,-122.1061C391.5,-141.3391 391.5,-169 391.5,-169 391.5,-169 297.4496,-169 297.4496,-169"/>
<polygon fill="#000000" stroke="#000000" points="297.4497,-165.5001 287.4496,-169 297.4496,-172.5001 297.4497,-165.5001"/>
</g>
<!-- HomeComponent  -->
<g id="node5" class="node">
<title>HomeComponent </title>
<polygon fill="#fb8072" stroke="#000000" points="300.0442,-252 180.9558,-252 180.9558,-216 300.0442,-216 300.0442,-252"/>
<text text-anchor="middle" x="240.5" y="-229.8" font-family="Times,serif" font-size="14.00" fill="#000000">HomeComponent </text>
</g>
<!-- HomeModule&#45;&gt;HomeComponent  -->
<g id="edge4" class="edge">
<title>HomeModule&#45;&gt;HomeComponent </title>
<path fill="none" stroke="#000000" stroke-dasharray="5,2" d="M240.5,-187.1061C240.5,-187.1061 240.5,-205.991 240.5,-205.991"/>
<polygon fill="#000000" stroke="#000000" points="237.0001,-205.9909 240.5,-215.991 244.0001,-205.991 237.0001,-205.9909"/>
</g>
<!-- HomeRoutingModule -->
<g id="node3" class="node">
<title>HomeRoutingModule</title>
<polygon fill="#8dd3c7" stroke="#000000" points="309.8795,-122 306.8795,-126 285.8795,-126 282.8795,-122 171.1205,-122 171.1205,-86 309.8795,-86 309.8795,-122"/>
<text text-anchor="middle" x="240.5" y="-99.8" font-family="Times,serif" font-size="14.00" fill="#000000">HomeRoutingModule</text>
</g>
<!-- HomeRoutingModule&#45;&gt;HomeModule -->
<g id="edge2" class="edge">
<title>HomeRoutingModule&#45;&gt;HomeModule</title>
<path fill="none" stroke="#000000" d="M240.5,-122.1061C240.5,-122.1061 240.5,-140.991 240.5,-140.991"/>
<polygon fill="#000000" stroke="#000000" points="237.0001,-140.9909 240.5,-150.991 244.0001,-140.991 237.0001,-140.9909"/>
</g>
<!-- MaterialModule -->
<g id="node4" class="node">
<title>MaterialModule</title>
<polygon fill="#8dd3c7" stroke="#000000" points="152.9706,-122 149.9706,-126 128.9706,-126 125.9706,-122 46.0294,-122 46.0294,-86 152.9706,-86 152.9706,-122"/>
<text text-anchor="middle" x="99.5" y="-99.8" font-family="Times,serif" font-size="14.00" fill="#000000">MaterialModule</text>
</g>
<!-- MaterialModule&#45;&gt;HomeModule -->
<g id="edge3" class="edge">
<title>MaterialModule&#45;&gt;HomeModule</title>
<path fill="none" stroke="#000000" d="M99.5,-122.1061C99.5,-141.3391 99.5,-169 99.5,-169 99.5,-169 183.549,-169 183.549,-169"/>
<polygon fill="#000000" stroke="#000000" points="183.5491,-172.5001 193.549,-169 183.549,-165.5001 183.5491,-172.5001"/>
</g>
</g>
</svg>
