<?xml version="1.0" encoding="UTF-8" standalone="no"?>
<!DOCTYPE svg PUBLIC "-//W3C//DTD SVG 1.1//EN"
 "http://www.w3.org/Graphics/SVG/1.1/DTD/svg11.dtd">
<!-- Generated by graphviz version 2.40.1 (20161225.0304)
 -->
<!-- Title: dependencies Pages: 1 -->
<svg width="504pt" height="284pt"
 viewBox="0.00 0.00 504.00 284.00" xmlns="http://www.w3.org/2000/svg" xmlns:xlink="http://www.w3.org/1999/xlink">
<g id="graph0" class="graph" transform="scale(1 1) rotate(0) translate(4 280)">
<title>dependencies</title>
<polygon fill="#ffffff" stroke="transparent" points="-4,4 -4,-280 500,-280 500,4 -4,4"/>
<text text-anchor="start" x="227.0091" y="-42.4" font-family="sans-serif" font-weight="bold" font-size="14.00" fill="#000000">Legend</text>
<polygon fill="#ffffb3" stroke="transparent" points="14,-10 14,-30 34,-30 34,-10 14,-10"/>
<text text-anchor="start" x="37.629" y="-15.4" font-family="sans-serif" font-size="14.00" fill="#000000"> &#160;Declarations</text>
<polygon fill="#8dd3c7" stroke="transparent" points="127,-10 127,-30 147,-30 147,-10 127,-10"/>
<text text-anchor="start" x="150.7251" y="-15.4" font-family="sans-serif" font-size="14.00" fill="#000000"> &#160;Module</text>
<polygon fill="#80b1d3" stroke="transparent" points="213,-10 213,-30 233,-30 233,-10 213,-10"/>
<text text-anchor="start" x="236.7812" y="-15.4" font-family="sans-serif" font-size="14.00" fill="#000000"> &#160;Bootstrap</text>
<polygon fill="#fdb462" stroke="transparent" points="310,-10 310,-30 330,-30 330,-10 310,-10"/>
<text text-anchor="start" x="333.6732" y="-15.4" font-family="sans-serif" font-size="14.00" fill="#000000"> &#160;Providers</text>
<polygon fill="#fb8072" stroke="transparent" points="406,-10 406,-30 426,-30 426,-10 406,-10"/>
<text text-anchor="start" x="429.7258" y="-15.4" font-family="sans-serif" font-size="14.00" fill="#000000"> &#160;Exports</text>
<g id="clust1" class="cluster">
<title>cluster_DispensacaoFormModule</title>
<polygon fill="none" stroke="#000000" stroke-dasharray="1,5" points="76,-70 76,-268 420,-268 420,-70 76,-70"/>
</g>
<g id="clust2" class="cluster">
<title>cluster_DispensacaoFormModule_declarations</title>
<polygon fill="none" stroke="#000000" points="214,-78 214,-130 412,-130 412,-78 214,-78"/>
</g>
<g id="clust4" class="cluster">
<title>cluster_DispensacaoFormModule_imports</title>
<polygon fill="none" stroke="#000000" points="84,-78 84,-130 206,-130 206,-78 84,-78"/>
</g>
<g id="clust5" class="cluster">
<title>cluster_DispensacaoFormModule_exports</title>
<polygon fill="none" stroke="#000000" points="147,-208 147,-260 349,-260 349,-208 147,-208"/>
</g>
<!-- DispensacaoFormComponent -->
<g id="node1" class="node">
<title>DispensacaoFormComponent</title>
<polygon fill="#ffffb3" stroke="#000000" points="404.4115,-122 221.5885,-122 221.5885,-86 404.4115,-86 404.4115,-122"/>
<text text-anchor="middle" x="313" y="-99.8" font-family="Times,serif" font-size="14.00" fill="#000000">DispensacaoFormComponent</text>
</g>
<!-- DispensacaoFormModule -->
<g id="node2" class="node">
<title>DispensacaoFormModule</title>
<polygon fill="#8dd3c7" stroke="#000000" points="328.1288,-187 325.1288,-191 304.1288,-191 301.1288,-187 167.8712,-187 167.8712,-151 328.1288,-151 328.1288,-187"/>
<text text-anchor="middle" x="248" y="-164.8" font-family="Times,serif" font-size="14.00" fill="#000000">DispensacaoFormModule</text>
</g>
<!-- DispensacaoFormComponent&#45;&gt;DispensacaoFormModule -->
<g id="edge1" class="edge">
<title>DispensacaoFormComponent&#45;&gt;DispensacaoFormModule</title>
<path fill="none" stroke="#000000" d="M275.0544,-122.1061C275.0544,-122.1061 275.0544,-140.991 275.0544,-140.991"/>
<polygon fill="#000000" stroke="#000000" points="271.5544,-140.9909 275.0544,-150.991 278.5544,-140.991 271.5544,-140.9909"/>
</g>
<!-- DispensacaoFormComponent  -->
<g id="node4" class="node">
<title>DispensacaoFormComponent </title>
<polygon fill="#fb8072" stroke="#000000" points="340.911,-252 155.089,-252 155.089,-216 340.911,-216 340.911,-252"/>
<text text-anchor="middle" x="248" y="-229.8" font-family="Times,serif" font-size="14.00" fill="#000000">DispensacaoFormComponent </text>
</g>
<!-- DispensacaoFormModule&#45;&gt;DispensacaoFormComponent  -->
<g id="edge3" class="edge">
<title>DispensacaoFormModule&#45;&gt;DispensacaoFormComponent </title>
<path fill="none" stroke="#000000" stroke-dasharray="5,2" d="M248,-187.1061C248,-187.1061 248,-205.991 248,-205.991"/>
<polygon fill="#000000" stroke="#000000" points="244.5001,-205.9909 248,-215.991 251.5001,-205.991 244.5001,-205.9909"/>
</g>
<!-- MaterialModule -->
<g id="node3" class="node">
<title>MaterialModule</title>
<polygon fill="#8dd3c7" stroke="#000000" points="198.4706,-122 195.4706,-126 174.4706,-126 171.4706,-122 91.5294,-122 91.5294,-86 198.4706,-86 198.4706,-122"/>
<text text-anchor="middle" x="145" y="-99.8" font-family="Times,serif" font-size="14.00" fill="#000000">MaterialModule</text>
</g>
<!-- MaterialModule&#45;&gt;DispensacaoFormModule -->
<g id="edge2" class="edge">
<title>MaterialModule&#45;&gt;DispensacaoFormModule</title>
<path fill="none" stroke="#000000" d="M183.0856,-122.1061C183.0856,-122.1061 183.0856,-140.991 183.0856,-140.991"/>
<polygon fill="#000000" stroke="#000000" points="179.5856,-140.9909 183.0856,-150.991 186.5856,-140.991 179.5856,-140.9909"/>
</g>
</g>
</svg>
