<?xml version="1.0" encoding="UTF-8" standalone="no"?>
<!DOCTYPE svg PUBLIC "-//W3C//DTD SVG 1.1//EN"
 "http://www.w3.org/Graphics/SVG/1.1/DTD/svg11.dtd">
<!-- Generated by graphviz version 2.40.1 (20161225.0304)
 -->
<!-- Title: dependencies Pages: 1 -->
<svg width="839pt" height="284pt"
 viewBox="0.00 0.00 839.00 284.00" xmlns="http://www.w3.org/2000/svg" xmlns:xlink="http://www.w3.org/1999/xlink">
<g id="graph0" class="graph" transform="scale(1 1) rotate(0) translate(4 280)">
<title>dependencies</title>
<polygon fill="#ffffff" stroke="transparent" points="-4,4 -4,-280 835,-280 835,4 -4,4"/>
<text text-anchor="start" x="394.5091" y="-42.4" font-family="sans-serif" font-weight="bold" font-size="14.00" fill="#000000">Legend</text>
<polygon fill="#ffffb3" stroke="transparent" points="181.5,-10 181.5,-30 201.5,-30 201.5,-10 181.5,-10"/>
<text text-anchor="start" x="205.129" y="-15.4" font-family="sans-serif" font-size="14.00" fill="#000000"> &#160;Declarations</text>
<polygon fill="#8dd3c7" stroke="transparent" points="294.5,-10 294.5,-30 314.5,-30 314.5,-10 294.5,-10"/>
<text text-anchor="start" x="318.2251" y="-15.4" font-family="sans-serif" font-size="14.00" fill="#000000"> &#160;Module</text>
<polygon fill="#80b1d3" stroke="transparent" points="380.5,-10 380.5,-30 400.5,-30 400.5,-10 380.5,-10"/>
<text text-anchor="start" x="404.2812" y="-15.4" font-family="sans-serif" font-size="14.00" fill="#000000"> &#160;Bootstrap</text>
<polygon fill="#fdb462" stroke="transparent" points="477.5,-10 477.5,-30 497.5,-30 497.5,-10 477.5,-10"/>
<text text-anchor="start" x="501.1732" y="-15.4" font-family="sans-serif" font-size="14.00" fill="#000000"> &#160;Providers</text>
<polygon fill="#fb8072" stroke="transparent" points="573.5,-10 573.5,-30 593.5,-30 593.5,-10 573.5,-10"/>
<text text-anchor="start" x="597.2258" y="-15.4" font-family="sans-serif" font-size="14.00" fill="#000000"> &#160;Exports</text>
<g id="clust1" class="cluster">
<title>cluster_DispensacaoFormModule</title>
<polygon fill="none" stroke="#000000" stroke-dasharray="1,5" points="8,-70 8,-268 823,-268 823,-70 8,-70"/>
</g>
<g id="clust2" class="cluster">
<title>cluster_DispensacaoFormModule_declarations</title>
<polygon fill="none" stroke="#000000" points="617,-78 617,-130 815,-130 815,-78 617,-78"/>
</g>
<g id="clust4" class="cluster">
<title>cluster_DispensacaoFormModule_imports</title>
<polygon fill="none" stroke="#000000" points="16,-78 16,-130 609,-130 609,-78 16,-78"/>
</g>
<g id="clust5" class="cluster">
<title>cluster_DispensacaoFormModule_exports</title>
<polygon fill="none" stroke="#000000" points="307,-208 307,-260 509,-260 509,-208 307,-208"/>
</g>
<!-- DispensacaoFormComponent -->
<g id="node1" class="node">
<title>DispensacaoFormComponent</title>
<polygon fill="#ffffb3" stroke="#000000" points="807.4115,-122 624.5885,-122 624.5885,-86 807.4115,-86 807.4115,-122"/>
<text text-anchor="middle" x="716" y="-99.8" font-family="Times,serif" font-size="14.00" fill="#000000">DispensacaoFormComponent</text>
</g>
<!-- DispensacaoFormModule -->
<g id="node2" class="node">
<title>DispensacaoFormModule</title>
<polygon fill="#8dd3c7" stroke="#000000" points="488.1288,-187 485.1288,-191 464.1288,-191 461.1288,-187 327.8712,-187 327.8712,-151 488.1288,-151 488.1288,-187"/>
<text text-anchor="middle" x="408" y="-164.8" font-family="Times,serif" font-size="14.00" fill="#000000">DispensacaoFormModule</text>
</g>
<!-- DispensacaoFormComponent&#45;&gt;DispensacaoFormModule -->
<g id="edge1" class="edge">
<title>DispensacaoFormComponent&#45;&gt;DispensacaoFormModule</title>
<path fill="none" stroke="#000000" d="M716,-122.1061C716,-141.3391 716,-169 716,-169 716,-169 498.5211,-169 498.5211,-169"/>
<polygon fill="#000000" stroke="#000000" points="498.5211,-165.5001 488.5211,-169 498.521,-172.5001 498.5211,-165.5001"/>
</g>
<!-- DispensacaoFormComponent  -->
<g id="node7" class="node">
<title>DispensacaoFormComponent </title>
<polygon fill="#fb8072" stroke="#000000" points="500.911,-252 315.089,-252 315.089,-216 500.911,-216 500.911,-252"/>
<text text-anchor="middle" x="408" y="-229.8" font-family="Times,serif" font-size="14.00" fill="#000000">DispensacaoFormComponent </text>
</g>
<!-- DispensacaoFormModule&#45;&gt;DispensacaoFormComponent  -->
<g id="edge6" class="edge">
<title>DispensacaoFormModule&#45;&gt;DispensacaoFormComponent </title>
<path fill="none" stroke="#000000" stroke-dasharray="5,2" d="M408,-187.1061C408,-187.1061 408,-205.991 408,-205.991"/>
<polygon fill="#000000" stroke="#000000" points="404.5001,-205.9909 408,-215.991 411.5001,-205.991 404.5001,-205.9909"/>
</g>
<!-- MaterialModule -->
<g id="node3" class="node">
<title>MaterialModule</title>
<polygon fill="#8dd3c7" stroke="#000000" points="601.4706,-122 598.4706,-126 577.4706,-126 574.4706,-122 494.5294,-122 494.5294,-86 601.4706,-86 601.4706,-122"/>
<text text-anchor="middle" x="548" y="-99.8" font-family="Times,serif" font-size="14.00" fill="#000000">MaterialModule</text>
</g>
<!-- MaterialModule&#45;&gt;DispensacaoFormModule -->
<g id="edge2" class="edge">
<title>MaterialModule&#45;&gt;DispensacaoFormModule</title>
<path fill="none" stroke="#000000" d="M494.3408,-104C487.2014,-104 482.2883,-104 482.2883,-104 482.2883,-104 482.2883,-140.8939 482.2883,-140.8939"/>
<polygon fill="#000000" stroke="#000000" points="478.7883,-140.8938 482.2883,-150.8939 485.7883,-140.8939 478.7883,-140.8938"/>
</g>
<!-- MedicamentoModule -->
<g id="node4" class="node">
<title>MedicamentoModule</title>
<polygon fill="#8dd3c7" stroke="#000000" points="476.0254,-122 473.0254,-126 452.0254,-126 449.0254,-122 339.9746,-122 339.9746,-86 476.0254,-86 476.0254,-122"/>
<text text-anchor="middle" x="408" y="-99.8" font-family="Times,serif" font-size="14.00" fill="#000000">MedicamentoModule</text>
</g>
<!-- MedicamentoModule&#45;&gt;DispensacaoFormModule -->
<g id="edge3" class="edge">
<title>MedicamentoModule&#45;&gt;DispensacaoFormModule</title>
<path fill="none" stroke="#000000" d="M408,-122.1061C408,-122.1061 408,-140.991 408,-140.991"/>
<polygon fill="#000000" stroke="#000000" points="404.5001,-140.9909 408,-150.991 411.5001,-140.991 404.5001,-140.9909"/>
</g>
<!-- PacienteMedicoModule -->
<g id="node5" class="node">
<title>PacienteMedicoModule</title>
<polygon fill="#8dd3c7" stroke="#000000" points="321.7366,-122 318.7366,-126 297.7366,-126 294.7366,-122 172.2634,-122 172.2634,-86 321.7366,-86 321.7366,-122"/>
<text text-anchor="middle" x="247" y="-99.8" font-family="Times,serif" font-size="14.00" fill="#000000">PacienteMedicoModule</text>
</g>
<!-- PacienteMedicoModule&#45;&gt;DispensacaoFormModule -->
<g id="edge4" class="edge">
<title>PacienteMedicoModule&#45;&gt;DispensacaoFormModule</title>
<path fill="none" stroke="#000000" d="M322.0174,-104C329.106,-104 333.7118,-104 333.7118,-104 333.7118,-104 333.7118,-140.8939 333.7118,-140.8939"/>
<polygon fill="#000000" stroke="#000000" points="330.2118,-140.8938 333.7118,-150.8939 337.2118,-140.8939 330.2118,-140.8938"/>
</g>
<!-- ResponsavelModule -->
<g id="node6" class="node">
<title>ResponsavelModule</title>
<polygon fill="#8dd3c7" stroke="#000000" points="154.3104,-122 151.3104,-126 130.3104,-126 127.3104,-122 23.6896,-122 23.6896,-86 154.3104,-86 154.3104,-122"/>
<text text-anchor="middle" x="89" y="-99.8" font-family="Times,serif" font-size="14.00" fill="#000000">ResponsavelModule</text>
</g>
<!-- ResponsavelModule&#45;&gt;DispensacaoFormModule -->
<g id="edge5" class="edge">
<title>ResponsavelModule&#45;&gt;DispensacaoFormModule</title>
<path fill="none" stroke="#000000" d="M89,-122.1061C89,-141.3391 89,-169 89,-169 89,-169 317.5028,-169 317.5028,-169"/>
<polygon fill="#000000" stroke="#000000" points="317.5029,-172.5001 327.5028,-169 317.5028,-165.5001 317.5029,-172.5001"/>
</g>
</g>
</svg>
