<?xml version="1.0" encoding="UTF-8" standalone="no"?>
<!DOCTYPE svg PUBLIC "-//W3C//DTD SVG 1.1//EN"
 "http://www.w3.org/Graphics/SVG/1.1/DTD/svg11.dtd">
<!-- Generated by graphviz version 2.40.1 (20161225.0304)
 -->
<!-- Title: dependencies Pages: 1 -->
<svg width="1124pt" height="284pt"
 viewBox="0.00 0.00 1124.00 284.00" xmlns="http://www.w3.org/2000/svg" xmlns:xlink="http://www.w3.org/1999/xlink">
<g id="graph0" class="graph" transform="scale(1 1) rotate(0) translate(4 280)">
<title>dependencies</title>
<polygon fill="#ffffff" stroke="transparent" points="-4,4 -4,-280 1120,-280 1120,4 -4,4"/>
<text text-anchor="start" x="537.0091" y="-42.4" font-family="sans-serif" font-weight="bold" font-size="14.00" fill="#000000">Legend</text>
<polygon fill="#ffffb3" stroke="transparent" points="324,-10 324,-30 344,-30 344,-10 324,-10"/>
<text text-anchor="start" x="347.629" y="-15.4" font-family="sans-serif" font-size="14.00" fill="#000000"> &#160;Declarations</text>
<polygon fill="#8dd3c7" stroke="transparent" points="437,-10 437,-30 457,-30 457,-10 437,-10"/>
<text text-anchor="start" x="460.7251" y="-15.4" font-family="sans-serif" font-size="14.00" fill="#000000"> &#160;Module</text>
<polygon fill="#80b1d3" stroke="transparent" points="523,-10 523,-30 543,-30 543,-10 523,-10"/>
<text text-anchor="start" x="546.7812" y="-15.4" font-family="sans-serif" font-size="14.00" fill="#000000"> &#160;Bootstrap</text>
<polygon fill="#fdb462" stroke="transparent" points="620,-10 620,-30 640,-30 640,-10 620,-10"/>
<text text-anchor="start" x="643.6732" y="-15.4" font-family="sans-serif" font-size="14.00" fill="#000000"> &#160;Providers</text>
<polygon fill="#fb8072" stroke="transparent" points="716,-10 716,-30 736,-30 736,-10 716,-10"/>
<text text-anchor="start" x="739.7258" y="-15.4" font-family="sans-serif" font-size="14.00" fill="#000000"> &#160;Exports</text>
<g id="clust1" class="cluster">
<title>cluster_RastreabilidadeModule</title>
<polygon fill="none" stroke="#000000" stroke-dasharray="1,5" points="8,-70 8,-268 1108,-268 1108,-70 8,-70"/>
</g>
<g id="clust2" class="cluster">
<title>cluster_RastreabilidadeModule_declarations</title>
<polygon fill="none" stroke="#000000" points="916,-78 916,-130 1100,-130 1100,-78 916,-78"/>
</g>
<g id="clust4" class="cluster">
<title>cluster_RastreabilidadeModule_imports</title>
<polygon fill="none" stroke="#000000" points="204,-78 204,-130 908,-130 908,-78 204,-78"/>
</g>
<g id="clust5" class="cluster">
<title>cluster_RastreabilidadeModule_exports</title>
<polygon fill="none" stroke="#000000" points="489,-208 489,-260 677,-260 677,-208 489,-208"/>
</g>
<g id="clust7" class="cluster">
<title>cluster_RastreabilidadeModule_providers</title>
<polygon fill="none" stroke="#000000" points="16,-78 16,-130 196,-130 196,-78 16,-78"/>
</g>
<!-- RastreabilidadeComponent -->
<g id="node1" class="node">
<title>RastreabilidadeComponent</title>
<polygon fill="#ffffb3" stroke="#000000" points="1092.4101,-122 923.5899,-122 923.5899,-86 1092.4101,-86 1092.4101,-122"/>
<text text-anchor="middle" x="1008" y="-99.8" font-family="Times,serif" font-size="14.00" fill="#000000">RastreabilidadeComponent</text>
</g>
<!-- RastreabilidadeModule -->
<g id="node2" class="node">
<title>RastreabilidadeModule</title>
<polygon fill="#8dd3c7" stroke="#000000" points="656.1275,-187 653.1275,-191 632.1275,-191 629.1275,-187 509.8725,-187 509.8725,-151 656.1275,-151 656.1275,-187"/>
<text text-anchor="middle" x="583" y="-164.8" font-family="Times,serif" font-size="14.00" fill="#000000">RastreabilidadeModule</text>
</g>
<!-- RastreabilidadeComponent&#45;&gt;RastreabilidadeModule -->
<g id="edge1" class="edge">
<title>RastreabilidadeComponent&#45;&gt;RastreabilidadeModule</title>
<path fill="none" stroke="#000000" d="M1008,-122.2921C1008,-144.2057 1008,-178 1008,-178 1008,-178 666.5442,-178 666.5442,-178"/>
<polygon fill="#000000" stroke="#000000" points="666.5442,-174.5001 656.5442,-178 666.5441,-181.5001 666.5442,-174.5001"/>
</g>
<!-- RastreabilidadeComponent  -->
<g id="node8" class="node">
<title>RastreabilidadeComponent </title>
<polygon fill="#fb8072" stroke="#000000" points="668.9096,-252 497.0904,-252 497.0904,-216 668.9096,-216 668.9096,-252"/>
<text text-anchor="middle" x="583" y="-229.8" font-family="Times,serif" font-size="14.00" fill="#000000">RastreabilidadeComponent </text>
</g>
<!-- RastreabilidadeModule&#45;&gt;RastreabilidadeComponent  -->
<g id="edge7" class="edge">
<title>RastreabilidadeModule&#45;&gt;RastreabilidadeComponent </title>
<path fill="none" stroke="#000000" stroke-dasharray="5,2" d="M583,-187.1061C583,-187.1061 583,-205.991 583,-205.991"/>
<polygon fill="#000000" stroke="#000000" points="579.5001,-205.9909 583,-215.991 586.5001,-205.991 579.5001,-205.9909"/>
</g>
<!-- ElementListModule -->
<g id="node3" class="node">
<title>ElementListModule</title>
<polygon fill="#8dd3c7" stroke="#000000" points="899.9818,-122 896.9818,-126 875.9818,-126 872.9818,-122 772.0182,-122 772.0182,-86 899.9818,-86 899.9818,-122"/>
<text text-anchor="middle" x="836" y="-99.8" font-family="Times,serif" font-size="14.00" fill="#000000">ElementListModule</text>
</g>
<!-- ElementListModule&#45;&gt;RastreabilidadeModule -->
<g id="edge2" class="edge">
<title>ElementListModule&#45;&gt;RastreabilidadeModule</title>
<path fill="none" stroke="#000000" d="M836,-122.1061C836,-141.3391 836,-169 836,-169 836,-169 666.1781,-169 666.1781,-169"/>
<polygon fill="#000000" stroke="#000000" points="666.1781,-165.5001 656.1781,-169 666.178,-172.5001 666.1781,-165.5001"/>
</g>
<!-- LayoutModule -->
<g id="node4" class="node">
<title>LayoutModule</title>
<polygon fill="#8dd3c7" stroke="#000000" points="753.7078,-122 750.7078,-126 729.7078,-126 726.7078,-122 654.2922,-122 654.2922,-86 753.7078,-86 753.7078,-122"/>
<text text-anchor="middle" x="704" y="-99.8" font-family="Times,serif" font-size="14.00" fill="#000000">LayoutModule</text>
</g>
<!-- LayoutModule&#45;&gt;RastreabilidadeModule -->
<g id="edge3" class="edge">
<title>LayoutModule&#45;&gt;RastreabilidadeModule</title>
<path fill="none" stroke="#000000" d="M662.6342,-122.027C662.6342,-138.3976 662.6342,-160 662.6342,-160 662.6342,-160 662.0093,-160 662.0093,-160"/>
<polygon fill="#000000" stroke="#000000" points="666.3855,-156.5002 656.3854,-160 666.3853,-163.5002 666.3855,-156.5002"/>
</g>
<!-- MaterialModule -->
<g id="node5" class="node">
<title>MaterialModule</title>
<polygon fill="#8dd3c7" stroke="#000000" points="636.4706,-122 633.4706,-126 612.4706,-126 609.4706,-122 529.5294,-122 529.5294,-86 636.4706,-86 636.4706,-122"/>
<text text-anchor="middle" x="583" y="-99.8" font-family="Times,serif" font-size="14.00" fill="#000000">MaterialModule</text>
</g>
<!-- MaterialModule&#45;&gt;RastreabilidadeModule -->
<g id="edge4" class="edge">
<title>MaterialModule&#45;&gt;RastreabilidadeModule</title>
<path fill="none" stroke="#000000" d="M583,-122.1061C583,-122.1061 583,-140.991 583,-140.991"/>
<polygon fill="#000000" stroke="#000000" points="579.5001,-140.9909 583,-150.991 586.5001,-140.991 579.5001,-140.9909"/>
</g>
<!-- RastreabilidadeRoutingModule -->
<g id="node6" class="node">
<title>RastreabilidadeRoutingModule</title>
<polygon fill="#8dd3c7" stroke="#000000" points="511.745,-122 508.745,-126 487.745,-126 484.745,-122 320.255,-122 320.255,-86 511.745,-86 511.745,-122"/>
<text text-anchor="middle" x="416" y="-99.8" font-family="Times,serif" font-size="14.00" fill="#000000">RastreabilidadeRoutingModule</text>
</g>
<!-- RastreabilidadeRoutingModule&#45;&gt;RastreabilidadeModule -->
<g id="edge5" class="edge">
<title>RastreabilidadeRoutingModule&#45;&gt;RastreabilidadeModule</title>
<path fill="none" stroke="#000000" d="M503.3659,-122.2921C503.3659,-144.2057 503.3659,-178 503.3659,-178 503.3659,-178 503.9907,-178 503.9907,-178"/>
<polygon fill="#000000" stroke="#000000" points="499.6147,-181.5002 509.6146,-178 499.6145,-174.5002 499.6147,-181.5002"/>
</g>
<!-- SheetModule -->
<g id="node7" class="node">
<title>SheetModule</title>
<polygon fill="#8dd3c7" stroke="#000000" points="302.1529,-122 299.1529,-126 278.1529,-126 275.1529,-122 211.8471,-122 211.8471,-86 302.1529,-86 302.1529,-122"/>
<text text-anchor="middle" x="257" y="-99.8" font-family="Times,serif" font-size="14.00" fill="#000000">SheetModule</text>
</g>
<!-- SheetModule&#45;&gt;RastreabilidadeModule -->
<g id="edge6" class="edge">
<title>SheetModule&#45;&gt;RastreabilidadeModule</title>
<path fill="none" stroke="#000000" d="M257,-122.027C257,-138.3976 257,-160 257,-160 257,-160 499.8392,-160 499.8392,-160"/>
<polygon fill="#000000" stroke="#000000" points="499.8393,-163.5001 509.8392,-160 499.8392,-156.5001 499.8393,-163.5001"/>
</g>
<!-- BiologicosService -->
<g id="node9" class="node">
<title>BiologicosService</title>
<ellipse fill="#fdb462" stroke="#000000" cx="106" cy="-104" rx="81.6789" ry="18"/>
<text text-anchor="middle" x="106" y="-99.8" font-family="Times,serif" font-size="14.00" fill="#000000">BiologicosService</text>
</g>
<!-- BiologicosService&#45;&gt;RastreabilidadeModule -->
<g id="edge8" class="edge">
<title>BiologicosService&#45;&gt;RastreabilidadeModule</title>
<path fill="none" stroke="#000000" d="M106,-122.1061C106,-141.3391 106,-169 106,-169 106,-169 499.7746,-169 499.7746,-169"/>
<polygon fill="#000000" stroke="#000000" points="499.7746,-172.5001 509.7746,-169 499.7746,-165.5001 499.7746,-172.5001"/>
</g>
</g>
</svg>
