<?xml version="1.0" encoding="UTF-8" standalone="no"?>
<!DOCTYPE svg PUBLIC "-//W3C//DTD SVG 1.1//EN"
 "http://www.w3.org/Graphics/SVG/1.1/DTD/svg11.dtd">
<!-- Generated by graphviz version 2.40.1 (20161225.0304)
 -->
<!-- Title: dependencies Pages: 1 -->
<svg width="504pt" height="284pt"
 viewBox="0.00 0.00 504.00 284.00" xmlns="http://www.w3.org/2000/svg" xmlns:xlink="http://www.w3.org/1999/xlink">
<g id="graph0" class="graph" transform="scale(1 1) rotate(0) translate(4 280)">
<title>dependencies</title>
<polygon fill="#ffffff" stroke="transparent" points="-4,4 -4,-280 500,-280 500,4 -4,4"/>
<text text-anchor="start" x="227.0091" y="-42.4" font-family="sans-serif" font-weight="bold" font-size="14.00" fill="#000000">Legend</text>
<polygon fill="#ffffb3" stroke="transparent" points="14,-10 14,-30 34,-30 34,-10 14,-10"/>
<text text-anchor="start" x="37.629" y="-15.4" font-family="sans-serif" font-size="14.00" fill="#000000"> &#160;Declarations</text>
<polygon fill="#8dd3c7" stroke="transparent" points="127,-10 127,-30 147,-30 147,-10 127,-10"/>
<text text-anchor="start" x="150.7251" y="-15.4" font-family="sans-serif" font-size="14.00" fill="#000000"> &#160;Module</text>
<polygon fill="#80b1d3" stroke="transparent" points="213,-10 213,-30 233,-30 233,-10 213,-10"/>
<text text-anchor="start" x="236.7812" y="-15.4" font-family="sans-serif" font-size="14.00" fill="#000000"> &#160;Bootstrap</text>
<polygon fill="#fdb462" stroke="transparent" points="310,-10 310,-30 330,-30 330,-10 310,-10"/>
<text text-anchor="start" x="333.6732" y="-15.4" font-family="sans-serif" font-size="14.00" fill="#000000"> &#160;Providers</text>
<polygon fill="#fb8072" stroke="transparent" points="406,-10 406,-30 426,-30 426,-10 406,-10"/>
<text text-anchor="start" x="429.7258" y="-15.4" font-family="sans-serif" font-size="14.00" fill="#000000"> &#160;Exports</text>
<g id="clust1" class="cluster">
<title>cluster_SidnavHeaderModule</title>
<polygon fill="none" stroke="#000000" stroke-dasharray="1,5" points="84,-70 84,-268 412,-268 412,-70 84,-70"/>
</g>
<g id="clust2" class="cluster">
<title>cluster_SidnavHeaderModule_declarations</title>
<polygon fill="none" stroke="#000000" points="222,-78 222,-130 404,-130 404,-78 222,-78"/>
</g>
<g id="clust4" class="cluster">
<title>cluster_SidnavHeaderModule_imports</title>
<polygon fill="none" stroke="#000000" points="92,-78 92,-130 214,-130 214,-78 92,-78"/>
</g>
<g id="clust5" class="cluster">
<title>cluster_SidnavHeaderModule_exports</title>
<polygon fill="none" stroke="#000000" points="155,-208 155,-260 341,-260 341,-208 155,-208"/>
</g>
<!-- SidenavHeaderComponent -->
<g id="node1" class="node">
<title>SidenavHeaderComponent</title>
<polygon fill="#ffffb3" stroke="#000000" points="396.3459,-122 229.6541,-122 229.6541,-86 396.3459,-86 396.3459,-122"/>
<text text-anchor="middle" x="313" y="-99.8" font-family="Times,serif" font-size="14.00" fill="#000000">SidenavHeaderComponent</text>
</g>
<!-- SidnavHeaderModule -->
<g id="node2" class="node">
<title>SidnavHeaderModule</title>
<polygon fill="#8dd3c7" stroke="#000000" points="317.3487,-187 314.3487,-191 293.3487,-191 290.3487,-187 178.6513,-187 178.6513,-151 317.3487,-151 317.3487,-187"/>
<text text-anchor="middle" x="248" y="-164.8" font-family="Times,serif" font-size="14.00" fill="#000000">SidnavHeaderModule</text>
</g>
<!-- SidenavHeaderComponent&#45;&gt;SidnavHeaderModule -->
<g id="edge1" class="edge">
<title>SidenavHeaderComponent&#45;&gt;SidnavHeaderModule</title>
<path fill="none" stroke="#000000" d="M273.5007,-122.1061C273.5007,-122.1061 273.5007,-140.991 273.5007,-140.991"/>
<polygon fill="#000000" stroke="#000000" points="270.0008,-140.9909 273.5007,-150.991 277.0008,-140.991 270.0008,-140.9909"/>
</g>
<!-- SidenavHeaderComponent  -->
<g id="node4" class="node">
<title>SidenavHeaderComponent </title>
<polygon fill="#fb8072" stroke="#000000" points="333.3462,-252 162.6538,-252 162.6538,-216 333.3462,-216 333.3462,-252"/>
<text text-anchor="middle" x="248" y="-229.8" font-family="Times,serif" font-size="14.00" fill="#000000">SidenavHeaderComponent </text>
</g>
<!-- SidnavHeaderModule&#45;&gt;SidenavHeaderComponent  -->
<g id="edge3" class="edge">
<title>SidnavHeaderModule&#45;&gt;SidenavHeaderComponent </title>
<path fill="none" stroke="#000000" stroke-dasharray="5,2" d="M248,-187.1061C248,-187.1061 248,-205.991 248,-205.991"/>
<polygon fill="#000000" stroke="#000000" points="244.5001,-205.9909 248,-215.991 251.5001,-205.991 244.5001,-205.9909"/>
</g>
<!-- MaterialModule -->
<g id="node3" class="node">
<title>MaterialModule</title>
<polygon fill="#8dd3c7" stroke="#000000" points="206.4706,-122 203.4706,-126 182.4706,-126 179.4706,-122 99.5294,-122 99.5294,-86 206.4706,-86 206.4706,-122"/>
<text text-anchor="middle" x="153" y="-99.8" font-family="Times,serif" font-size="14.00" fill="#000000">MaterialModule</text>
</g>
<!-- MaterialModule&#45;&gt;SidnavHeaderModule -->
<g id="edge2" class="edge">
<title>MaterialModule&#45;&gt;SidnavHeaderModule</title>
<path fill="none" stroke="#000000" d="M192.5305,-122.1061C192.5305,-122.1061 192.5305,-140.991 192.5305,-140.991"/>
<polygon fill="#000000" stroke="#000000" points="189.0306,-140.9909 192.5305,-150.991 196.0306,-140.991 189.0306,-140.9909"/>
</g>
</g>
</svg>
