<?xml version="1.0" encoding="UTF-8" standalone="no"?>
<!DOCTYPE svg PUBLIC "-//W3C//DTD SVG 1.1//EN"
 "http://www.w3.org/Graphics/SVG/1.1/DTD/svg11.dtd">
<!-- Generated by graphviz version 2.40.1 (20161225.0304)
 -->
<!-- Title: dependencies Pages: 1 -->
<svg width="953pt" height="284pt"
 viewBox="0.00 0.00 953.00 284.00" xmlns="http://www.w3.org/2000/svg" xmlns:xlink="http://www.w3.org/1999/xlink">
<g id="graph0" class="graph" transform="scale(1 1) rotate(0) translate(4 280)">
<title>dependencies</title>
<polygon fill="#ffffff" stroke="transparent" points="-4,4 -4,-280 949,-280 949,4 -4,4"/>
<text text-anchor="start" x="451.5091" y="-42.4" font-family="sans-serif" font-weight="bold" font-size="14.00" fill="#000000">Legend</text>
<polygon fill="#ffffb3" stroke="transparent" points="238.5,-10 238.5,-30 258.5,-30 258.5,-10 238.5,-10"/>
<text text-anchor="start" x="262.129" y="-15.4" font-family="sans-serif" font-size="14.00" fill="#000000"> &#160;Declarations</text>
<polygon fill="#8dd3c7" stroke="transparent" points="351.5,-10 351.5,-30 371.5,-30 371.5,-10 351.5,-10"/>
<text text-anchor="start" x="375.2251" y="-15.4" font-family="sans-serif" font-size="14.00" fill="#000000"> &#160;Module</text>
<polygon fill="#80b1d3" stroke="transparent" points="437.5,-10 437.5,-30 457.5,-30 457.5,-10 437.5,-10"/>
<text text-anchor="start" x="461.2812" y="-15.4" font-family="sans-serif" font-size="14.00" fill="#000000"> &#160;Bootstrap</text>
<polygon fill="#fdb462" stroke="transparent" points="534.5,-10 534.5,-30 554.5,-30 554.5,-10 534.5,-10"/>
<text text-anchor="start" x="558.1732" y="-15.4" font-family="sans-serif" font-size="14.00" fill="#000000"> &#160;Providers</text>
<polygon fill="#fb8072" stroke="transparent" points="630.5,-10 630.5,-30 650.5,-30 650.5,-10 630.5,-10"/>
<text text-anchor="start" x="654.2258" y="-15.4" font-family="sans-serif" font-size="14.00" fill="#000000"> &#160;Exports</text>
<g id="clust1" class="cluster">
<title>cluster_RastreabilidadeDialogModule</title>
<polygon fill="none" stroke="#000000" stroke-dasharray="1,5" points="8,-70 8,-268 937,-268 937,-70 8,-70"/>
</g>
<g id="clust2" class="cluster">
<title>cluster_RastreabilidadeDialogModule_declarations</title>
<polygon fill="none" stroke="#000000" points="707,-78 707,-130 929,-130 929,-78 707,-78"/>
</g>
<g id="clust4" class="cluster">
<title>cluster_RastreabilidadeDialogModule_imports</title>
<polygon fill="none" stroke="#000000" points="204,-78 204,-130 699,-130 699,-78 204,-78"/>
</g>
<g id="clust5" class="cluster">
<title>cluster_RastreabilidadeDialogModule_exports</title>
<polygon fill="none" stroke="#000000" points="321,-208 321,-260 547,-260 547,-208 321,-208"/>
</g>
<g id="clust7" class="cluster">
<title>cluster_RastreabilidadeDialogModule_providers</title>
<polygon fill="none" stroke="#000000" points="16,-78 16,-130 196,-130 196,-78 16,-78"/>
</g>
<!-- RastreabilidadeDialogComponent -->
<g id="node1" class="node">
<title>RastreabilidadeDialogComponent</title>
<polygon fill="#ffffb3" stroke="#000000" points="921.0126,-122 714.9874,-122 714.9874,-86 921.0126,-86 921.0126,-122"/>
<text text-anchor="middle" x="818" y="-99.8" font-family="Times,serif" font-size="14.00" fill="#000000">RastreabilidadeDialogComponent</text>
</g>
<!-- RastreabilidadeDialogModule -->
<g id="node2" class="node">
<title>RastreabilidadeDialogModule</title>
<polygon fill="#8dd3c7" stroke="#000000" points="526.2296,-187 523.2296,-191 502.2296,-191 499.2296,-187 341.7704,-187 341.7704,-151 526.2296,-151 526.2296,-187"/>
<text text-anchor="middle" x="434" y="-164.8" font-family="Times,serif" font-size="14.00" fill="#000000">RastreabilidadeDialogModule</text>
</g>
<!-- RastreabilidadeDialogComponent&#45;&gt;RastreabilidadeDialogModule -->
<g id="edge1" class="edge">
<title>RastreabilidadeDialogComponent&#45;&gt;RastreabilidadeDialogModule</title>
<path fill="none" stroke="#000000" d="M818,-122.2843C818,-143.3211 818,-175 818,-175 818,-175 536.4662,-175 536.4662,-175"/>
<polygon fill="#000000" stroke="#000000" points="536.4663,-171.5001 526.4662,-175 536.4662,-178.5001 536.4663,-171.5001"/>
</g>
<!-- RastreabilidadeDialogComponent  -->
<g id="node7" class="node">
<title>RastreabilidadeDialogComponent </title>
<polygon fill="#fb8072" stroke="#000000" points="539.012,-252 328.988,-252 328.988,-216 539.012,-216 539.012,-252"/>
<text text-anchor="middle" x="434" y="-229.8" font-family="Times,serif" font-size="14.00" fill="#000000">RastreabilidadeDialogComponent </text>
</g>
<!-- RastreabilidadeDialogModule&#45;&gt;RastreabilidadeDialogComponent  -->
<g id="edge6" class="edge">
<title>RastreabilidadeDialogModule&#45;&gt;RastreabilidadeDialogComponent </title>
<path fill="none" stroke="#000000" stroke-dasharray="5,2" d="M434,-187.1061C434,-187.1061 434,-205.991 434,-205.991"/>
<polygon fill="#000000" stroke="#000000" points="430.5001,-205.9909 434,-215.991 437.5001,-205.991 430.5001,-205.9909"/>
</g>
<!-- ElementListModule -->
<g id="node3" class="node">
<title>ElementListModule</title>
<polygon fill="#8dd3c7" stroke="#000000" points="690.9818,-122 687.9818,-126 666.9818,-126 663.9818,-122 563.0182,-122 563.0182,-86 690.9818,-86 690.9818,-122"/>
<text text-anchor="middle" x="627" y="-99.8" font-family="Times,serif" font-size="14.00" fill="#000000">ElementListModule</text>
</g>
<!-- ElementListModule&#45;&gt;RastreabilidadeDialogModule -->
<g id="edge2" class="edge">
<title>ElementListModule&#45;&gt;RastreabilidadeDialogModule</title>
<path fill="none" stroke="#000000" d="M627,-122.0225C627,-139.3734 627,-163 627,-163 627,-163 536.2605,-163 536.2605,-163"/>
<polygon fill="#000000" stroke="#000000" points="536.2605,-159.5001 526.2605,-163 536.2605,-166.5001 536.2605,-159.5001"/>
</g>
<!-- LayoutModule -->
<g id="node4" class="node">
<title>LayoutModule</title>
<polygon fill="#8dd3c7" stroke="#000000" points="544.7078,-122 541.7078,-126 520.7078,-126 517.7078,-122 445.2922,-122 445.2922,-86 544.7078,-86 544.7078,-122"/>
<text text-anchor="middle" x="495" y="-99.8" font-family="Times,serif" font-size="14.00" fill="#000000">LayoutModule</text>
</g>
<!-- LayoutModule&#45;&gt;RastreabilidadeDialogModule -->
<g id="edge3" class="edge">
<title>LayoutModule&#45;&gt;RastreabilidadeDialogModule</title>
<path fill="none" stroke="#000000" d="M485.8805,-122.1061C485.8805,-122.1061 485.8805,-140.991 485.8805,-140.991"/>
<polygon fill="#000000" stroke="#000000" points="482.3805,-140.9909 485.8805,-150.991 489.3805,-140.991 482.3805,-140.9909"/>
</g>
<!-- MaterialModule -->
<g id="node5" class="node">
<title>MaterialModule</title>
<polygon fill="#8dd3c7" stroke="#000000" points="427.4706,-122 424.4706,-126 403.4706,-126 400.4706,-122 320.5294,-122 320.5294,-86 427.4706,-86 427.4706,-122"/>
<text text-anchor="middle" x="374" y="-99.8" font-family="Times,serif" font-size="14.00" fill="#000000">MaterialModule</text>
</g>
<!-- MaterialModule&#45;&gt;RastreabilidadeDialogModule -->
<g id="edge4" class="edge">
<title>MaterialModule&#45;&gt;RastreabilidadeDialogModule</title>
<path fill="none" stroke="#000000" d="M384.5603,-122.1061C384.5603,-122.1061 384.5603,-140.991 384.5603,-140.991"/>
<polygon fill="#000000" stroke="#000000" points="381.0604,-140.9909 384.5603,-150.991 388.0604,-140.991 381.0604,-140.9909"/>
</g>
<!-- SheetModule -->
<g id="node6" class="node">
<title>SheetModule</title>
<polygon fill="#8dd3c7" stroke="#000000" points="302.1529,-122 299.1529,-126 278.1529,-126 275.1529,-122 211.8471,-122 211.8471,-86 302.1529,-86 302.1529,-122"/>
<text text-anchor="middle" x="257" y="-99.8" font-family="Times,serif" font-size="14.00" fill="#000000">SheetModule</text>
</g>
<!-- SheetModule&#45;&gt;RastreabilidadeDialogModule -->
<g id="edge5" class="edge">
<title>SheetModule&#45;&gt;RastreabilidadeDialogModule</title>
<path fill="none" stroke="#000000" d="M257,-122.0225C257,-139.3734 257,-163 257,-163 257,-163 331.612,-163 331.612,-163"/>
<polygon fill="#000000" stroke="#000000" points="331.612,-166.5001 341.612,-163 331.6119,-159.5001 331.612,-166.5001"/>
</g>
<!-- BiologicosService -->
<g id="node8" class="node">
<title>BiologicosService</title>
<ellipse fill="#fdb462" stroke="#000000" cx="106" cy="-104" rx="81.6789" ry="18"/>
<text text-anchor="middle" x="106" y="-99.8" font-family="Times,serif" font-size="14.00" fill="#000000">BiologicosService</text>
</g>
<!-- BiologicosService&#45;&gt;RastreabilidadeDialogModule -->
<g id="edge7" class="edge">
<title>BiologicosService&#45;&gt;RastreabilidadeDialogModule</title>
<path fill="none" stroke="#000000" d="M106,-122.2843C106,-143.3211 106,-175 106,-175 106,-175 331.7608,-175 331.7608,-175"/>
<polygon fill="#000000" stroke="#000000" points="331.7609,-178.5001 341.7608,-175 331.7608,-171.5001 331.7609,-178.5001"/>
</g>
</g>
</svg>
