<?xml version="1.0" encoding="UTF-8" standalone="no"?>
<!DOCTYPE svg PUBLIC "-//W3C//DTD SVG 1.1//EN"
 "http://www.w3.org/Graphics/SVG/1.1/DTD/svg11.dtd">
<!-- Generated by graphviz version 2.40.1 (20161225.0304)
 -->
<!-- Title: dependencies Pages: 1 -->
<svg width="851pt" height="284pt"
 viewBox="0.00 0.00 851.00 284.00" xmlns="http://www.w3.org/2000/svg" xmlns:xlink="http://www.w3.org/1999/xlink">
<g id="graph0" class="graph" transform="scale(1 1) rotate(0) translate(4 280)">
<title>dependencies</title>
<polygon fill="#ffffff" stroke="transparent" points="-4,4 -4,-280 847,-280 847,4 -4,4"/>
<text text-anchor="start" x="400.5091" y="-42.4" font-family="sans-serif" font-weight="bold" font-size="14.00" fill="#000000">Legend</text>
<polygon fill="#ffffb3" stroke="transparent" points="187.5,-10 187.5,-30 207.5,-30 207.5,-10 187.5,-10"/>
<text text-anchor="start" x="211.129" y="-15.4" font-family="sans-serif" font-size="14.00" fill="#000000"> &#160;Declarations</text>
<polygon fill="#8dd3c7" stroke="transparent" points="300.5,-10 300.5,-30 320.5,-30 320.5,-10 300.5,-10"/>
<text text-anchor="start" x="324.2251" y="-15.4" font-family="sans-serif" font-size="14.00" fill="#000000"> &#160;Module</text>
<polygon fill="#80b1d3" stroke="transparent" points="386.5,-10 386.5,-30 406.5,-30 406.5,-10 386.5,-10"/>
<text text-anchor="start" x="410.2812" y="-15.4" font-family="sans-serif" font-size="14.00" fill="#000000"> &#160;Bootstrap</text>
<polygon fill="#fdb462" stroke="transparent" points="483.5,-10 483.5,-30 503.5,-30 503.5,-10 483.5,-10"/>
<text text-anchor="start" x="507.1732" y="-15.4" font-family="sans-serif" font-size="14.00" fill="#000000"> &#160;Providers</text>
<polygon fill="#fb8072" stroke="transparent" points="579.5,-10 579.5,-30 599.5,-30 599.5,-10 579.5,-10"/>
<text text-anchor="start" x="603.2258" y="-15.4" font-family="sans-serif" font-size="14.00" fill="#000000"> &#160;Exports</text>
<g id="clust1" class="cluster">
<title>cluster_AdministracaoFormModule</title>
<polygon fill="none" stroke="#000000" stroke-dasharray="1,5" points="8,-70 8,-268 835,-268 835,-70 8,-70"/>
</g>
<g id="clust2" class="cluster">
<title>cluster_AdministracaoFormModule_declarations</title>
<polygon fill="none" stroke="#000000" points="617,-78 617,-130 827,-130 827,-78 617,-78"/>
</g>
<g id="clust4" class="cluster">
<title>cluster_AdministracaoFormModule_imports</title>
<polygon fill="none" stroke="#000000" points="16,-78 16,-130 609,-130 609,-78 16,-78"/>
</g>
<g id="clust5" class="cluster">
<title>cluster_AdministracaoFormModule_exports</title>
<polygon fill="none" stroke="#000000" points="301,-208 301,-260 515,-260 515,-208 301,-208"/>
</g>
<!-- AdministracaoFormComponent -->
<g id="node1" class="node">
<title>AdministracaoFormComponent</title>
<polygon fill="#ffffb3" stroke="#000000" points="819.0842,-122 624.9158,-122 624.9158,-86 819.0842,-86 819.0842,-122"/>
<text text-anchor="middle" x="722" y="-99.8" font-family="Times,serif" font-size="14.00" fill="#000000">AdministracaoFormComponent</text>
</g>
<!-- AdministracaoFormModule -->
<g id="node2" class="node">
<title>AdministracaoFormModule</title>
<polygon fill="#8dd3c7" stroke="#000000" points="494.3019,-187 491.3019,-191 470.3019,-191 467.3019,-187 321.6981,-187 321.6981,-151 494.3019,-151 494.3019,-187"/>
<text text-anchor="middle" x="408" y="-164.8" font-family="Times,serif" font-size="14.00" fill="#000000">AdministracaoFormModule</text>
</g>
<!-- AdministracaoFormComponent&#45;&gt;AdministracaoFormModule -->
<g id="edge1" class="edge">
<title>AdministracaoFormComponent&#45;&gt;AdministracaoFormModule</title>
<path fill="none" stroke="#000000" d="M722,-122.2843C722,-143.3211 722,-175 722,-175 722,-175 504.2172,-175 504.2172,-175"/>
<polygon fill="#000000" stroke="#000000" points="504.2172,-171.5001 494.2172,-175 504.2172,-178.5001 504.2172,-171.5001"/>
</g>
<!-- AdministracaoFormComponent  -->
<g id="node7" class="node">
<title>AdministracaoFormComponent </title>
<polygon fill="#fb8072" stroke="#000000" points="506.5846,-252 309.4154,-252 309.4154,-216 506.5846,-216 506.5846,-252"/>
<text text-anchor="middle" x="408" y="-229.8" font-family="Times,serif" font-size="14.00" fill="#000000">AdministracaoFormComponent </text>
</g>
<!-- AdministracaoFormModule&#45;&gt;AdministracaoFormComponent  -->
<g id="edge6" class="edge">
<title>AdministracaoFormModule&#45;&gt;AdministracaoFormComponent </title>
<path fill="none" stroke="#000000" stroke-dasharray="5,2" d="M408,-187.1061C408,-187.1061 408,-205.991 408,-205.991"/>
<polygon fill="#000000" stroke="#000000" points="404.5001,-205.9909 408,-215.991 411.5001,-205.991 404.5001,-205.9909"/>
</g>
<!-- MaterialModule -->
<g id="node3" class="node">
<title>MaterialModule</title>
<polygon fill="#8dd3c7" stroke="#000000" points="601.4706,-122 598.4706,-126 577.4706,-126 574.4706,-122 494.5294,-122 494.5294,-86 601.4706,-86 601.4706,-122"/>
<text text-anchor="middle" x="548" y="-99.8" font-family="Times,serif" font-size="14.00" fill="#000000">MaterialModule</text>
</g>
<!-- MaterialModule&#45;&gt;AdministracaoFormModule -->
<g id="edge2" class="edge">
<title>MaterialModule&#45;&gt;AdministracaoFormModule</title>
<path fill="none" stroke="#000000" d="M500.6534,-122.0225C500.6534,-139.3734 500.6534,-163 500.6534,-163 500.6534,-163 500.0166,-163 500.0166,-163"/>
<polygon fill="#000000" stroke="#000000" points="504.285,-159.5002 494.285,-163 504.2849,-166.5002 504.285,-159.5002"/>
</g>
<!-- MedicamentoModule -->
<g id="node4" class="node">
<title>MedicamentoModule</title>
<polygon fill="#8dd3c7" stroke="#000000" points="476.0254,-122 473.0254,-126 452.0254,-126 449.0254,-122 339.9746,-122 339.9746,-86 476.0254,-86 476.0254,-122"/>
<text text-anchor="middle" x="408" y="-99.8" font-family="Times,serif" font-size="14.00" fill="#000000">MedicamentoModule</text>
</g>
<!-- MedicamentoModule&#45;&gt;AdministracaoFormModule -->
<g id="edge3" class="edge">
<title>MedicamentoModule&#45;&gt;AdministracaoFormModule</title>
<path fill="none" stroke="#000000" d="M408,-122.1061C408,-122.1061 408,-140.991 408,-140.991"/>
<polygon fill="#000000" stroke="#000000" points="404.5001,-140.9909 408,-150.991 411.5001,-140.991 404.5001,-140.9909"/>
</g>
<!-- PacienteMedicoModule -->
<g id="node5" class="node">
<title>PacienteMedicoModule</title>
<polygon fill="#8dd3c7" stroke="#000000" points="321.7366,-122 318.7366,-126 297.7366,-126 294.7366,-122 172.2634,-122 172.2634,-86 321.7366,-86 321.7366,-122"/>
<text text-anchor="middle" x="247" y="-99.8" font-family="Times,serif" font-size="14.00" fill="#000000">PacienteMedicoModule</text>
</g>
<!-- PacienteMedicoModule&#45;&gt;AdministracaoFormModule -->
<g id="edge4" class="edge">
<title>PacienteMedicoModule&#45;&gt;AdministracaoFormModule</title>
<path fill="none" stroke="#000000" d="M315.5286,-122.2843C315.5286,-143.3211 315.5286,-175 315.5286,-175 315.5286,-175 316.1353,-175 316.1353,-175"/>
<polygon fill="#000000" stroke="#000000" points="311.5959,-178.5002 321.5959,-175 311.5958,-171.5002 311.5959,-178.5002"/>
</g>
<!-- ResponsavelModule -->
<g id="node6" class="node">
<title>ResponsavelModule</title>
<polygon fill="#8dd3c7" stroke="#000000" points="154.3104,-122 151.3104,-126 130.3104,-126 127.3104,-122 23.6896,-122 23.6896,-86 154.3104,-86 154.3104,-122"/>
<text text-anchor="middle" x="89" y="-99.8" font-family="Times,serif" font-size="14.00" fill="#000000">ResponsavelModule</text>
</g>
<!-- ResponsavelModule&#45;&gt;AdministracaoFormModule -->
<g id="edge5" class="edge">
<title>ResponsavelModule&#45;&gt;AdministracaoFormModule</title>
<path fill="none" stroke="#000000" d="M89,-122.0225C89,-139.3734 89,-163 89,-163 89,-163 311.674,-163 311.674,-163"/>
<polygon fill="#000000" stroke="#000000" points="311.674,-166.5001 321.674,-163 311.674,-159.5001 311.674,-166.5001"/>
</g>
</g>
</svg>
