<?xml version="1.0" encoding="UTF-8" standalone="no"?>
<!DOCTYPE svg PUBLIC "-//W3C//DTD SVG 1.1//EN"
 "http://www.w3.org/Graphics/SVG/1.1/DTD/svg11.dtd">
<!-- Generated by graphviz version 2.40.1 (20161225.0304)
 -->
<!-- Title: dependencies Pages: 1 -->
<svg width="829pt" height="211pt"
 viewBox="0.00 0.00 829.00 211.00" xmlns="http://www.w3.org/2000/svg" xmlns:xlink="http://www.w3.org/1999/xlink">
<g id="graph0" class="graph" transform="scale(1 1) rotate(0) translate(4 207)">
<title>dependencies</title>
<polygon fill="#ffffff" stroke="transparent" points="-4,4 -4,-207 825,-207 825,4 -4,4"/>
<text text-anchor="start" x="389.5091" y="-42.4" font-family="sans-serif" font-weight="bold" font-size="14.00" fill="#000000">Legend</text>
<polygon fill="#ffffb3" stroke="transparent" points="176.5,-10 176.5,-30 196.5,-30 196.5,-10 176.5,-10"/>
<text text-anchor="start" x="200.129" y="-15.4" font-family="sans-serif" font-size="14.00" fill="#000000"> &#160;Declarations</text>
<polygon fill="#8dd3c7" stroke="transparent" points="289.5,-10 289.5,-30 309.5,-30 309.5,-10 289.5,-10"/>
<text text-anchor="start" x="313.2251" y="-15.4" font-family="sans-serif" font-size="14.00" fill="#000000"> &#160;Module</text>
<polygon fill="#80b1d3" stroke="transparent" points="375.5,-10 375.5,-30 395.5,-30 395.5,-10 375.5,-10"/>
<text text-anchor="start" x="399.2812" y="-15.4" font-family="sans-serif" font-size="14.00" fill="#000000"> &#160;Bootstrap</text>
<polygon fill="#fdb462" stroke="transparent" points="472.5,-10 472.5,-30 492.5,-30 492.5,-10 472.5,-10"/>
<text text-anchor="start" x="496.1732" y="-15.4" font-family="sans-serif" font-size="14.00" fill="#000000"> &#160;Providers</text>
<polygon fill="#fb8072" stroke="transparent" points="568.5,-10 568.5,-30 588.5,-30 588.5,-10 568.5,-10"/>
<text text-anchor="start" x="592.2258" y="-15.4" font-family="sans-serif" font-size="14.00" fill="#000000"> &#160;Exports</text>
<g id="clust1" class="cluster">
<title>cluster_PrescricaoModule</title>
<polygon fill="none" stroke="#000000" stroke-dasharray="1,5" points="8,-70 8,-195 813,-195 813,-70 8,-70"/>
</g>
<g id="clust2" class="cluster">
<title>cluster_PrescricaoModule_declarations</title>
<polygon fill="none" stroke="#000000" points="649,-78 649,-130 805,-130 805,-78 649,-78"/>
</g>
<g id="clust4" class="cluster">
<title>cluster_PrescricaoModule_imports</title>
<polygon fill="none" stroke="#000000" points="16,-78 16,-130 641,-130 641,-78 16,-78"/>
</g>
<!-- PrescricaoComponent -->
<g id="node1" class="node">
<title>PrescricaoComponent</title>
<polygon fill="#ffffb3" stroke="#000000" points="796.6303,-122 657.3697,-122 657.3697,-86 796.6303,-86 796.6303,-122"/>
<text text-anchor="middle" x="727" y="-99.8" font-family="Times,serif" font-size="14.00" fill="#000000">PrescricaoComponent</text>
</g>
<!-- PrescricaoModule -->
<g id="node2" class="node">
<title>PrescricaoModule</title>
<polygon fill="#8dd3c7" stroke="#000000" points="498.8473,-187 495.8473,-191 474.8473,-191 471.8473,-187 381.1527,-187 381.1527,-151 498.8473,-151 498.8473,-187"/>
<text text-anchor="middle" x="440" y="-164.8" font-family="Times,serif" font-size="14.00" fill="#000000">PrescricaoModule</text>
</g>
<!-- PrescricaoComponent&#45;&gt;PrescricaoModule -->
<g id="edge1" class="edge">
<title>PrescricaoComponent&#45;&gt;PrescricaoModule</title>
<path fill="none" stroke="#000000" d="M727,-122.2843C727,-143.3211 727,-175 727,-175 727,-175 509.1186,-175 509.1186,-175"/>
<polygon fill="#000000" stroke="#000000" points="509.1186,-171.5001 499.1186,-175 509.1186,-178.5001 509.1186,-171.5001"/>
</g>
<!-- MaterialModule -->
<g id="node3" class="node">
<title>MaterialModule</title>
<polygon fill="#8dd3c7" stroke="#000000" points="633.4706,-122 630.4706,-126 609.4706,-126 606.4706,-122 526.5294,-122 526.5294,-86 633.4706,-86 633.4706,-122"/>
<text text-anchor="middle" x="580" y="-99.8" font-family="Times,serif" font-size="14.00" fill="#000000">MaterialModule</text>
</g>
<!-- MaterialModule&#45;&gt;PrescricaoModule -->
<g id="edge2" class="edge">
<title>MaterialModule&#45;&gt;PrescricaoModule</title>
<path fill="none" stroke="#000000" d="M580,-122.0225C580,-139.3734 580,-163 580,-163 580,-163 508.9668,-163 508.9668,-163"/>
<polygon fill="#000000" stroke="#000000" points="508.9669,-159.5001 498.9668,-163 508.9668,-166.5001 508.9669,-159.5001"/>
</g>
<!-- MedicamentoModule -->
<g id="node4" class="node">
<title>MedicamentoModule</title>
<polygon fill="#8dd3c7" stroke="#000000" points="508.0254,-122 505.0254,-126 484.0254,-126 481.0254,-122 371.9746,-122 371.9746,-86 508.0254,-86 508.0254,-122"/>
<text text-anchor="middle" x="440" y="-99.8" font-family="Times,serif" font-size="14.00" fill="#000000">MedicamentoModule</text>
</g>
<!-- MedicamentoModule&#45;&gt;PrescricaoModule -->
<g id="edge3" class="edge">
<title>MedicamentoModule&#45;&gt;PrescricaoModule</title>
<path fill="none" stroke="#000000" d="M440,-122.1061C440,-122.1061 440,-140.991 440,-140.991"/>
<polygon fill="#000000" stroke="#000000" points="436.5001,-140.9909 440,-150.991 443.5001,-140.991 436.5001,-140.9909"/>
</g>
<!-- PacienteMedicoModule -->
<g id="node5" class="node">
<title>PacienteMedicoModule</title>
<polygon fill="#8dd3c7" stroke="#000000" points="353.7366,-122 350.7366,-126 329.7366,-126 326.7366,-122 204.2634,-122 204.2634,-86 353.7366,-86 353.7366,-122"/>
<text text-anchor="middle" x="279" y="-99.8" font-family="Times,serif" font-size="14.00" fill="#000000">PacienteMedicoModule</text>
</g>
<!-- PacienteMedicoModule&#45;&gt;PrescricaoModule -->
<g id="edge4" class="edge">
<title>PacienteMedicoModule&#45;&gt;PrescricaoModule</title>
<path fill="none" stroke="#000000" d="M279,-122.0225C279,-139.3734 279,-163 279,-163 279,-163 370.9637,-163 370.9637,-163"/>
<polygon fill="#000000" stroke="#000000" points="370.9638,-166.5001 380.9637,-163 370.9637,-159.5001 370.9638,-166.5001"/>
</g>
<!-- PrescricaoRoutingModule -->
<g id="node6" class="node">
<title>PrescricaoRoutingModule</title>
<polygon fill="#8dd3c7" stroke="#000000" points="186.465,-122 183.465,-126 162.465,-126 159.465,-122 23.535,-122 23.535,-86 186.465,-86 186.465,-122"/>
<text text-anchor="middle" x="105" y="-99.8" font-family="Times,serif" font-size="14.00" fill="#000000">PrescricaoRoutingModule</text>
</g>
<!-- PrescricaoRoutingModule&#45;&gt;PrescricaoModule -->
<g id="edge5" class="edge">
<title>PrescricaoRoutingModule&#45;&gt;PrescricaoModule</title>
<path fill="none" stroke="#000000" d="M105,-122.2843C105,-143.3211 105,-175 105,-175 105,-175 370.8799,-175 370.8799,-175"/>
<polygon fill="#000000" stroke="#000000" points="370.8799,-178.5001 380.8799,-175 370.8798,-171.5001 370.8799,-178.5001"/>
</g>
</g>
</svg>
