<?xml version="1.0" encoding="UTF-8" standalone="no"?>
<!DOCTYPE svg PUBLIC "-//W3C//DTD SVG 1.1//EN"
 "http://www.w3.org/Graphics/SVG/1.1/DTD/svg11.dtd">
<!-- Generated by graphviz version 2.40.1 (20161225.0304)
 -->
<!-- Title: dependencies Pages: 1 -->
<svg width="596pt" height="284pt"
 viewBox="0.00 0.00 596.00 284.00" xmlns="http://www.w3.org/2000/svg" xmlns:xlink="http://www.w3.org/1999/xlink">
<g id="graph0" class="graph" transform="scale(1 1) rotate(0) translate(4 280)">
<title>dependencies</title>
<polygon fill="#ffffff" stroke="transparent" points="-4,4 -4,-280 592,-280 592,4 -4,4"/>
<text text-anchor="start" x="273.0091" y="-42.4" font-family="sans-serif" font-weight="bold" font-size="14.00" fill="#000000">Legend</text>
<polygon fill="#ffffb3" stroke="transparent" points="60,-10 60,-30 80,-30 80,-10 60,-10"/>
<text text-anchor="start" x="83.629" y="-15.4" font-family="sans-serif" font-size="14.00" fill="#000000"> &#160;Declarations</text>
<polygon fill="#8dd3c7" stroke="transparent" points="173,-10 173,-30 193,-30 193,-10 173,-10"/>
<text text-anchor="start" x="196.7251" y="-15.4" font-family="sans-serif" font-size="14.00" fill="#000000"> &#160;Module</text>
<polygon fill="#80b1d3" stroke="transparent" points="259,-10 259,-30 279,-30 279,-10 259,-10"/>
<text text-anchor="start" x="282.7812" y="-15.4" font-family="sans-serif" font-size="14.00" fill="#000000"> &#160;Bootstrap</text>
<polygon fill="#fdb462" stroke="transparent" points="356,-10 356,-30 376,-30 376,-10 356,-10"/>
<text text-anchor="start" x="379.6732" y="-15.4" font-family="sans-serif" font-size="14.00" fill="#000000"> &#160;Providers</text>
<polygon fill="#fb8072" stroke="transparent" points="452,-10 452,-30 472,-30 472,-10 452,-10"/>
<text text-anchor="start" x="475.7258" y="-15.4" font-family="sans-serif" font-size="14.00" fill="#000000"> &#160;Exports</text>
<g id="clust1" class="cluster">
<title>cluster_SheetModule</title>
<polygon fill="none" stroke="#000000" stroke-dasharray="1,5" points="8,-70 8,-268 580,-268 580,-70 8,-70"/>
</g>
<g id="clust2" class="cluster">
<title>cluster_SheetModule_declarations</title>
<polygon fill="none" stroke="#000000" points="292,-78 292,-130 572,-130 572,-78 292,-78"/>
</g>
<g id="clust5" class="cluster">
<title>cluster_SheetModule_imports</title>
<polygon fill="none" stroke="#000000" points="162,-78 162,-130 284,-130 284,-78 162,-78"/>
</g>
<g id="clust6" class="cluster">
<title>cluster_SheetModule_exports</title>
<polygon fill="none" stroke="#000000" points="149,-208 149,-260 435,-260 435,-208 149,-208"/>
</g>
<g id="clust8" class="cluster">
<title>cluster_SheetModule_providers</title>
<polygon fill="none" stroke="#000000" points="16,-78 16,-130 154,-130 154,-78 16,-78"/>
</g>
<!-- SWSheetComponent -->
<g id="node1" class="node">
<title>SWSheetComponent</title>
<polygon fill="#ffffb3" stroke="#000000" points="563.9327,-122 430.0673,-122 430.0673,-86 563.9327,-86 563.9327,-122"/>
<text text-anchor="middle" x="497" y="-99.8" font-family="Times,serif" font-size="14.00" fill="#000000">SWSheetComponent</text>
</g>
<!-- SheetModule -->
<g id="node3" class="node">
<title>SheetModule</title>
<polygon fill="#8dd3c7" stroke="#000000" points="332.1529,-187 329.1529,-191 308.1529,-191 305.1529,-187 241.8471,-187 241.8471,-151 332.1529,-151 332.1529,-187"/>
<text text-anchor="middle" x="287" y="-164.8" font-family="Times,serif" font-size="14.00" fill="#000000">SheetModule</text>
</g>
<!-- SWSheetComponent&#45;&gt;SheetModule -->
<g id="edge1" class="edge">
<title>SWSheetComponent&#45;&gt;SheetModule</title>
<path fill="none" stroke="#000000" d="M497,-122.1061C497,-141.3391 497,-169 497,-169 497,-169 342.3083,-169 342.3083,-169"/>
<polygon fill="#000000" stroke="#000000" points="342.3084,-165.5001 332.3083,-169 342.3083,-172.5001 342.3084,-165.5001"/>
</g>
<!-- SheetComponent -->
<g id="node2" class="node">
<title>SheetComponent</title>
<polygon fill="#ffffb3" stroke="#000000" points="412.4356,-122 299.5644,-122 299.5644,-86 412.4356,-86 412.4356,-122"/>
<text text-anchor="middle" x="356" y="-99.8" font-family="Times,serif" font-size="14.00" fill="#000000">SheetComponent</text>
</g>
<!-- SheetComponent&#45;&gt;SheetModule -->
<g id="edge2" class="edge">
<title>SheetComponent&#45;&gt;SheetModule</title>
<path fill="none" stroke="#000000" d="M316.0544,-122.1061C316.0544,-122.1061 316.0544,-140.991 316.0544,-140.991"/>
<polygon fill="#000000" stroke="#000000" points="312.5544,-140.9909 316.0544,-150.991 319.5544,-140.991 312.5544,-140.9909"/>
</g>
<!-- SWSheetComponent  -->
<g id="node5" class="node">
<title>SWSheetComponent </title>
<polygon fill="#fb8072" stroke="#000000" points="427.432,-252 290.568,-252 290.568,-216 427.432,-216 427.432,-252"/>
<text text-anchor="middle" x="359" y="-229.8" font-family="Times,serif" font-size="14.00" fill="#000000">SWSheetComponent </text>
</g>
<!-- SheetModule&#45;&gt;SWSheetComponent  -->
<g id="edge4" class="edge">
<title>SheetModule&#45;&gt;SWSheetComponent </title>
<path fill="none" stroke="#000000" stroke-dasharray="5,2" d="M311.4301,-187.1061C311.4301,-187.1061 311.4301,-205.991 311.4301,-205.991"/>
<polygon fill="#000000" stroke="#000000" points="307.9301,-205.9909 311.4301,-215.991 314.9301,-205.991 307.9301,-205.9909"/>
</g>
<!-- SheetComponent  -->
<g id="node6" class="node">
<title>SheetComponent </title>
<polygon fill="#fb8072" stroke="#000000" points="272.9348,-252 157.0652,-252 157.0652,-216 272.9348,-216 272.9348,-252"/>
<text text-anchor="middle" x="215" y="-229.8" font-family="Times,serif" font-size="14.00" fill="#000000">SheetComponent </text>
</g>
<!-- SheetModule&#45;&gt;SheetComponent  -->
<g id="edge5" class="edge">
<title>SheetModule&#45;&gt;SheetComponent </title>
<path fill="none" stroke="#000000" stroke-dasharray="5,2" d="M257.3207,-187.1061C257.3207,-187.1061 257.3207,-205.991 257.3207,-205.991"/>
<polygon fill="#000000" stroke="#000000" points="253.8207,-205.9909 257.3207,-215.991 260.8207,-205.991 253.8207,-205.9909"/>
</g>
<!-- MaterialModule -->
<g id="node4" class="node">
<title>MaterialModule</title>
<polygon fill="#8dd3c7" stroke="#000000" points="276.4706,-122 273.4706,-126 252.4706,-126 249.4706,-122 169.5294,-122 169.5294,-86 276.4706,-86 276.4706,-122"/>
<text text-anchor="middle" x="223" y="-99.8" font-family="Times,serif" font-size="14.00" fill="#000000">MaterialModule</text>
</g>
<!-- MaterialModule&#45;&gt;SheetModule -->
<g id="edge3" class="edge">
<title>MaterialModule&#45;&gt;SheetModule</title>
<path fill="none" stroke="#000000" d="M259.0796,-122.1061C259.0796,-122.1061 259.0796,-140.991 259.0796,-140.991"/>
<polygon fill="#000000" stroke="#000000" points="255.5797,-140.9909 259.0796,-150.991 262.5797,-140.991 255.5797,-140.9909"/>
</g>
<!-- SheetService -->
<g id="node7" class="node">
<title>SheetService</title>
<ellipse fill="#fdb462" stroke="#000000" cx="85" cy="-104" rx="61.3916" ry="18"/>
<text text-anchor="middle" x="85" y="-99.8" font-family="Times,serif" font-size="14.00" fill="#000000">SheetService</text>
</g>
<!-- SheetService&#45;&gt;SheetModule -->
<g id="edge6" class="edge">
<title>SheetService&#45;&gt;SheetModule</title>
<path fill="none" stroke="#000000" d="M85,-122.1061C85,-141.3391 85,-169 85,-169 85,-169 231.6673,-169 231.6673,-169"/>
<polygon fill="#000000" stroke="#000000" points="231.6673,-172.5001 241.6673,-169 231.6672,-165.5001 231.6673,-172.5001"/>
</g>
</g>
</svg>
