<?xml version="1.0" encoding="UTF-8" standalone="no"?>
<!DOCTYPE svg PUBLIC "-//W3C//DTD SVG 1.1//EN"
 "http://www.w3.org/Graphics/SVG/1.1/DTD/svg11.dtd">
<!-- Generated by graphviz version 2.40.1 (20161225.0304)
 -->
<!-- Title: dependencies Pages: 1 -->
<svg width="554pt" height="284pt"
 viewBox="0.00 0.00 554.00 284.00" xmlns="http://www.w3.org/2000/svg" xmlns:xlink="http://www.w3.org/1999/xlink">
<g id="graph0" class="graph" transform="scale(1 1) rotate(0) translate(4 280)">
<title>dependencies</title>
<polygon fill="#ffffff" stroke="transparent" points="-4,4 -4,-280 550,-280 550,4 -4,4"/>
<text text-anchor="start" x="252.0091" y="-42.4" font-family="sans-serif" font-weight="bold" font-size="14.00" fill="#000000">Legend</text>
<polygon fill="#ffffb3" stroke="transparent" points="39,-10 39,-30 59,-30 59,-10 39,-10"/>
<text text-anchor="start" x="62.629" y="-15.4" font-family="sans-serif" font-size="14.00" fill="#000000"> &#160;Declarations</text>
<polygon fill="#8dd3c7" stroke="transparent" points="152,-10 152,-30 172,-30 172,-10 152,-10"/>
<text text-anchor="start" x="175.7251" y="-15.4" font-family="sans-serif" font-size="14.00" fill="#000000"> &#160;Module</text>
<polygon fill="#80b1d3" stroke="transparent" points="238,-10 238,-30 258,-30 258,-10 238,-10"/>
<text text-anchor="start" x="261.7812" y="-15.4" font-family="sans-serif" font-size="14.00" fill="#000000"> &#160;Bootstrap</text>
<polygon fill="#fdb462" stroke="transparent" points="335,-10 335,-30 355,-30 355,-10 335,-10"/>
<text text-anchor="start" x="358.6732" y="-15.4" font-family="sans-serif" font-size="14.00" fill="#000000"> &#160;Providers</text>
<polygon fill="#fb8072" stroke="transparent" points="431,-10 431,-30 451,-30 451,-10 431,-10"/>
<text text-anchor="start" x="454.7258" y="-15.4" font-family="sans-serif" font-size="14.00" fill="#000000"> &#160;Exports</text>
<g id="clust1" class="cluster">
<title>cluster_MedicamentoModule</title>
<polygon fill="none" stroke="#000000" stroke-dasharray="1,5" points="8,-70 8,-268 538,-268 538,-70 8,-70"/>
</g>
<g id="clust2" class="cluster">
<title>cluster_MedicamentoModule_declarations</title>
<polygon fill="none" stroke="#000000" points="356,-78 356,-130 530,-130 530,-78 356,-78"/>
</g>
<g id="clust4" class="cluster">
<title>cluster_MedicamentoModule_imports</title>
<polygon fill="none" stroke="#000000" points="226,-78 226,-130 348,-130 348,-78 226,-78"/>
</g>
<g id="clust5" class="cluster">
<title>cluster_MedicamentoModule_exports</title>
<polygon fill="none" stroke="#000000" points="198,-208 198,-260 376,-260 376,-208 198,-208"/>
</g>
<g id="clust7" class="cluster">
<title>cluster_MedicamentoModule_providers</title>
<polygon fill="none" stroke="#000000" points="16,-78 16,-130 218,-130 218,-78 16,-78"/>
</g>
<!-- MedicamentoComponent -->
<g id="node1" class="node">
<title>MedicamentoComponent</title>
<polygon fill="#ffffb3" stroke="#000000" points="522.3075,-122 363.6925,-122 363.6925,-86 522.3075,-86 522.3075,-122"/>
<text text-anchor="middle" x="443" y="-99.8" font-family="Times,serif" font-size="14.00" fill="#000000">MedicamentoComponent</text>
</g>
<!-- MedicamentoModule -->
<g id="node2" class="node">
<title>MedicamentoModule</title>
<polygon fill="#8dd3c7" stroke="#000000" points="355.0254,-187 352.0254,-191 331.0254,-191 328.0254,-187 218.9746,-187 218.9746,-151 355.0254,-151 355.0254,-187"/>
<text text-anchor="middle" x="287" y="-164.8" font-family="Times,serif" font-size="14.00" fill="#000000">MedicamentoModule</text>
</g>
<!-- MedicamentoComponent&#45;&gt;MedicamentoModule -->
<g id="edge1" class="edge">
<title>MedicamentoComponent&#45;&gt;MedicamentoModule</title>
<path fill="none" stroke="#000000" d="M363.582,-104C354.1966,-104 347.8738,-104 347.8738,-104 347.8738,-104 347.8738,-140.8939 347.8738,-140.8939"/>
<polygon fill="#000000" stroke="#000000" points="344.3739,-140.8938 347.8738,-150.8939 351.3739,-140.8939 344.3739,-140.8938"/>
</g>
<!-- MedicamentoComponent  -->
<g id="node4" class="node">
<title>MedicamentoComponent </title>
<polygon fill="#fb8072" stroke="#000000" points="367.8073,-252 206.1927,-252 206.1927,-216 367.8073,-216 367.8073,-252"/>
<text text-anchor="middle" x="287" y="-229.8" font-family="Times,serif" font-size="14.00" fill="#000000">MedicamentoComponent </text>
</g>
<!-- MedicamentoModule&#45;&gt;MedicamentoComponent  -->
<g id="edge3" class="edge">
<title>MedicamentoModule&#45;&gt;MedicamentoComponent </title>
<path fill="none" stroke="#000000" stroke-dasharray="5,2" d="M287,-187.1061C287,-187.1061 287,-205.991 287,-205.991"/>
<polygon fill="#000000" stroke="#000000" points="283.5001,-205.9909 287,-215.991 290.5001,-205.991 283.5001,-205.9909"/>
</g>
<!-- MaterialModule -->
<g id="node3" class="node">
<title>MaterialModule</title>
<polygon fill="#8dd3c7" stroke="#000000" points="340.4706,-122 337.4706,-126 316.4706,-126 313.4706,-122 233.5294,-122 233.5294,-86 340.4706,-86 340.4706,-122"/>
<text text-anchor="middle" x="287" y="-99.8" font-family="Times,serif" font-size="14.00" fill="#000000">MaterialModule</text>
</g>
<!-- MaterialModule&#45;&gt;MedicamentoModule -->
<g id="edge2" class="edge">
<title>MaterialModule&#45;&gt;MedicamentoModule</title>
<path fill="none" stroke="#000000" d="M287,-122.1061C287,-122.1061 287,-140.991 287,-140.991"/>
<polygon fill="#000000" stroke="#000000" points="283.5001,-140.9909 287,-150.991 290.5001,-140.991 283.5001,-140.9909"/>
</g>
<!-- MedicamentoService -->
<g id="node5" class="node">
<title>MedicamentoService</title>
<ellipse fill="#fdb462" stroke="#000000" cx="117" cy="-104" rx="93.1755" ry="18"/>
<text text-anchor="middle" x="117" y="-99.8" font-family="Times,serif" font-size="14.00" fill="#000000">MedicamentoService</text>
</g>
<!-- MedicamentoService&#45;&gt;MedicamentoModule -->
<g id="edge4" class="edge">
<title>MedicamentoService&#45;&gt;MedicamentoModule</title>
<path fill="none" stroke="#000000" d="M210.4911,-104C219.9302,-104 226.1262,-104 226.1262,-104 226.1262,-104 226.1262,-140.8939 226.1262,-140.8939"/>
<polygon fill="#000000" stroke="#000000" points="222.6263,-140.8938 226.1262,-150.8939 229.6263,-140.8939 222.6263,-140.8938"/>
</g>
</g>
</svg>
