<?xml version="1.0" encoding="UTF-8" standalone="no"?>
<!DOCTYPE svg PUBLIC "-//W3C//DTD SVG 1.1//EN"
 "http://www.w3.org/Graphics/SVG/1.1/DTD/svg11.dtd">
<!-- Generated by graphviz version 2.40.1 (20161225.0304)
 -->
<!-- Title: dependencies Pages: 1 -->
<svg width="948pt" height="211pt"
 viewBox="0.00 0.00 948.00 211.00" xmlns="http://www.w3.org/2000/svg" xmlns:xlink="http://www.w3.org/1999/xlink">
<g id="graph0" class="graph" transform="scale(1 1) rotate(0) translate(4 207)">
<title>dependencies</title>
<polygon fill="#ffffff" stroke="transparent" points="-4,4 -4,-207 944,-207 944,4 -4,4"/>
<text text-anchor="start" x="449.0091" y="-42.4" font-family="sans-serif" font-weight="bold" font-size="14.00" fill="#000000">Legend</text>
<polygon fill="#ffffb3" stroke="transparent" points="236,-10 236,-30 256,-30 256,-10 236,-10"/>
<text text-anchor="start" x="259.629" y="-15.4" font-family="sans-serif" font-size="14.00" fill="#000000"> &#160;Declarations</text>
<polygon fill="#8dd3c7" stroke="transparent" points="349,-10 349,-30 369,-30 369,-10 349,-10"/>
<text text-anchor="start" x="372.7251" y="-15.4" font-family="sans-serif" font-size="14.00" fill="#000000"> &#160;Module</text>
<polygon fill="#80b1d3" stroke="transparent" points="435,-10 435,-30 455,-30 455,-10 435,-10"/>
<text text-anchor="start" x="458.7812" y="-15.4" font-family="sans-serif" font-size="14.00" fill="#000000"> &#160;Bootstrap</text>
<polygon fill="#fdb462" stroke="transparent" points="532,-10 532,-30 552,-30 552,-10 532,-10"/>
<text text-anchor="start" x="555.6732" y="-15.4" font-family="sans-serif" font-size="14.00" fill="#000000"> &#160;Providers</text>
<polygon fill="#fb8072" stroke="transparent" points="628,-10 628,-30 648,-30 648,-10 628,-10"/>
<text text-anchor="start" x="651.7258" y="-15.4" font-family="sans-serif" font-size="14.00" fill="#000000"> &#160;Exports</text>
<g id="clust1" class="cluster">
<title>cluster_NotificacaoModule</title>
<polygon fill="none" stroke="#000000" stroke-dasharray="1,5" points="8,-70 8,-195 932,-195 932,-70 8,-70"/>
</g>
<g id="clust2" class="cluster">
<title>cluster_NotificacaoModule_declarations</title>
<polygon fill="none" stroke="#000000" points="762,-78 762,-130 924,-130 924,-78 762,-78"/>
</g>
<g id="clust4" class="cluster">
<title>cluster_NotificacaoModule_imports</title>
<polygon fill="none" stroke="#000000" points="16,-78 16,-130 754,-130 754,-78 16,-78"/>
</g>
<!-- NotificacaoComponent -->
<g id="node1" class="node">
<title>NotificacaoComponent</title>
<polygon fill="#ffffb3" stroke="#000000" points="916.1303,-122 769.8697,-122 769.8697,-86 916.1303,-86 916.1303,-122"/>
<text text-anchor="middle" x="843" y="-99.8" font-family="Times,serif" font-size="14.00" fill="#000000">NotificacaoComponent</text>
</g>
<!-- NotificacaoModule -->
<g id="node2" class="node">
<title>NotificacaoModule</title>
<polygon fill="#8dd3c7" stroke="#000000" points="534.3473,-187 531.3473,-191 510.3473,-191 507.3473,-187 409.6527,-187 409.6527,-151 534.3473,-151 534.3473,-187"/>
<text text-anchor="middle" x="472" y="-164.8" font-family="Times,serif" font-size="14.00" fill="#000000">NotificacaoModule</text>
</g>
<!-- NotificacaoComponent&#45;&gt;NotificacaoModule -->
<g id="edge1" class="edge">
<title>NotificacaoComponent&#45;&gt;NotificacaoModule</title>
<path fill="none" stroke="#000000" d="M843,-122.2843C843,-143.3211 843,-175 843,-175 843,-175 544.5156,-175 544.5156,-175"/>
<polygon fill="#000000" stroke="#000000" points="544.5156,-171.5001 534.5156,-175 544.5155,-178.5001 544.5156,-171.5001"/>
</g>
<!-- ElementListModule -->
<g id="node3" class="node">
<title>ElementListModule</title>
<polygon fill="#8dd3c7" stroke="#000000" points="745.9818,-122 742.9818,-126 721.9818,-126 718.9818,-122 618.0182,-122 618.0182,-86 745.9818,-86 745.9818,-122"/>
<text text-anchor="middle" x="682" y="-99.8" font-family="Times,serif" font-size="14.00" fill="#000000">ElementListModule</text>
</g>
<!-- ElementListModule&#45;&gt;NotificacaoModule -->
<g id="edge2" class="edge">
<title>ElementListModule&#45;&gt;NotificacaoModule</title>
<path fill="none" stroke="#000000" d="M682,-122.0225C682,-139.3734 682,-163 682,-163 682,-163 544.4384,-163 544.4384,-163"/>
<polygon fill="#000000" stroke="#000000" points="544.4384,-159.5001 534.4384,-163 544.4383,-166.5001 544.4384,-159.5001"/>
</g>
<!-- MaterialModule -->
<g id="node4" class="node">
<title>MaterialModule</title>
<polygon fill="#8dd3c7" stroke="#000000" points="600.4706,-122 597.4706,-126 576.4706,-126 573.4706,-122 493.5294,-122 493.5294,-86 600.4706,-86 600.4706,-122"/>
<text text-anchor="middle" x="547" y="-99.8" font-family="Times,serif" font-size="14.00" fill="#000000">MaterialModule</text>
</g>
<!-- MaterialModule&#45;&gt;NotificacaoModule -->
<g id="edge3" class="edge">
<title>MaterialModule&#45;&gt;NotificacaoModule</title>
<path fill="none" stroke="#000000" d="M513.9692,-122.1061C513.9692,-122.1061 513.9692,-140.991 513.9692,-140.991"/>
<polygon fill="#000000" stroke="#000000" points="510.4692,-140.9909 513.9692,-150.991 517.4692,-140.991 510.4692,-140.9909"/>
</g>
<!-- NotificacaoFormModule -->
<g id="node5" class="node">
<title>NotificacaoFormModule</title>
<polygon fill="#8dd3c7" stroke="#000000" points="475.6811,-122 472.6811,-126 451.6811,-126 448.6811,-122 320.3189,-122 320.3189,-86 475.6811,-86 475.6811,-122"/>
<text text-anchor="middle" x="398" y="-99.8" font-family="Times,serif" font-size="14.00" fill="#000000">NotificacaoFormModule</text>
</g>
<!-- NotificacaoFormModule&#45;&gt;NotificacaoModule -->
<g id="edge4" class="edge">
<title>NotificacaoFormModule&#45;&gt;NotificacaoModule</title>
<path fill="none" stroke="#000000" d="M442.5835,-122.1061C442.5835,-122.1061 442.5835,-140.991 442.5835,-140.991"/>
<polygon fill="#000000" stroke="#000000" points="439.0835,-140.9909 442.5835,-150.991 446.0835,-140.991 439.0835,-140.9909"/>
</g>
<!-- NotificacaoRoutingModule -->
<g id="node6" class="node">
<title>NotificacaoRoutingModule</title>
<polygon fill="#8dd3c7" stroke="#000000" points="301.965,-122 298.965,-126 277.965,-126 274.965,-122 132.035,-122 132.035,-86 301.965,-86 301.965,-122"/>
<text text-anchor="middle" x="217" y="-99.8" font-family="Times,serif" font-size="14.00" fill="#000000">NotificacaoRoutingModule</text>
</g>
<!-- NotificacaoRoutingModule&#45;&gt;NotificacaoModule -->
<g id="edge5" class="edge">
<title>NotificacaoRoutingModule&#45;&gt;NotificacaoModule</title>
<path fill="none" stroke="#000000" d="M217,-122.0225C217,-139.3734 217,-163 217,-163 217,-163 399.62,-163 399.62,-163"/>
<polygon fill="#000000" stroke="#000000" points="399.62,-166.5001 409.62,-163 399.6199,-159.5001 399.62,-166.5001"/>
</g>
<!-- SheetModule -->
<g id="node7" class="node">
<title>SheetModule</title>
<polygon fill="#8dd3c7" stroke="#000000" points="114.1529,-122 111.1529,-126 90.1529,-126 87.1529,-122 23.8471,-122 23.8471,-86 114.1529,-86 114.1529,-122"/>
<text text-anchor="middle" x="69" y="-99.8" font-family="Times,serif" font-size="14.00" fill="#000000">SheetModule</text>
</g>
<!-- SheetModule&#45;&gt;NotificacaoModule -->
<g id="edge6" class="edge">
<title>SheetModule&#45;&gt;NotificacaoModule</title>
<path fill="none" stroke="#000000" d="M69,-122.2843C69,-143.3211 69,-175 69,-175 69,-175 399.4734,-175 399.4734,-175"/>
<polygon fill="#000000" stroke="#000000" points="399.4735,-178.5001 409.4734,-175 399.4734,-171.5001 399.4735,-178.5001"/>
</g>
</g>
</svg>
