<?xml version="1.0" encoding="UTF-8" standalone="no"?>
<!DOCTYPE svg PUBLIC "-//W3C//DTD SVG 1.1//EN"
 "http://www.w3.org/Graphics/SVG/1.1/DTD/svg11.dtd">
<!-- Generated by graphviz version 2.40.1 (20161225.0304)
 -->
<!-- Title: dependencies Pages: 1 -->
<svg width="1267pt" height="211pt"
 viewBox="0.00 0.00 1267.00 211.00" xmlns="http://www.w3.org/2000/svg" xmlns:xlink="http://www.w3.org/1999/xlink">
<g id="graph0" class="graph" transform="scale(1 1) rotate(0) translate(4 207)">
<title>dependencies</title>
<polygon fill="#ffffff" stroke="transparent" points="-4,4 -4,-207 1263,-207 1263,4 -4,4"/>
<text text-anchor="start" x="608.5091" y="-42.4" font-family="sans-serif" font-weight="bold" font-size="14.00" fill="#000000">Legend</text>
<polygon fill="#ffffb3" stroke="transparent" points="395.5,-10 395.5,-30 415.5,-30 415.5,-10 395.5,-10"/>
<text text-anchor="start" x="419.129" y="-15.4" font-family="sans-serif" font-size="14.00" fill="#000000"> &#160;Declarations</text>
<polygon fill="#8dd3c7" stroke="transparent" points="508.5,-10 508.5,-30 528.5,-30 528.5,-10 508.5,-10"/>
<text text-anchor="start" x="532.2251" y="-15.4" font-family="sans-serif" font-size="14.00" fill="#000000"> &#160;Module</text>
<polygon fill="#80b1d3" stroke="transparent" points="594.5,-10 594.5,-30 614.5,-30 614.5,-10 594.5,-10"/>
<text text-anchor="start" x="618.2812" y="-15.4" font-family="sans-serif" font-size="14.00" fill="#000000"> &#160;Bootstrap</text>
<polygon fill="#fdb462" stroke="transparent" points="691.5,-10 691.5,-30 711.5,-30 711.5,-10 691.5,-10"/>
<text text-anchor="start" x="715.1732" y="-15.4" font-family="sans-serif" font-size="14.00" fill="#000000"> &#160;Providers</text>
<polygon fill="#fb8072" stroke="transparent" points="787.5,-10 787.5,-30 807.5,-30 807.5,-10 787.5,-10"/>
<text text-anchor="start" x="811.2258" y="-15.4" font-family="sans-serif" font-size="14.00" fill="#000000"> &#160;Exports</text>
<g id="clust1" class="cluster">
<title>cluster_DispensacaoModule</title>
<polygon fill="none" stroke="#000000" stroke-dasharray="1,5" points="8,-70 8,-195 1251,-195 1251,-70 8,-70"/>
</g>
<g id="clust2" class="cluster">
<title>cluster_DispensacaoModule_declarations</title>
<polygon fill="none" stroke="#000000" points="1075,-78 1075,-130 1243,-130 1243,-78 1075,-78"/>
</g>
<g id="clust4" class="cluster">
<title>cluster_DispensacaoModule_imports</title>
<polygon fill="none" stroke="#000000" points="200,-78 200,-130 1067,-130 1067,-78 200,-78"/>
</g>
<g id="clust7" class="cluster">
<title>cluster_DispensacaoModule_providers</title>
<polygon fill="none" stroke="#000000" points="16,-78 16,-130 192,-130 192,-78 16,-78"/>
</g>
<!-- DispensacaoComponent -->
<g id="node1" class="node">
<title>DispensacaoComponent</title>
<polygon fill="#ffffb3" stroke="#000000" points="1235.0772,-122 1082.9228,-122 1082.9228,-86 1235.0772,-86 1235.0772,-122"/>
<text text-anchor="middle" x="1159" y="-99.8" font-family="Times,serif" font-size="14.00" fill="#000000">DispensacaoComponent</text>
</g>
<!-- DispensacaoModule -->
<g id="node2" class="node">
<title>DispensacaoModule</title>
<polygon fill="#8dd3c7" stroke="#000000" points="622.2949,-187 619.2949,-191 598.2949,-191 595.2949,-187 491.7051,-187 491.7051,-151 622.2949,-151 622.2949,-187"/>
<text text-anchor="middle" x="557" y="-164.8" font-family="Times,serif" font-size="14.00" fill="#000000">DispensacaoModule</text>
</g>
<!-- DispensacaoComponent&#45;&gt;DispensacaoModule -->
<g id="edge1" class="edge">
<title>DispensacaoComponent&#45;&gt;DispensacaoModule</title>
<path fill="none" stroke="#000000" d="M1159,-122.2921C1159,-144.2057 1159,-178 1159,-178 1159,-178 632.2833,-178 632.2833,-178"/>
<polygon fill="#000000" stroke="#000000" points="632.2833,-174.5001 622.2833,-178 632.2832,-181.5001 632.2833,-174.5001"/>
</g>
<!-- DispensacaoFormModule -->
<g id="node3" class="node">
<title>DispensacaoFormModule</title>
<polygon fill="#8dd3c7" stroke="#000000" points="1059.1288,-122 1056.1288,-126 1035.1288,-126 1032.1288,-122 898.8712,-122 898.8712,-86 1059.1288,-86 1059.1288,-122"/>
<text text-anchor="middle" x="979" y="-99.8" font-family="Times,serif" font-size="14.00" fill="#000000">DispensacaoFormModule</text>
</g>
<!-- DispensacaoFormModule&#45;&gt;DispensacaoModule -->
<g id="edge2" class="edge">
<title>DispensacaoFormModule&#45;&gt;DispensacaoModule</title>
<path fill="none" stroke="#000000" d="M979,-122.1061C979,-141.3391 979,-169 979,-169 979,-169 632.4745,-169 632.4745,-169"/>
<polygon fill="#000000" stroke="#000000" points="632.4745,-165.5001 622.4745,-169 632.4744,-172.5001 632.4745,-165.5001"/>
</g>
<!-- DispensacaoRoutingModule -->
<g id="node4" class="node">
<title>DispensacaoRoutingModule</title>
<polygon fill="#8dd3c7" stroke="#000000" points="880.9129,-122 877.9129,-126 856.9129,-126 853.9129,-122 705.0871,-122 705.0871,-86 880.9129,-86 880.9129,-122"/>
<text text-anchor="middle" x="793" y="-99.8" font-family="Times,serif" font-size="14.00" fill="#000000">DispensacaoRoutingModule</text>
</g>
<!-- DispensacaoRoutingModule&#45;&gt;DispensacaoModule -->
<g id="edge3" class="edge">
<title>DispensacaoRoutingModule&#45;&gt;DispensacaoModule</title>
<path fill="none" stroke="#000000" d="M793,-122.027C793,-138.3976 793,-160 793,-160 793,-160 632.4258,-160 632.4258,-160"/>
<polygon fill="#000000" stroke="#000000" points="632.4258,-156.5001 622.4258,-160 632.4257,-163.5001 632.4258,-156.5001"/>
</g>
<!-- ElementListModule -->
<g id="node5" class="node">
<title>ElementListModule</title>
<polygon fill="#8dd3c7" stroke="#000000" points="686.9818,-122 683.9818,-126 662.9818,-126 659.9818,-122 559.0182,-122 559.0182,-86 686.9818,-86 686.9818,-122"/>
<text text-anchor="middle" x="623" y="-99.8" font-family="Times,serif" font-size="14.00" fill="#000000">ElementListModule</text>
</g>
<!-- ElementListModule&#45;&gt;DispensacaoModule -->
<g id="edge4" class="edge">
<title>ElementListModule&#45;&gt;DispensacaoModule</title>
<path fill="none" stroke="#000000" d="M590.5782,-122.1061C590.5782,-122.1061 590.5782,-140.991 590.5782,-140.991"/>
<polygon fill="#000000" stroke="#000000" points="587.0783,-140.9909 590.5782,-150.991 594.0783,-140.991 587.0783,-140.9909"/>
</g>
<!-- LayoutModule -->
<g id="node6" class="node">
<title>LayoutModule</title>
<polygon fill="#8dd3c7" stroke="#000000" points="540.7078,-122 537.7078,-126 516.7078,-126 513.7078,-122 441.2922,-122 441.2922,-86 540.7078,-86 540.7078,-122"/>
<text text-anchor="middle" x="491" y="-99.8" font-family="Times,serif" font-size="14.00" fill="#000000">LayoutModule</text>
</g>
<!-- LayoutModule&#45;&gt;DispensacaoModule -->
<g id="edge5" class="edge">
<title>LayoutModule&#45;&gt;DispensacaoModule</title>
<path fill="none" stroke="#000000" d="M516.2283,-122.1061C516.2283,-122.1061 516.2283,-140.991 516.2283,-140.991"/>
<polygon fill="#000000" stroke="#000000" points="512.7283,-140.9909 516.2283,-150.991 519.7283,-140.991 512.7283,-140.9909"/>
</g>
<!-- MaterialModule -->
<g id="node7" class="node">
<title>MaterialModule</title>
<polygon fill="#8dd3c7" stroke="#000000" points="423.4706,-122 420.4706,-126 399.4706,-126 396.4706,-122 316.5294,-122 316.5294,-86 423.4706,-86 423.4706,-122"/>
<text text-anchor="middle" x="370" y="-99.8" font-family="Times,serif" font-size="14.00" fill="#000000">MaterialModule</text>
</g>
<!-- MaterialModule&#45;&gt;DispensacaoModule -->
<g id="edge6" class="edge">
<title>MaterialModule&#45;&gt;DispensacaoModule</title>
<path fill="none" stroke="#000000" d="M370,-122.027C370,-138.3976 370,-160 370,-160 370,-160 481.5965,-160 481.5965,-160"/>
<polygon fill="#000000" stroke="#000000" points="481.5965,-163.5001 491.5965,-160 481.5964,-156.5001 481.5965,-163.5001"/>
</g>
<!-- SheetModule -->
<g id="node8" class="node">
<title>SheetModule</title>
<polygon fill="#8dd3c7" stroke="#000000" points="298.1529,-122 295.1529,-126 274.1529,-126 271.1529,-122 207.8471,-122 207.8471,-86 298.1529,-86 298.1529,-122"/>
<text text-anchor="middle" x="253" y="-99.8" font-family="Times,serif" font-size="14.00" fill="#000000">SheetModule</text>
</g>
<!-- SheetModule&#45;&gt;DispensacaoModule -->
<g id="edge7" class="edge">
<title>SheetModule&#45;&gt;DispensacaoModule</title>
<path fill="none" stroke="#000000" d="M253,-122.1061C253,-141.3391 253,-169 253,-169 253,-169 481.7844,-169 481.7844,-169"/>
<polygon fill="#000000" stroke="#000000" points="481.7844,-172.5001 491.7844,-169 481.7843,-165.5001 481.7844,-172.5001"/>
</g>
<!-- PrescricaoService -->
<g id="node9" class="node">
<title>PrescricaoService</title>
<ellipse fill="#fdb462" stroke="#000000" cx="104" cy="-104" rx="80.4093" ry="18"/>
<text text-anchor="middle" x="104" y="-99.8" font-family="Times,serif" font-size="14.00" fill="#000000">PrescricaoService</text>
</g>
<!-- PrescricaoService&#45;&gt;DispensacaoModule -->
<g id="edge8" class="edge">
<title>PrescricaoService&#45;&gt;DispensacaoModule</title>
<path fill="none" stroke="#000000" d="M104,-122.2921C104,-144.2057 104,-178 104,-178 104,-178 481.6137,-178 481.6137,-178"/>
<polygon fill="#000000" stroke="#000000" points="481.6137,-181.5001 491.6137,-178 481.6137,-174.5001 481.6137,-181.5001"/>
</g>
</g>
</svg>
