<?xml version="1.0" encoding="UTF-8" standalone="no"?>
<!DOCTYPE svg PUBLIC "-//W3C//DTD SVG 1.1//EN"
 "http://www.w3.org/Graphics/SVG/1.1/DTD/svg11.dtd">
<!-- Generated by graphviz version 2.40.1 (20161225.0304)
 -->
<!-- Title: dependencies Pages: 1 -->
<svg width="1017pt" height="284pt"
 viewBox="0.00 0.00 1017.00 284.00" xmlns="http://www.w3.org/2000/svg" xmlns:xlink="http://www.w3.org/1999/xlink">
<g id="graph0" class="graph" transform="scale(1 1) rotate(0) translate(4 280)">
<title>dependencies</title>
<polygon fill="#ffffff" stroke="transparent" points="-4,4 -4,-280 1013,-280 1013,4 -4,4"/>
<text text-anchor="start" x="483.5091" y="-42.4" font-family="sans-serif" font-weight="bold" font-size="14.00" fill="#000000">Legend</text>
<polygon fill="#ffffb3" stroke="transparent" points="270.5,-10 270.5,-30 290.5,-30 290.5,-10 270.5,-10"/>
<text text-anchor="start" x="294.129" y="-15.4" font-family="sans-serif" font-size="14.00" fill="#000000"> &#160;Declarations</text>
<polygon fill="#8dd3c7" stroke="transparent" points="383.5,-10 383.5,-30 403.5,-30 403.5,-10 383.5,-10"/>
<text text-anchor="start" x="407.2251" y="-15.4" font-family="sans-serif" font-size="14.00" fill="#000000"> &#160;Module</text>
<polygon fill="#80b1d3" stroke="transparent" points="469.5,-10 469.5,-30 489.5,-30 489.5,-10 469.5,-10"/>
<text text-anchor="start" x="493.2812" y="-15.4" font-family="sans-serif" font-size="14.00" fill="#000000"> &#160;Bootstrap</text>
<polygon fill="#fdb462" stroke="transparent" points="566.5,-10 566.5,-30 586.5,-30 586.5,-10 566.5,-10"/>
<text text-anchor="start" x="590.1732" y="-15.4" font-family="sans-serif" font-size="14.00" fill="#000000"> &#160;Providers</text>
<polygon fill="#fb8072" stroke="transparent" points="662.5,-10 662.5,-30 682.5,-30 682.5,-10 662.5,-10"/>
<text text-anchor="start" x="686.2258" y="-15.4" font-family="sans-serif" font-size="14.00" fill="#000000"> &#160;Exports</text>
<g id="clust1" class="cluster">
<title>cluster_NotificacaoFormModule</title>
<polygon fill="none" stroke="#000000" stroke-dasharray="1,5" points="8,-70 8,-268 1001,-268 1001,-70 8,-70"/>
</g>
<g id="clust2" class="cluster">
<title>cluster_NotificacaoFormModule_declarations</title>
<polygon fill="none" stroke="#000000" points="801,-78 801,-130 993,-130 993,-78 801,-78"/>
</g>
<g id="clust4" class="cluster">
<title>cluster_NotificacaoFormModule_imports</title>
<polygon fill="none" stroke="#000000" points="16,-78 16,-130 793,-130 793,-78 16,-78"/>
</g>
<g id="clust5" class="cluster">
<title>cluster_NotificacaoFormModule_exports</title>
<polygon fill="none" stroke="#000000" points="380,-208 380,-260 576,-260 576,-208 380,-208"/>
</g>
<!-- NotificacaoFormComponent -->
<g id="node1" class="node">
<title>NotificacaoFormComponent</title>
<polygon fill="#ffffb3" stroke="#000000" points="985.4636,-122 808.5364,-122 808.5364,-86 985.4636,-86 985.4636,-122"/>
<text text-anchor="middle" x="897" y="-99.8" font-family="Times,serif" font-size="14.00" fill="#000000">NotificacaoFormComponent</text>
</g>
<!-- NotificacaoFormModule -->
<g id="node2" class="node">
<title>NotificacaoFormModule</title>
<polygon fill="#8dd3c7" stroke="#000000" points="555.6811,-187 552.6811,-191 531.6811,-191 528.6811,-187 400.3189,-187 400.3189,-151 555.6811,-151 555.6811,-187"/>
<text text-anchor="middle" x="478" y="-164.8" font-family="Times,serif" font-size="14.00" fill="#000000">NotificacaoFormModule</text>
</g>
<!-- NotificacaoFormComponent&#45;&gt;NotificacaoFormModule -->
<g id="edge1" class="edge">
<title>NotificacaoFormComponent&#45;&gt;NotificacaoFormModule</title>
<path fill="none" stroke="#000000" d="M897,-122.2843C897,-143.3211 897,-175 897,-175 897,-175 565.8287,-175 565.8287,-175"/>
<polygon fill="#000000" stroke="#000000" points="565.8288,-171.5001 555.8287,-175 565.8287,-178.5001 565.8288,-171.5001"/>
</g>
<!-- NotificacaoFormComponent  -->
<g id="node8" class="node">
<title>NotificacaoFormComponent </title>
<polygon fill="#fb8072" stroke="#000000" points="568.4642,-252 387.5358,-252 387.5358,-216 568.4642,-216 568.4642,-252"/>
<text text-anchor="middle" x="478" y="-229.8" font-family="Times,serif" font-size="14.00" fill="#000000">NotificacaoFormComponent </text>
</g>
<!-- NotificacaoFormModule&#45;&gt;NotificacaoFormComponent  -->
<g id="edge7" class="edge">
<title>NotificacaoFormModule&#45;&gt;NotificacaoFormComponent </title>
<path fill="none" stroke="#000000" stroke-dasharray="5,2" d="M478,-187.1061C478,-187.1061 478,-205.991 478,-205.991"/>
<polygon fill="#000000" stroke="#000000" points="474.5001,-205.9909 478,-215.991 481.5001,-205.991 474.5001,-205.9909"/>
</g>
<!-- AdministracaoInfoModule -->
<g id="node3" class="node">
<title>AdministracaoInfoModule</title>
<polygon fill="#8dd3c7" stroke="#000000" points="784.7893,-122 781.7893,-126 760.7893,-126 757.7893,-122 619.2107,-122 619.2107,-86 784.7893,-86 784.7893,-122"/>
<text text-anchor="middle" x="702" y="-99.8" font-family="Times,serif" font-size="14.00" fill="#000000">AdministracaoInfoModule</text>
</g>
<!-- AdministracaoInfoModule&#45;&gt;NotificacaoFormModule -->
<g id="edge2" class="edge">
<title>AdministracaoInfoModule&#45;&gt;NotificacaoFormModule</title>
<path fill="none" stroke="#000000" d="M702,-122.0225C702,-139.3734 702,-163 702,-163 702,-163 565.7157,-163 565.7157,-163"/>
<polygon fill="#000000" stroke="#000000" points="565.7157,-159.5001 555.7157,-163 565.7156,-166.5001 565.7157,-159.5001"/>
</g>
<!-- MaterialModule -->
<g id="node4" class="node">
<title>MaterialModule</title>
<polygon fill="#8dd3c7" stroke="#000000" points="601.4706,-122 598.4706,-126 577.4706,-126 574.4706,-122 494.5294,-122 494.5294,-86 601.4706,-86 601.4706,-122"/>
<text text-anchor="middle" x="548" y="-99.8" font-family="Times,serif" font-size="14.00" fill="#000000">MaterialModule</text>
</g>
<!-- MaterialModule&#45;&gt;NotificacaoFormModule -->
<g id="edge3" class="edge">
<title>MaterialModule&#45;&gt;NotificacaoFormModule</title>
<path fill="none" stroke="#000000" d="M525.0526,-122.1061C525.0526,-122.1061 525.0526,-140.991 525.0526,-140.991"/>
<polygon fill="#000000" stroke="#000000" points="521.5527,-140.9909 525.0526,-150.991 528.5527,-140.991 521.5527,-140.9909"/>
</g>
<!-- MedicamentoModule -->
<g id="node5" class="node">
<title>MedicamentoModule</title>
<polygon fill="#8dd3c7" stroke="#000000" points="476.0254,-122 473.0254,-126 452.0254,-126 449.0254,-122 339.9746,-122 339.9746,-86 476.0254,-86 476.0254,-122"/>
<text text-anchor="middle" x="408" y="-99.8" font-family="Times,serif" font-size="14.00" fill="#000000">MedicamentoModule</text>
</g>
<!-- MedicamentoModule&#45;&gt;NotificacaoFormModule -->
<g id="edge4" class="edge">
<title>MedicamentoModule&#45;&gt;NotificacaoFormModule</title>
<path fill="none" stroke="#000000" d="M438.3359,-122.1061C438.3359,-122.1061 438.3359,-140.991 438.3359,-140.991"/>
<polygon fill="#000000" stroke="#000000" points="434.836,-140.9909 438.3359,-150.991 441.836,-140.991 434.836,-140.9909"/>
</g>
<!-- PacienteMedicoModule -->
<g id="node6" class="node">
<title>PacienteMedicoModule</title>
<polygon fill="#8dd3c7" stroke="#000000" points="321.7366,-122 318.7366,-126 297.7366,-126 294.7366,-122 172.2634,-122 172.2634,-86 321.7366,-86 321.7366,-122"/>
<text text-anchor="middle" x="247" y="-99.8" font-family="Times,serif" font-size="14.00" fill="#000000">PacienteMedicoModule</text>
</g>
<!-- PacienteMedicoModule&#45;&gt;NotificacaoFormModule -->
<g id="edge5" class="edge">
<title>PacienteMedicoModule&#45;&gt;NotificacaoFormModule</title>
<path fill="none" stroke="#000000" d="M247,-122.0225C247,-139.3734 247,-163 247,-163 247,-163 390.116,-163 390.116,-163"/>
<polygon fill="#000000" stroke="#000000" points="390.116,-166.5001 400.116,-163 390.1159,-159.5001 390.116,-166.5001"/>
</g>
<!-- ResponsavelModule -->
<g id="node7" class="node">
<title>ResponsavelModule</title>
<polygon fill="#8dd3c7" stroke="#000000" points="154.3104,-122 151.3104,-126 130.3104,-126 127.3104,-122 23.6896,-122 23.6896,-86 154.3104,-86 154.3104,-122"/>
<text text-anchor="middle" x="89" y="-99.8" font-family="Times,serif" font-size="14.00" fill="#000000">ResponsavelModule</text>
</g>
<!-- ResponsavelModule&#45;&gt;NotificacaoFormModule -->
<g id="edge6" class="edge">
<title>ResponsavelModule&#45;&gt;NotificacaoFormModule</title>
<path fill="none" stroke="#000000" d="M89,-122.2843C89,-143.3211 89,-175 89,-175 89,-175 390.215,-175 390.215,-175"/>
<polygon fill="#000000" stroke="#000000" points="390.215,-178.5001 400.215,-175 390.2149,-171.5001 390.215,-178.5001"/>
</g>
</g>
</svg>
