<?xml version="1.0" encoding="UTF-8" standalone="no"?>
<!DOCTYPE svg PUBLIC "-//W3C//DTD SVG 1.1//EN"
 "http://www.w3.org/Graphics/SVG/1.1/DTD/svg11.dtd">
<!-- Generated by graphviz version 2.40.1 (20161225.0304)
 -->
<!-- Title: dependencies Pages: 1 -->
<svg width="1101pt" height="284pt"
 viewBox="0.00 0.00 1101.00 284.00" xmlns="http://www.w3.org/2000/svg" xmlns:xlink="http://www.w3.org/1999/xlink">
<g id="graph0" class="graph" transform="scale(1 1) rotate(0) translate(4 280)">
<title>dependencies</title>
<polygon fill="#ffffff" stroke="transparent" points="-4,4 -4,-280 1097,-280 1097,4 -4,4"/>
<text text-anchor="start" x="525.5091" y="-42.4" font-family="sans-serif" font-weight="bold" font-size="14.00" fill="#000000">Legend</text>
<polygon fill="#ffffb3" stroke="transparent" points="312.5,-10 312.5,-30 332.5,-30 332.5,-10 312.5,-10"/>
<text text-anchor="start" x="336.129" y="-15.4" font-family="sans-serif" font-size="14.00" fill="#000000"> &#160;Declarations</text>
<polygon fill="#8dd3c7" stroke="transparent" points="425.5,-10 425.5,-30 445.5,-30 445.5,-10 425.5,-10"/>
<text text-anchor="start" x="449.2251" y="-15.4" font-family="sans-serif" font-size="14.00" fill="#000000"> &#160;Module</text>
<polygon fill="#80b1d3" stroke="transparent" points="511.5,-10 511.5,-30 531.5,-30 531.5,-10 511.5,-10"/>
<text text-anchor="start" x="535.2812" y="-15.4" font-family="sans-serif" font-size="14.00" fill="#000000"> &#160;Bootstrap</text>
<polygon fill="#fdb462" stroke="transparent" points="608.5,-10 608.5,-30 628.5,-30 628.5,-10 608.5,-10"/>
<text text-anchor="start" x="632.1732" y="-15.4" font-family="sans-serif" font-size="14.00" fill="#000000"> &#160;Providers</text>
<polygon fill="#fb8072" stroke="transparent" points="704.5,-10 704.5,-30 724.5,-30 724.5,-10 704.5,-10"/>
<text text-anchor="start" x="728.2258" y="-15.4" font-family="sans-serif" font-size="14.00" fill="#000000"> &#160;Exports</text>
<g id="clust1" class="cluster">
<title>cluster_AppModule</title>
<polygon fill="none" stroke="#000000" stroke-dasharray="1,5" points="8,-70 8,-268 1085,-268 1085,-70 8,-70"/>
</g>
<g id="clust2" class="cluster">
<title>cluster_AppModule_declarations</title>
<polygon fill="none" stroke="#000000" points="955,-78 955,-130 1077,-130 1077,-78 955,-78"/>
</g>
<g id="clust4" class="cluster">
<title>cluster_AppModule_imports</title>
<polygon fill="none" stroke="#000000" points="16,-78 16,-130 947,-130 947,-78 16,-78"/>
</g>
<g id="clust6" class="cluster">
<title>cluster_AppModule_bootstrap</title>
<polygon fill="none" stroke="#000000" points="502,-208 502,-260 626,-260 626,-208 502,-208"/>
</g>
<!-- AppComponent -->
<g id="node1" class="node">
<title>AppComponent</title>
<polygon fill="#ffffb3" stroke="#000000" points="1068.9399,-122 963.0601,-122 963.0601,-86 1068.9399,-86 1068.9399,-122"/>
<text text-anchor="middle" x="1016" y="-99.8" font-family="Times,serif" font-size="14.00" fill="#000000">AppComponent</text>
</g>
<!-- AppModule -->
<g id="node2" class="node">
<title>AppModule</title>
<polygon fill="#8dd3c7" stroke="#000000" points="605.6571,-187 602.6571,-191 581.6571,-191 578.6571,-187 522.3429,-187 522.3429,-151 605.6571,-151 605.6571,-187"/>
<text text-anchor="middle" x="564" y="-164.8" font-family="Times,serif" font-size="14.00" fill="#000000">AppModule</text>
</g>
<!-- AppComponent&#45;&gt;AppModule -->
<g id="edge1" class="edge">
<title>AppComponent&#45;&gt;AppModule</title>
<path fill="none" stroke="#000000" d="M1016,-122.2921C1016,-144.2057 1016,-178 1016,-178 1016,-178 615.7129,-178 615.7129,-178"/>
<polygon fill="#000000" stroke="#000000" points="615.7129,-174.5001 605.7129,-178 615.7129,-181.5001 615.7129,-174.5001"/>
</g>
<!-- AppComponent  -->
<g id="node10" class="node">
<title>AppComponent </title>
<polygon fill="#80b1d3" stroke="#000000" points="618.439,-252 509.561,-252 509.561,-216 618.439,-216 618.439,-252"/>
<text text-anchor="middle" x="564" y="-229.8" font-family="Times,serif" font-size="14.00" fill="#000000">AppComponent </text>
</g>
<!-- AppModule&#45;&gt;AppComponent  -->
<g id="edge9" class="edge">
<title>AppModule&#45;&gt;AppComponent </title>
<path fill="none" stroke="#000000" stroke-dasharray="1,5" d="M564,-187.1061C564,-187.1061 564,-205.991 564,-205.991"/>
<polygon fill="#000000" stroke="#000000" points="560.5001,-205.9909 564,-215.991 567.5001,-205.991 560.5001,-205.9909"/>
</g>
<!-- AppRoutingModule -->
<g id="node3" class="node">
<title>AppRoutingModule</title>
<polygon fill="#8dd3c7" stroke="#000000" points="939.2744,-122 936.2744,-126 915.2744,-126 912.2744,-122 810.7256,-122 810.7256,-86 939.2744,-86 939.2744,-122"/>
<text text-anchor="middle" x="875" y="-99.8" font-family="Times,serif" font-size="14.00" fill="#000000">AppRoutingModule</text>
</g>
<!-- AppRoutingModule&#45;&gt;AppModule -->
<g id="edge2" class="edge">
<title>AppRoutingModule&#45;&gt;AppModule</title>
<path fill="none" stroke="#000000" d="M875,-122.1061C875,-141.3391 875,-169 875,-169 875,-169 615.9428,-169 615.9428,-169"/>
<polygon fill="#000000" stroke="#000000" points="615.9429,-165.5001 605.9428,-169 615.9428,-172.5001 615.9429,-165.5001"/>
</g>
<!-- FooterModule -->
<g id="node4" class="node">
<title>FooterModule</title>
<polygon fill="#8dd3c7" stroke="#000000" points="793.0983,-122 790.0983,-126 769.0983,-126 766.0983,-122 696.9017,-122 696.9017,-86 793.0983,-86 793.0983,-122"/>
<text text-anchor="middle" x="745" y="-99.8" font-family="Times,serif" font-size="14.00" fill="#000000">FooterModule</text>
</g>
<!-- FooterModule&#45;&gt;AppModule -->
<g id="edge3" class="edge">
<title>FooterModule&#45;&gt;AppModule</title>
<path fill="none" stroke="#000000" d="M745,-122.027C745,-138.3976 745,-160 745,-160 745,-160 615.98,-160 615.98,-160"/>
<polygon fill="#000000" stroke="#000000" points="615.98,-156.5001 605.98,-160 615.9799,-163.5001 615.98,-156.5001"/>
</g>
<!-- MaterialModule -->
<g id="node5" class="node">
<title>MaterialModule</title>
<polygon fill="#8dd3c7" stroke="#000000" points="678.4706,-122 675.4706,-126 654.4706,-126 651.4706,-122 571.5294,-122 571.5294,-86 678.4706,-86 678.4706,-122"/>
<text text-anchor="middle" x="625" y="-99.8" font-family="Times,serif" font-size="14.00" fill="#000000">MaterialModule</text>
</g>
<!-- MaterialModule&#45;&gt;AppModule -->
<g id="edge4" class="edge">
<title>MaterialModule&#45;&gt;AppModule</title>
<path fill="none" stroke="#000000" d="M588.6715,-122.1061C588.6715,-122.1061 588.6715,-140.991 588.6715,-140.991"/>
<polygon fill="#000000" stroke="#000000" points="585.1715,-140.9909 588.6715,-150.991 592.1715,-140.991 585.1715,-140.9909"/>
</g>
<!-- ServiceModule -->
<g id="node6" class="node">
<title>ServiceModule</title>
<polygon fill="#8dd3c7" stroke="#000000" points="553.5285,-122 550.5285,-126 529.5285,-126 526.5285,-122 452.4715,-122 452.4715,-86 553.5285,-86 553.5285,-122"/>
<text text-anchor="middle" x="503" y="-99.8" font-family="Times,serif" font-size="14.00" fill="#000000">ServiceModule</text>
</g>
<!-- ServiceModule&#45;&gt;AppModule -->
<g id="edge5" class="edge">
<title>ServiceModule&#45;&gt;AppModule</title>
<path fill="none" stroke="#000000" d="M537.9678,-122.1061C537.9678,-122.1061 537.9678,-140.991 537.9678,-140.991"/>
<polygon fill="#000000" stroke="#000000" points="534.4678,-140.9909 537.9678,-150.991 541.4678,-140.991 534.4678,-140.9909"/>
</g>
<!-- SheetModule -->
<g id="node7" class="node">
<title>SheetModule</title>
<polygon fill="#8dd3c7" stroke="#000000" points="434.1529,-122 431.1529,-126 410.1529,-126 407.1529,-122 343.8471,-122 343.8471,-86 434.1529,-86 434.1529,-122"/>
<text text-anchor="middle" x="389" y="-99.8" font-family="Times,serif" font-size="14.00" fill="#000000">SheetModule</text>
</g>
<!-- SheetModule&#45;&gt;AppModule -->
<g id="edge6" class="edge">
<title>SheetModule&#45;&gt;AppModule</title>
<path fill="none" stroke="#000000" d="M389,-122.027C389,-138.3976 389,-160 389,-160 389,-160 512.0831,-160 512.0831,-160"/>
<polygon fill="#000000" stroke="#000000" points="512.0832,-163.5001 522.0831,-160 512.0831,-156.5001 512.0832,-163.5001"/>
</g>
<!-- SidnavHeaderModule -->
<g id="node8" class="node">
<title>SidnavHeaderModule</title>
<polygon fill="#8dd3c7" stroke="#000000" points="325.3487,-122 322.3487,-126 301.3487,-126 298.3487,-122 186.6513,-122 186.6513,-86 325.3487,-86 325.3487,-122"/>
<text text-anchor="middle" x="256" y="-99.8" font-family="Times,serif" font-size="14.00" fill="#000000">SidnavHeaderModule</text>
</g>
<!-- SidnavHeaderModule&#45;&gt;AppModule -->
<g id="edge7" class="edge">
<title>SidnavHeaderModule&#45;&gt;AppModule</title>
<path fill="none" stroke="#000000" d="M256,-122.1061C256,-141.3391 256,-169 256,-169 256,-169 512.1412,-169 512.1412,-169"/>
<polygon fill="#000000" stroke="#000000" points="512.1412,-172.5001 522.1412,-169 512.1412,-165.5001 512.1412,-172.5001"/>
</g>
<!-- ToolbarHeaderModule -->
<g id="node9" class="node">
<title>ToolbarHeaderModule</title>
<polygon fill="#8dd3c7" stroke="#000000" points="168.2795,-122 165.2795,-126 144.2795,-126 141.2795,-122 23.7205,-122 23.7205,-86 168.2795,-86 168.2795,-122"/>
<text text-anchor="middle" x="96" y="-99.8" font-family="Times,serif" font-size="14.00" fill="#000000">ToolbarHeaderModule</text>
</g>
<!-- ToolbarHeaderModule&#45;&gt;AppModule -->
<g id="edge8" class="edge">
<title>ToolbarHeaderModule&#45;&gt;AppModule</title>
<path fill="none" stroke="#000000" d="M96,-122.2921C96,-144.2057 96,-178 96,-178 96,-178 512.0563,-178 512.0563,-178"/>
<polygon fill="#000000" stroke="#000000" points="512.0563,-181.5001 522.0563,-178 512.0562,-174.5001 512.0563,-181.5001"/>
</g>
</g>
</svg>
