<?xml version="1.0" encoding="UTF-8" standalone="no"?>
<!DOCTYPE svg PUBLIC "-//W3C//DTD SVG 1.1//EN"
 "http://www.w3.org/Graphics/SVG/1.1/DTD/svg11.dtd">
<!-- Generated by graphviz version 2.40.1 (20161225.0304)
 -->
<!-- Title: dependencies Pages: 1 -->
<svg width="539pt" height="211pt"
 viewBox="0.00 0.00 539.00 211.00" xmlns="http://www.w3.org/2000/svg" xmlns:xlink="http://www.w3.org/1999/xlink">
<g id="graph0" class="graph" transform="scale(1 1) rotate(0) translate(4 207)">
<title>dependencies</title>
<polygon fill="#ffffff" stroke="transparent" points="-4,4 -4,-207 535,-207 535,4 -4,4"/>
<text text-anchor="start" x="244.5091" y="-42.4" font-family="sans-serif" font-weight="bold" font-size="14.00" fill="#000000">Legend</text>
<polygon fill="#ffffb3" stroke="transparent" points="31.5,-10 31.5,-30 51.5,-30 51.5,-10 31.5,-10"/>
<text text-anchor="start" x="55.129" y="-15.4" font-family="sans-serif" font-size="14.00" fill="#000000"> &#160;Declarations</text>
<polygon fill="#8dd3c7" stroke="transparent" points="144.5,-10 144.5,-30 164.5,-30 164.5,-10 144.5,-10"/>
<text text-anchor="start" x="168.2251" y="-15.4" font-family="sans-serif" font-size="14.00" fill="#000000"> &#160;Module</text>
<polygon fill="#80b1d3" stroke="transparent" points="230.5,-10 230.5,-30 250.5,-30 250.5,-10 230.5,-10"/>
<text text-anchor="start" x="254.2812" y="-15.4" font-family="sans-serif" font-size="14.00" fill="#000000"> &#160;Bootstrap</text>
<polygon fill="#fdb462" stroke="transparent" points="327.5,-10 327.5,-30 347.5,-30 347.5,-10 327.5,-10"/>
<text text-anchor="start" x="351.1732" y="-15.4" font-family="sans-serif" font-size="14.00" fill="#000000"> &#160;Providers</text>
<polygon fill="#fb8072" stroke="transparent" points="423.5,-10 423.5,-30 443.5,-30 443.5,-10 423.5,-10"/>
<text text-anchor="start" x="447.2258" y="-15.4" font-family="sans-serif" font-size="14.00" fill="#000000"> &#160;Exports</text>
<g id="clust1" class="cluster">
<title>cluster_CadastromedModule</title>
<polygon fill="none" stroke="#000000" stroke-dasharray="1,5" points="8,-70 8,-195 523,-195 523,-70 8,-70"/>
</g>
<g id="clust2" class="cluster">
<title>cluster_CadastromedModule_declarations</title>
<polygon fill="none" stroke="#000000" points="343,-78 343,-130 515,-130 515,-78 343,-78"/>
</g>
<g id="clust4" class="cluster">
<title>cluster_CadastromedModule_imports</title>
<polygon fill="none" stroke="#000000" points="16,-78 16,-130 335,-130 335,-78 16,-78"/>
</g>
<!-- CadastromedComponent -->
<g id="node1" class="node">
<title>CadastromedComponent</title>
<polygon fill="#ffffb3" stroke="#000000" points="506.6993,-122 351.3007,-122 351.3007,-86 506.6993,-86 506.6993,-122"/>
<text text-anchor="middle" x="429" y="-99.8" font-family="Times,serif" font-size="14.00" fill="#000000">CadastromedComponent</text>
</g>
<!-- CadastromedModule -->
<g id="node2" class="node">
<title>CadastromedModule</title>
<polygon fill="#8dd3c7" stroke="#000000" points="304.9173,-187 301.9173,-191 280.9173,-191 277.9173,-187 171.0827,-187 171.0827,-151 304.9173,-151 304.9173,-187"/>
<text text-anchor="middle" x="238" y="-164.8" font-family="Times,serif" font-size="14.00" fill="#000000">CadastromedModule</text>
</g>
<!-- CadastromedComponent&#45;&gt;CadastromedModule -->
<g id="edge1" class="edge">
<title>CadastromedComponent&#45;&gt;CadastromedModule</title>
<path fill="none" stroke="#000000" d="M429,-122.1061C429,-141.3391 429,-169 429,-169 429,-169 314.8025,-169 314.8025,-169"/>
<polygon fill="#000000" stroke="#000000" points="314.8026,-165.5001 304.8025,-169 314.8025,-172.5001 314.8026,-165.5001"/>
</g>
<!-- CadastromedRoutingModule -->
<g id="node3" class="node">
<title>CadastromedRoutingModule</title>
<polygon fill="#8dd3c7" stroke="#000000" points="327.035,-122 324.035,-126 303.035,-126 300.035,-122 148.965,-122 148.965,-86 327.035,-86 327.035,-122"/>
<text text-anchor="middle" x="238" y="-99.8" font-family="Times,serif" font-size="14.00" fill="#000000">CadastromedRoutingModule</text>
</g>
<!-- CadastromedRoutingModule&#45;&gt;CadastromedModule -->
<g id="edge2" class="edge">
<title>CadastromedRoutingModule&#45;&gt;CadastromedModule</title>
<path fill="none" stroke="#000000" d="M238,-122.1061C238,-122.1061 238,-140.991 238,-140.991"/>
<polygon fill="#000000" stroke="#000000" points="234.5001,-140.9909 238,-150.991 241.5001,-140.991 234.5001,-140.9909"/>
</g>
<!-- MaterialModule -->
<g id="node4" class="node">
<title>MaterialModule</title>
<polygon fill="#8dd3c7" stroke="#000000" points="130.4706,-122 127.4706,-126 106.4706,-126 103.4706,-122 23.5294,-122 23.5294,-86 130.4706,-86 130.4706,-122"/>
<text text-anchor="middle" x="77" y="-99.8" font-family="Times,serif" font-size="14.00" fill="#000000">MaterialModule</text>
</g>
<!-- MaterialModule&#45;&gt;CadastromedModule -->
<g id="edge3" class="edge">
<title>MaterialModule&#45;&gt;CadastromedModule</title>
<path fill="none" stroke="#000000" d="M77,-122.1061C77,-141.3391 77,-169 77,-169 77,-169 161.1202,-169 161.1202,-169"/>
<polygon fill="#000000" stroke="#000000" points="161.1202,-172.5001 171.1202,-169 161.1202,-165.5001 161.1202,-172.5001"/>
</g>
</g>
</svg>
