<?xml version="1.0" encoding="UTF-8" standalone="no"?>
<!DOCTYPE svg PUBLIC "-//W3C//DTD SVG 1.1//EN"
 "http://www.w3.org/Graphics/SVG/1.1/DTD/svg11.dtd">
<!-- Generated by graphviz version 2.40.1 (20161225.0304)
 -->
<!-- Title: dependencies Pages: 1 -->
<svg width="830pt" height="211pt"
 viewBox="0.00 0.00 830.00 211.00" xmlns="http://www.w3.org/2000/svg" xmlns:xlink="http://www.w3.org/1999/xlink">
<g id="graph0" class="graph" transform="scale(1 1) rotate(0) translate(4 207)">
<title>dependencies</title>
<polygon fill="#ffffff" stroke="transparent" points="-4,4 -4,-207 826,-207 826,4 -4,4"/>
<text text-anchor="start" x="390.0091" y="-42.4" font-family="sans-serif" font-weight="bold" font-size="14.00" fill="#000000">Legend</text>
<polygon fill="#ffffb3" stroke="transparent" points="177,-10 177,-30 197,-30 197,-10 177,-10"/>
<text text-anchor="start" x="200.629" y="-15.4" font-family="sans-serif" font-size="14.00" fill="#000000"> &#160;Declarations</text>
<polygon fill="#8dd3c7" stroke="transparent" points="290,-10 290,-30 310,-30 310,-10 290,-10"/>
<text text-anchor="start" x="313.7251" y="-15.4" font-family="sans-serif" font-size="14.00" fill="#000000"> &#160;Module</text>
<polygon fill="#80b1d3" stroke="transparent" points="376,-10 376,-30 396,-30 396,-10 376,-10"/>
<text text-anchor="start" x="399.7812" y="-15.4" font-family="sans-serif" font-size="14.00" fill="#000000"> &#160;Bootstrap</text>
<polygon fill="#fdb462" stroke="transparent" points="473,-10 473,-30 493,-30 493,-10 473,-10"/>
<text text-anchor="start" x="496.6732" y="-15.4" font-family="sans-serif" font-size="14.00" fill="#000000"> &#160;Providers</text>
<polygon fill="#fb8072" stroke="transparent" points="569,-10 569,-30 589,-30 589,-10 569,-10"/>
<text text-anchor="start" x="592.7258" y="-15.4" font-family="sans-serif" font-size="14.00" fill="#000000"> &#160;Exports</text>
<g id="clust1" class="cluster">
<title>cluster_IntercambialidadeModule</title>
<polygon fill="none" stroke="#000000" stroke-dasharray="1,5" points="8,-70 8,-195 814,-195 814,-70 8,-70"/>
</g>
<g id="clust2" class="cluster">
<title>cluster_IntercambialidadeModule_declarations</title>
<polygon fill="none" stroke="#000000" points="370,-78 370,-130 806,-130 806,-78 370,-78"/>
</g>
<g id="clust5" class="cluster">
<title>cluster_IntercambialidadeModule_imports</title>
<polygon fill="none" stroke="#000000" points="16,-78 16,-130 362,-130 362,-78 16,-78"/>
</g>
<!-- IntercambialidadeComponent -->
<g id="node1" class="node">
<title>IntercambialidadeComponent</title>
<polygon fill="#ffffb3" stroke="#000000" points="798.3946,-122 615.6054,-122 615.6054,-86 798.3946,-86 798.3946,-122"/>
<text text-anchor="middle" x="707" y="-99.8" font-family="Times,serif" font-size="14.00" fill="#000000">IntercambialidadeComponent</text>
</g>
<!-- IntercambialidadeModule -->
<g id="node3" class="node">
<title>IntercambialidadeModule</title>
<polygon fill="#8dd3c7" stroke="#000000" points="449.1121,-187 446.1121,-191 425.1121,-191 422.1121,-187 288.8879,-187 288.8879,-151 449.1121,-151 449.1121,-187"/>
<text text-anchor="middle" x="369" y="-164.8" font-family="Times,serif" font-size="14.00" fill="#000000">IntercambialidadeModule</text>
</g>
<!-- IntercambialidadeComponent&#45;&gt;IntercambialidadeModule -->
<g id="edge1" class="edge">
<title>IntercambialidadeComponent&#45;&gt;IntercambialidadeModule</title>
<path fill="none" stroke="#000000" d="M707,-122.1061C707,-141.3391 707,-169 707,-169 707,-169 459.53,-169 459.53,-169"/>
<polygon fill="#000000" stroke="#000000" points="459.53,-165.5001 449.53,-169 459.53,-172.5001 459.53,-165.5001"/>
</g>
<!-- IntercambialidadeDialogComponent -->
<g id="node2" class="node">
<title>IntercambialidadeDialogComponent</title>
<polygon fill="#ffffb3" stroke="#000000" points="598.4972,-122 377.5028,-122 377.5028,-86 598.4972,-86 598.4972,-122"/>
<text text-anchor="middle" x="488" y="-99.8" font-family="Times,serif" font-size="14.00" fill="#000000">IntercambialidadeDialogComponent</text>
</g>
<!-- IntercambialidadeDialogComponent&#45;&gt;IntercambialidadeModule -->
<g id="edge2" class="edge">
<title>IntercambialidadeDialogComponent&#45;&gt;IntercambialidadeModule</title>
<path fill="none" stroke="#000000" d="M413.5287,-122.1061C413.5287,-122.1061 413.5287,-140.991 413.5287,-140.991"/>
<polygon fill="#000000" stroke="#000000" points="410.0288,-140.9909 413.5287,-150.991 417.0288,-140.991 410.0288,-140.9909"/>
</g>
<!-- IntercambialidadeRoutingModule -->
<g id="node4" class="node">
<title>IntercambialidadeRoutingModule</title>
<polygon fill="#8dd3c7" stroke="#000000" points="353.7296,-122 350.7296,-126 329.7296,-126 326.7296,-122 148.2704,-122 148.2704,-86 353.7296,-86 353.7296,-122"/>
<text text-anchor="middle" x="251" y="-99.8" font-family="Times,serif" font-size="14.00" fill="#000000">IntercambialidadeRoutingModule</text>
</g>
<!-- IntercambialidadeRoutingModule&#45;&gt;IntercambialidadeModule -->
<g id="edge3" class="edge">
<title>IntercambialidadeRoutingModule&#45;&gt;IntercambialidadeModule</title>
<path fill="none" stroke="#000000" d="M321.2795,-122.1061C321.2795,-122.1061 321.2795,-140.991 321.2795,-140.991"/>
<polygon fill="#000000" stroke="#000000" points="317.7795,-140.9909 321.2795,-150.991 324.7795,-140.991 317.7795,-140.9909"/>
</g>
<!-- MaterialModule -->
<g id="node5" class="node">
<title>MaterialModule</title>
<polygon fill="#8dd3c7" stroke="#000000" points="130.4706,-122 127.4706,-126 106.4706,-126 103.4706,-122 23.5294,-122 23.5294,-86 130.4706,-86 130.4706,-122"/>
<text text-anchor="middle" x="77" y="-99.8" font-family="Times,serif" font-size="14.00" fill="#000000">MaterialModule</text>
</g>
<!-- MaterialModule&#45;&gt;IntercambialidadeModule -->
<g id="edge4" class="edge">
<title>MaterialModule&#45;&gt;IntercambialidadeModule</title>
<path fill="none" stroke="#000000" d="M77,-122.1061C77,-141.3391 77,-169 77,-169 77,-169 278.8235,-169 278.8235,-169"/>
<polygon fill="#000000" stroke="#000000" points="278.8235,-172.5001 288.8235,-169 278.8235,-165.5001 278.8235,-172.5001"/>
</g>
</g>
</svg>
