<?xml version="1.0" encoding="UTF-8" standalone="no"?>
<!DOCTYPE svg PUBLIC "-//W3C//DTD SVG 1.1//EN"
 "http://www.w3.org/Graphics/SVG/1.1/DTD/svg11.dtd">
<!-- Generated by graphviz version 2.40.1 (20161225.0304)
 -->
<!-- Title: dependencies Pages: 1 -->
<svg width="640pt" height="284pt"
 viewBox="0.00 0.00 640.00 284.00" xmlns="http://www.w3.org/2000/svg" xmlns:xlink="http://www.w3.org/1999/xlink">
<g id="graph0" class="graph" transform="scale(1 1) rotate(0) translate(4 280)">
<title>dependencies</title>
<polygon fill="#ffffff" stroke="transparent" points="-4,4 -4,-280 636,-280 636,4 -4,4"/>
<text text-anchor="start" x="295.0091" y="-42.4" font-family="sans-serif" font-weight="bold" font-size="14.00" fill="#000000">Legend</text>
<polygon fill="#ffffb3" stroke="transparent" points="82,-10 82,-30 102,-30 102,-10 82,-10"/>
<text text-anchor="start" x="105.629" y="-15.4" font-family="sans-serif" font-size="14.00" fill="#000000"> &#160;Declarations</text>
<polygon fill="#8dd3c7" stroke="transparent" points="195,-10 195,-30 215,-30 215,-10 195,-10"/>
<text text-anchor="start" x="218.7251" y="-15.4" font-family="sans-serif" font-size="14.00" fill="#000000"> &#160;Module</text>
<polygon fill="#80b1d3" stroke="transparent" points="281,-10 281,-30 301,-30 301,-10 281,-10"/>
<text text-anchor="start" x="304.7812" y="-15.4" font-family="sans-serif" font-size="14.00" fill="#000000"> &#160;Bootstrap</text>
<polygon fill="#fdb462" stroke="transparent" points="378,-10 378,-30 398,-30 398,-10 378,-10"/>
<text text-anchor="start" x="401.6732" y="-15.4" font-family="sans-serif" font-size="14.00" fill="#000000"> &#160;Providers</text>
<polygon fill="#fb8072" stroke="transparent" points="474,-10 474,-30 494,-30 494,-10 474,-10"/>
<text text-anchor="start" x="497.7258" y="-15.4" font-family="sans-serif" font-size="14.00" fill="#000000"> &#160;Exports</text>
<g id="clust1" class="cluster">
<title>cluster_LayoutModule</title>
<polygon fill="none" stroke="#000000" stroke-dasharray="1,5" points="8,-70 8,-268 624,-268 624,-70 8,-70"/>
</g>
<g id="clust2" class="cluster">
<title>cluster_LayoutModule_declarations</title>
<polygon fill="none" stroke="#000000" points="150,-78 150,-130 612,-130 612,-78 150,-78"/>
</g>
<g id="clust6" class="cluster">
<title>cluster_LayoutModule_imports</title>
<polygon fill="none" stroke="#000000" points="20,-78 20,-130 142,-130 142,-78 20,-78"/>
</g>
<g id="clust7" class="cluster">
<title>cluster_LayoutModule_exports</title>
<polygon fill="none" stroke="#000000" points="16,-208 16,-260 616,-260 616,-208 16,-208"/>
</g>
<!-- DisableControlDirective -->
<g id="node1" class="node">
<title>DisableControlDirective</title>
<polygon fill="#ffffb3" stroke="#000000" points="603.6233,-122 450.3767,-122 450.3767,-86 603.6233,-86 603.6233,-122"/>
<text text-anchor="middle" x="527" y="-99.8" font-family="Times,serif" font-size="14.00" fill="#000000">DisableControlDirective</text>
</g>
<!-- LayoutModule -->
<g id="node4" class="node">
<title>LayoutModule</title>
<polygon fill="#8dd3c7" stroke="#000000" points="346.7078,-187 343.7078,-191 322.7078,-191 319.7078,-187 247.2922,-187 247.2922,-151 346.7078,-151 346.7078,-187"/>
<text text-anchor="middle" x="297" y="-164.8" font-family="Times,serif" font-size="14.00" fill="#000000">LayoutModule</text>
</g>
<!-- DisableControlDirective&#45;&gt;LayoutModule -->
<g id="edge1" class="edge">
<title>DisableControlDirective&#45;&gt;LayoutModule</title>
<path fill="none" stroke="#000000" d="M552.6871,-122.0225C552.6871,-139.3734 552.6871,-163 552.6871,-163 552.6871,-163 356.906,-163 356.906,-163"/>
<polygon fill="#000000" stroke="#000000" points="356.9061,-159.5001 346.906,-163 356.906,-166.5001 356.9061,-159.5001"/>
</g>
<!-- HighlightDirective -->
<g id="node2" class="node">
<title>HighlightDirective</title>
<polygon fill="#ffffb3" stroke="#000000" points="431.7521,-122 310.2479,-122 310.2479,-86 431.7521,-86 431.7521,-122"/>
<text text-anchor="middle" x="371" y="-99.8" font-family="Times,serif" font-size="14.00" fill="#000000">HighlightDirective</text>
</g>
<!-- HighlightDirective&#45;&gt;LayoutModule -->
<g id="edge2" class="edge">
<title>HighlightDirective&#45;&gt;LayoutModule</title>
<path fill="none" stroke="#000000" d="M328.364,-122.1061C328.364,-122.1061 328.364,-140.991 328.364,-140.991"/>
<polygon fill="#000000" stroke="#000000" points="324.864,-140.9909 328.364,-150.991 331.864,-140.991 324.864,-140.9909"/>
</g>
<!-- MaskPhoneDirective -->
<g id="node3" class="node">
<title>MaskPhoneDirective</title>
<polygon fill="#ffffb3" stroke="#000000" points="292.1839,-122 157.8161,-122 157.8161,-86 292.1839,-86 292.1839,-122"/>
<text text-anchor="middle" x="225" y="-99.8" font-family="Times,serif" font-size="14.00" fill="#000000">MaskPhoneDirective</text>
</g>
<!-- MaskPhoneDirective&#45;&gt;LayoutModule -->
<g id="edge3" class="edge">
<title>MaskPhoneDirective&#45;&gt;LayoutModule</title>
<path fill="none" stroke="#000000" d="M269.7441,-122.1061C269.7441,-122.1061 269.7441,-140.991 269.7441,-140.991"/>
<polygon fill="#000000" stroke="#000000" points="266.2441,-140.9909 269.7441,-150.991 273.2441,-140.991 266.2441,-140.9909"/>
</g>
<!-- DisableControlDirective  -->
<g id="node6" class="node">
<title>DisableControlDirective </title>
<polygon fill="#fb8072" stroke="#000000" points="607.6228,-252 450.3772,-252 450.3772,-216 607.6228,-216 607.6228,-252"/>
<text text-anchor="middle" x="529" y="-229.8" font-family="Times,serif" font-size="14.00" fill="#000000">DisableControlDirective </text>
</g>
<!-- LayoutModule&#45;&gt;DisableControlDirective  -->
<g id="edge5" class="edge">
<title>LayoutModule&#45;&gt;DisableControlDirective </title>
<path fill="none" stroke="#000000" stroke-dasharray="5,2" d="M346.7801,-175C407.3313,-175 501.5629,-175 501.5629,-175 501.5629,-175 501.5629,-205.9775 501.5629,-205.9775"/>
<polygon fill="#000000" stroke="#000000" points="498.063,-205.9774 501.5629,-215.9775 505.063,-205.9775 498.063,-205.9774"/>
</g>
<!-- HighlightDirective  -->
<g id="node7" class="node">
<title>HighlightDirective </title>
<polygon fill="#fb8072" stroke="#000000" points="432.7521,-252 307.2479,-252 307.2479,-216 432.7521,-216 432.7521,-252"/>
<text text-anchor="middle" x="370" y="-229.8" font-family="Times,serif" font-size="14.00" fill="#000000">HighlightDirective </text>
</g>
<!-- LayoutModule&#45;&gt;HighlightDirective  -->
<g id="edge6" class="edge">
<title>LayoutModule&#45;&gt;HighlightDirective </title>
<path fill="none" stroke="#000000" stroke-dasharray="5,2" d="M326.989,-187.1061C326.989,-187.1061 326.989,-205.991 326.989,-205.991"/>
<polygon fill="#000000" stroke="#000000" points="323.489,-205.9909 326.989,-215.991 330.489,-205.991 323.489,-205.9909"/>
</g>
<!-- MaskPhoneDirective  -->
<g id="node8" class="node">
<title>MaskPhoneDirective </title>
<polygon fill="#fb8072" stroke="#000000" points="289.6842,-252 152.3158,-252 152.3158,-216 289.6842,-216 289.6842,-252"/>
<text text-anchor="middle" x="221" y="-229.8" font-family="Times,serif" font-size="14.00" fill="#000000">MaskPhoneDirective </text>
</g>
<!-- LayoutModule&#45;&gt;MaskPhoneDirective  -->
<g id="edge7" class="edge">
<title>LayoutModule&#45;&gt;MaskPhoneDirective </title>
<path fill="none" stroke="#000000" stroke-dasharray="5,2" d="M268.6191,-187.1061C268.6191,-187.1061 268.6191,-205.991 268.6191,-205.991"/>
<polygon fill="#000000" stroke="#000000" points="265.1191,-205.9909 268.6191,-215.991 272.1191,-205.991 265.1191,-205.9909"/>
</g>
<!-- MaterialModule  -->
<g id="node9" class="node">
<title>MaterialModule </title>
<polygon fill="#fb8072" stroke="#000000" points="134.4716,-252 23.5284,-252 23.5284,-216 134.4716,-216 134.4716,-252"/>
<text text-anchor="middle" x="79" y="-229.8" font-family="Times,serif" font-size="14.00" fill="#000000">MaterialModule </text>
</g>
<!-- LayoutModule&#45;&gt;MaterialModule  -->
<g id="edge8" class="edge">
<title>LayoutModule&#45;&gt;MaterialModule </title>
<path fill="none" stroke="#000000" stroke-dasharray="5,2" d="M247.3933,-175C178.7306,-175 63.0882,-175 63.0882,-175 63.0882,-175 63.0882,-205.9775 63.0882,-205.9775"/>
<polygon fill="#000000" stroke="#000000" points="59.5883,-205.9774 63.0882,-215.9775 66.5883,-205.9775 59.5883,-205.9774"/>
</g>
<!-- MaterialModule -->
<g id="node5" class="node">
<title>MaterialModule</title>
<polygon fill="#8dd3c7" stroke="#000000" points="134.4706,-122 131.4706,-126 110.4706,-126 107.4706,-122 27.5294,-122 27.5294,-86 134.4706,-86 134.4706,-122"/>
<text text-anchor="middle" x="81" y="-99.8" font-family="Times,serif" font-size="14.00" fill="#000000">MaterialModule</text>
</g>
<!-- MaterialModule&#45;&gt;LayoutModule -->
<g id="edge4" class="edge">
<title>MaterialModule&#45;&gt;LayoutModule</title>
<path fill="none" stroke="#000000" d="M98.6618,-122.0225C98.6618,-139.3734 98.6618,-163 98.6618,-163 98.6618,-163 237.2069,-163 237.2069,-163"/>
<polygon fill="#000000" stroke="#000000" points="237.2069,-166.5001 247.2069,-163 237.2069,-159.5001 237.2069,-166.5001"/>
</g>
</g>
</svg>
