<?xml version="1.0" encoding="UTF-8" standalone="no"?>
<!DOCTYPE svg PUBLIC "-//W3C//DTD SVG 1.1//EN"
 "http://www.w3.org/Graphics/SVG/1.1/DTD/svg11.dtd">
<!-- Generated by graphviz version 2.40.1 (20161225.0304)
 -->
<!-- Title: dependencies Pages: 1 -->
<svg width="504pt" height="284pt"
 viewBox="0.00 0.00 504.00 284.00" xmlns="http://www.w3.org/2000/svg" xmlns:xlink="http://www.w3.org/1999/xlink">
<g id="graph0" class="graph" transform="scale(1 1) rotate(0) translate(4 280)">
<title>dependencies</title>
<polygon fill="#ffffff" stroke="transparent" points="-4,4 -4,-280 500,-280 500,4 -4,4"/>
<text text-anchor="start" x="227.0091" y="-42.4" font-family="sans-serif" font-weight="bold" font-size="14.00" fill="#000000">Legend</text>
<polygon fill="#ffffb3" stroke="transparent" points="14,-10 14,-30 34,-30 34,-10 14,-10"/>
<text text-anchor="start" x="37.629" y="-15.4" font-family="sans-serif" font-size="14.00" fill="#000000"> &#160;Declarations</text>
<polygon fill="#8dd3c7" stroke="transparent" points="127,-10 127,-30 147,-30 147,-10 127,-10"/>
<text text-anchor="start" x="150.7251" y="-15.4" font-family="sans-serif" font-size="14.00" fill="#000000"> &#160;Module</text>
<polygon fill="#80b1d3" stroke="transparent" points="213,-10 213,-30 233,-30 233,-10 213,-10"/>
<text text-anchor="start" x="236.7812" y="-15.4" font-family="sans-serif" font-size="14.00" fill="#000000"> &#160;Bootstrap</text>
<polygon fill="#fdb462" stroke="transparent" points="310,-10 310,-30 330,-30 330,-10 310,-10"/>
<text text-anchor="start" x="333.6732" y="-15.4" font-family="sans-serif" font-size="14.00" fill="#000000"> &#160;Providers</text>
<polygon fill="#fb8072" stroke="transparent" points="406,-10 406,-30 426,-30 426,-10 406,-10"/>
<text text-anchor="start" x="429.7258" y="-15.4" font-family="sans-serif" font-size="14.00" fill="#000000"> &#160;Exports</text>
<g id="clust1" class="cluster">
<title>cluster_AdministracaoInfoModule</title>
<polygon fill="none" stroke="#000000" stroke-dasharray="1,5" points="73,-70 73,-268 423,-268 423,-70 73,-70"/>
</g>
<g id="clust2" class="cluster">
<title>cluster_AdministracaoInfoModule_declarations</title>
<polygon fill="none" stroke="#000000" points="211,-78 211,-130 415,-130 415,-78 211,-78"/>
</g>
<g id="clust4" class="cluster">
<title>cluster_AdministracaoInfoModule_imports</title>
<polygon fill="none" stroke="#000000" points="81,-78 81,-130 203,-130 203,-78 81,-78"/>
</g>
<g id="clust5" class="cluster">
<title>cluster_AdministracaoInfoModule_exports</title>
<polygon fill="none" stroke="#000000" points="145,-208 145,-260 351,-260 351,-208 145,-208"/>
</g>
<!-- AdministracaoInfoComponent -->
<g id="node1" class="node">
<title>AdministracaoInfoComponent</title>
<polygon fill="#ffffb3" stroke="#000000" points="406.5716,-122 219.4284,-122 219.4284,-86 406.5716,-86 406.5716,-122"/>
<text text-anchor="middle" x="313" y="-99.8" font-family="Times,serif" font-size="14.00" fill="#000000">AdministracaoInfoComponent</text>
</g>
<!-- AdministracaoInfoModule -->
<g id="node2" class="node">
<title>AdministracaoInfoModule</title>
<polygon fill="#8dd3c7" stroke="#000000" points="330.7893,-187 327.7893,-191 306.7893,-191 303.7893,-187 165.2107,-187 165.2107,-151 330.7893,-151 330.7893,-187"/>
<text text-anchor="middle" x="248" y="-164.8" font-family="Times,serif" font-size="14.00" fill="#000000">AdministracaoInfoModule</text>
</g>
<!-- AdministracaoInfoComponent&#45;&gt;AdministracaoInfoModule -->
<g id="edge1" class="edge">
<title>AdministracaoInfoComponent&#45;&gt;AdministracaoInfoModule</title>
<path fill="none" stroke="#000000" d="M275.0544,-122.1061C275.0544,-122.1061 275.0544,-140.991 275.0544,-140.991"/>
<polygon fill="#000000" stroke="#000000" points="271.5544,-140.9909 275.0544,-150.991 278.5544,-140.991 271.5544,-140.9909"/>
</g>
<!-- AdministracaoInfoComponent  -->
<g id="node4" class="node">
<title>AdministracaoInfoComponent </title>
<polygon fill="#fb8072" stroke="#000000" points="343.0721,-252 152.9279,-252 152.9279,-216 343.0721,-216 343.0721,-252"/>
<text text-anchor="middle" x="248" y="-229.8" font-family="Times,serif" font-size="14.00" fill="#000000">AdministracaoInfoComponent </text>
</g>
<!-- AdministracaoInfoModule&#45;&gt;AdministracaoInfoComponent  -->
<g id="edge3" class="edge">
<title>AdministracaoInfoModule&#45;&gt;AdministracaoInfoComponent </title>
<path fill="none" stroke="#000000" stroke-dasharray="5,2" d="M248,-187.1061C248,-187.1061 248,-205.991 248,-205.991"/>
<polygon fill="#000000" stroke="#000000" points="244.5001,-205.9909 248,-215.991 251.5001,-205.991 244.5001,-205.9909"/>
</g>
<!-- MaterialModule -->
<g id="node3" class="node">
<title>MaterialModule</title>
<polygon fill="#8dd3c7" stroke="#000000" points="195.4706,-122 192.4706,-126 171.4706,-126 168.4706,-122 88.5294,-122 88.5294,-86 195.4706,-86 195.4706,-122"/>
<text text-anchor="middle" x="142" y="-99.8" font-family="Times,serif" font-size="14.00" fill="#000000">MaterialModule</text>
</g>
<!-- MaterialModule&#45;&gt;AdministracaoInfoModule -->
<g id="edge2" class="edge">
<title>MaterialModule&#45;&gt;AdministracaoInfoModule</title>
<path fill="none" stroke="#000000" d="M180.4204,-122.1061C180.4204,-122.1061 180.4204,-140.991 180.4204,-140.991"/>
<polygon fill="#000000" stroke="#000000" points="176.9205,-140.9909 180.4204,-150.991 183.9205,-140.991 176.9205,-140.9909"/>
</g>
</g>
</svg>
