<?xml version="1.0" encoding="UTF-8" standalone="no"?>
<!DOCTYPE svg PUBLIC "-//W3C//DTD SVG 1.1//EN"
 "http://www.w3.org/Graphics/SVG/1.1/DTD/svg11.dtd">
<!-- Generated by graphviz version 2.40.1 (20161225.0304)
 -->
<!-- Title: dependencies Pages: 1 -->
<svg width="507pt" height="284pt"
 viewBox="0.00 0.00 507.00 284.00" xmlns="http://www.w3.org/2000/svg" xmlns:xlink="http://www.w3.org/1999/xlink">
<g id="graph0" class="graph" transform="scale(1 1) rotate(0) translate(4 280)">
<title>dependencies</title>
<polygon fill="#ffffff" stroke="transparent" points="-4,4 -4,-280 503,-280 503,4 -4,4"/>
<text text-anchor="start" x="228.5091" y="-42.4" font-family="sans-serif" font-weight="bold" font-size="14.00" fill="#000000">Legend</text>
<polygon fill="#ffffb3" stroke="transparent" points="15.5,-10 15.5,-30 35.5,-30 35.5,-10 15.5,-10"/>
<text text-anchor="start" x="39.129" y="-15.4" font-family="sans-serif" font-size="14.00" fill="#000000"> &#160;Declarations</text>
<polygon fill="#8dd3c7" stroke="transparent" points="128.5,-10 128.5,-30 148.5,-30 148.5,-10 128.5,-10"/>
<text text-anchor="start" x="152.2251" y="-15.4" font-family="sans-serif" font-size="14.00" fill="#000000"> &#160;Module</text>
<polygon fill="#80b1d3" stroke="transparent" points="214.5,-10 214.5,-30 234.5,-30 234.5,-10 214.5,-10"/>
<text text-anchor="start" x="238.2812" y="-15.4" font-family="sans-serif" font-size="14.00" fill="#000000"> &#160;Bootstrap</text>
<polygon fill="#fdb462" stroke="transparent" points="311.5,-10 311.5,-30 331.5,-30 331.5,-10 311.5,-10"/>
<text text-anchor="start" x="335.1732" y="-15.4" font-family="sans-serif" font-size="14.00" fill="#000000"> &#160;Providers</text>
<polygon fill="#fb8072" stroke="transparent" points="407.5,-10 407.5,-30 427.5,-30 427.5,-10 407.5,-10"/>
<text text-anchor="start" x="431.2258" y="-15.4" font-family="sans-serif" font-size="14.00" fill="#000000"> &#160;Exports</text>
<g id="clust1" class="cluster">
<title>cluster_PacienteMedicoModule</title>
<polygon fill="none" stroke="#000000" stroke-dasharray="1,5" points="8,-70 8,-268 491,-268 491,-70 8,-70"/>
</g>
<g id="clust2" class="cluster">
<title>cluster_PacienteMedicoModule_declarations</title>
<polygon fill="none" stroke="#000000" points="295,-78 295,-130 483,-130 483,-78 295,-78"/>
</g>
<g id="clust4" class="cluster">
<title>cluster_PacienteMedicoModule_imports</title>
<polygon fill="none" stroke="#000000" points="16,-78 16,-130 287,-130 287,-78 16,-78"/>
</g>
<g id="clust5" class="cluster">
<title>cluster_PacienteMedicoModule_exports</title>
<polygon fill="none" stroke="#000000" points="130,-208 130,-260 322,-260 322,-208 130,-208"/>
</g>
<!-- PacienteMedicoComponent -->
<g id="node1" class="node">
<title>PacienteMedicoComponent</title>
<polygon fill="#ffffb3" stroke="#000000" points="474.5197,-122 303.4803,-122 303.4803,-86 474.5197,-86 474.5197,-122"/>
<text text-anchor="middle" x="389" y="-99.8" font-family="Times,serif" font-size="14.00" fill="#000000">PacienteMedicoComponent</text>
</g>
<!-- PacienteMedicoModule -->
<g id="node2" class="node">
<title>PacienteMedicoModule</title>
<polygon fill="#8dd3c7" stroke="#000000" points="300.7366,-187 297.7366,-191 276.7366,-191 273.7366,-187 151.2634,-187 151.2634,-151 300.7366,-151 300.7366,-187"/>
<text text-anchor="middle" x="226" y="-164.8" font-family="Times,serif" font-size="14.00" fill="#000000">PacienteMedicoModule</text>
</g>
<!-- PacienteMedicoComponent&#45;&gt;PacienteMedicoModule -->
<g id="edge1" class="edge">
<title>PacienteMedicoComponent&#45;&gt;PacienteMedicoModule</title>
<path fill="none" stroke="#000000" d="M308.375,-122.1061C308.375,-141.3391 308.375,-169 308.375,-169 308.375,-169 307.6148,-169 307.6148,-169"/>
<polygon fill="#000000" stroke="#000000" points="310.7731,-165.5001 300.773,-169 310.773,-172.5001 310.7731,-165.5001"/>
</g>
<!-- PacienteMedicoComponent  -->
<g id="node5" class="node">
<title>PacienteMedicoComponent </title>
<polygon fill="#fb8072" stroke="#000000" points="313.519,-252 138.481,-252 138.481,-216 313.519,-216 313.519,-252"/>
<text text-anchor="middle" x="226" y="-229.8" font-family="Times,serif" font-size="14.00" fill="#000000">PacienteMedicoComponent </text>
</g>
<!-- PacienteMedicoModule&#45;&gt;PacienteMedicoComponent  -->
<g id="edge4" class="edge">
<title>PacienteMedicoModule&#45;&gt;PacienteMedicoComponent </title>
<path fill="none" stroke="#000000" stroke-dasharray="5,2" d="M226,-187.1061C226,-187.1061 226,-205.991 226,-205.991"/>
<polygon fill="#000000" stroke="#000000" points="222.5001,-205.9909 226,-215.991 229.5001,-205.991 222.5001,-205.9909"/>
</g>
<!-- MaterialModule -->
<g id="node3" class="node">
<title>MaterialModule</title>
<polygon fill="#8dd3c7" stroke="#000000" points="279.4706,-122 276.4706,-126 255.4706,-126 252.4706,-122 172.5294,-122 172.5294,-86 279.4706,-86 279.4706,-122"/>
<text text-anchor="middle" x="226" y="-99.8" font-family="Times,serif" font-size="14.00" fill="#000000">MaterialModule</text>
</g>
<!-- MaterialModule&#45;&gt;PacienteMedicoModule -->
<g id="edge2" class="edge">
<title>MaterialModule&#45;&gt;PacienteMedicoModule</title>
<path fill="none" stroke="#000000" d="M226,-122.1061C226,-122.1061 226,-140.991 226,-140.991"/>
<polygon fill="#000000" stroke="#000000" points="222.5001,-140.9909 226,-150.991 229.5001,-140.991 222.5001,-140.9909"/>
</g>
<!-- ResponsavelModule -->
<g id="node4" class="node">
<title>ResponsavelModule</title>
<polygon fill="#8dd3c7" stroke="#000000" points="154.3104,-122 151.3104,-126 130.3104,-126 127.3104,-122 23.6896,-122 23.6896,-86 154.3104,-86 154.3104,-122"/>
<text text-anchor="middle" x="89" y="-99.8" font-family="Times,serif" font-size="14.00" fill="#000000">ResponsavelModule</text>
</g>
<!-- ResponsavelModule&#45;&gt;PacienteMedicoModule -->
<g id="edge3" class="edge">
<title>ResponsavelModule&#45;&gt;PacienteMedicoModule</title>
<path fill="none" stroke="#000000" d="M144.8112,-122.1061C144.8112,-141.3391 144.8112,-169 144.8112,-169 144.8112,-169 145.4482,-169 145.4482,-169"/>
<polygon fill="#000000" stroke="#000000" points="141.182,-172.5002 151.1819,-169 141.1818,-165.5002 141.182,-172.5002"/>
</g>
</g>
</svg>
