<?xml version="1.0" encoding="UTF-8" standalone="no"?>
<!DOCTYPE svg PUBLIC "-//W3C//DTD SVG 1.1//EN"
 "http://www.w3.org/Graphics/SVG/1.1/DTD/svg11.dtd">
<!-- Generated by graphviz version 2.40.1 (20161225.0304)
 -->
<!-- Title: dependencies Pages: 1 -->
<svg width="927pt" height="284pt"
 viewBox="0.00 0.00 927.00 284.00" xmlns="http://www.w3.org/2000/svg" xmlns:xlink="http://www.w3.org/1999/xlink">
<g id="graph0" class="graph" transform="scale(1 1) rotate(0) translate(4 280)">
<title>dependencies</title>
<polygon fill="#ffffff" stroke="transparent" points="-4,4 -4,-280 923,-280 923,4 -4,4"/>
<text text-anchor="start" x="438.5091" y="-42.4" font-family="sans-serif" font-weight="bold" font-size="14.00" fill="#000000">Legend</text>
<polygon fill="#ffffb3" stroke="transparent" points="225.5,-10 225.5,-30 245.5,-30 245.5,-10 225.5,-10"/>
<text text-anchor="start" x="249.129" y="-15.4" font-family="sans-serif" font-size="14.00" fill="#000000"> &#160;Declarations</text>
<polygon fill="#8dd3c7" stroke="transparent" points="338.5,-10 338.5,-30 358.5,-30 358.5,-10 338.5,-10"/>
<text text-anchor="start" x="362.2251" y="-15.4" font-family="sans-serif" font-size="14.00" fill="#000000"> &#160;Module</text>
<polygon fill="#80b1d3" stroke="transparent" points="424.5,-10 424.5,-30 444.5,-30 444.5,-10 424.5,-10"/>
<text text-anchor="start" x="448.2812" y="-15.4" font-family="sans-serif" font-size="14.00" fill="#000000"> &#160;Bootstrap</text>
<polygon fill="#fdb462" stroke="transparent" points="521.5,-10 521.5,-30 541.5,-30 541.5,-10 521.5,-10"/>
<text text-anchor="start" x="545.1732" y="-15.4" font-family="sans-serif" font-size="14.00" fill="#000000"> &#160;Providers</text>
<polygon fill="#fb8072" stroke="transparent" points="617.5,-10 617.5,-30 637.5,-30 637.5,-10 617.5,-10"/>
<text text-anchor="start" x="641.2258" y="-15.4" font-family="sans-serif" font-size="14.00" fill="#000000"> &#160;Exports</text>
<g id="clust1" class="cluster">
<title>cluster_PacienteMedicoModule</title>
<polygon fill="none" stroke="#000000" stroke-dasharray="1,5" points="8,-70 8,-268 911,-268 911,-70 8,-70"/>
</g>
<g id="clust2" class="cluster">
<title>cluster_PacienteMedicoModule_declarations</title>
<polygon fill="none" stroke="#000000" points="715,-78 715,-130 903,-130 903,-78 715,-78"/>
</g>
<g id="clust4" class="cluster">
<title>cluster_PacienteMedicoModule_imports</title>
<polygon fill="none" stroke="#000000" points="16,-78 16,-130 707,-130 707,-78 16,-78"/>
</g>
<g id="clust5" class="cluster">
<title>cluster_PacienteMedicoModule_exports</title>
<polygon fill="none" stroke="#000000" points="333,-208 333,-260 525,-260 525,-208 333,-208"/>
</g>
<!-- PacienteMedicoComponent -->
<g id="node1" class="node">
<title>PacienteMedicoComponent</title>
<polygon fill="#ffffb3" stroke="#000000" points="894.5197,-122 723.4803,-122 723.4803,-86 894.5197,-86 894.5197,-122"/>
<text text-anchor="middle" x="809" y="-99.8" font-family="Times,serif" font-size="14.00" fill="#000000">PacienteMedicoComponent</text>
</g>
<!-- PacienteMedicoModule -->
<g id="node2" class="node">
<title>PacienteMedicoModule</title>
<polygon fill="#8dd3c7" stroke="#000000" points="503.7366,-187 500.7366,-191 479.7366,-191 476.7366,-187 354.2634,-187 354.2634,-151 503.7366,-151 503.7366,-187"/>
<text text-anchor="middle" x="429" y="-164.8" font-family="Times,serif" font-size="14.00" fill="#000000">PacienteMedicoModule</text>
</g>
<!-- PacienteMedicoComponent&#45;&gt;PacienteMedicoModule -->
<g id="edge1" class="edge">
<title>PacienteMedicoComponent&#45;&gt;PacienteMedicoModule</title>
<path fill="none" stroke="#000000" d="M809,-122.2843C809,-143.3211 809,-175 809,-175 809,-175 514.0758,-175 514.0758,-175"/>
<polygon fill="#000000" stroke="#000000" points="514.0758,-171.5001 504.0758,-175 514.0757,-178.5001 514.0758,-171.5001"/>
</g>
<!-- PacienteMedicoComponent  -->
<g id="node7" class="node">
<title>PacienteMedicoComponent </title>
<polygon fill="#fb8072" stroke="#000000" points="516.519,-252 341.481,-252 341.481,-216 516.519,-216 516.519,-252"/>
<text text-anchor="middle" x="429" y="-229.8" font-family="Times,serif" font-size="14.00" fill="#000000">PacienteMedicoComponent </text>
</g>
<!-- PacienteMedicoModule&#45;&gt;PacienteMedicoComponent  -->
<g id="edge6" class="edge">
<title>PacienteMedicoModule&#45;&gt;PacienteMedicoComponent </title>
<path fill="none" stroke="#000000" stroke-dasharray="5,2" d="M429,-187.1061C429,-187.1061 429,-205.991 429,-205.991"/>
<polygon fill="#000000" stroke="#000000" points="425.5001,-205.9909 429,-215.991 432.5001,-205.991 425.5001,-205.9909"/>
</g>
<!-- IntercambialidadeDialogModule -->
<g id="node3" class="node">
<title>IntercambialidadeDialogModule</title>
<polygon fill="#8dd3c7" stroke="#000000" points="699.2142,-122 696.2142,-126 675.2142,-126 672.2142,-122 500.7858,-122 500.7858,-86 699.2142,-86 699.2142,-122"/>
<text text-anchor="middle" x="600" y="-99.8" font-family="Times,serif" font-size="14.00" fill="#000000">IntercambialidadeDialogModule</text>
</g>
<!-- IntercambialidadeDialogModule&#45;&gt;PacienteMedicoModule -->
<g id="edge2" class="edge">
<title>IntercambialidadeDialogModule&#45;&gt;PacienteMedicoModule</title>
<path fill="none" stroke="#000000" d="M510.1889,-122.0225C510.1889,-139.3734 510.1889,-163 510.1889,-163 510.1889,-163 509.5518,-163 509.5518,-163"/>
<polygon fill="#000000" stroke="#000000" points="513.8182,-159.5002 503.8181,-163 513.818,-166.5002 513.8182,-159.5002"/>
</g>
<!-- MaterialModule -->
<g id="node4" class="node">
<title>MaterialModule</title>
<polygon fill="#8dd3c7" stroke="#000000" points="482.4706,-122 479.4706,-126 458.4706,-126 455.4706,-122 375.5294,-122 375.5294,-86 482.4706,-86 482.4706,-122"/>
<text text-anchor="middle" x="429" y="-99.8" font-family="Times,serif" font-size="14.00" fill="#000000">MaterialModule</text>
</g>
<!-- MaterialModule&#45;&gt;PacienteMedicoModule -->
<g id="edge3" class="edge">
<title>MaterialModule&#45;&gt;PacienteMedicoModule</title>
<path fill="none" stroke="#000000" d="M429,-122.1061C429,-122.1061 429,-140.991 429,-140.991"/>
<polygon fill="#000000" stroke="#000000" points="425.5001,-140.9909 429,-150.991 432.5001,-140.991 425.5001,-140.9909"/>
</g>
<!-- RastreabilidadeDialogModule -->
<g id="node5" class="node">
<title>RastreabilidadeDialogModule</title>
<polygon fill="#8dd3c7" stroke="#000000" points="357.2296,-122 354.2296,-126 333.2296,-126 330.2296,-122 172.7704,-122 172.7704,-86 357.2296,-86 357.2296,-122"/>
<text text-anchor="middle" x="265" y="-99.8" font-family="Times,serif" font-size="14.00" fill="#000000">RastreabilidadeDialogModule</text>
</g>
<!-- RastreabilidadeDialogModule&#45;&gt;PacienteMedicoModule -->
<g id="edge4" class="edge">
<title>RastreabilidadeDialogModule&#45;&gt;PacienteMedicoModule</title>
<path fill="none" stroke="#000000" d="M347.8112,-122.2843C347.8112,-143.3211 347.8112,-175 347.8112,-175 347.8112,-175 348.4482,-175 348.4482,-175"/>
<polygon fill="#000000" stroke="#000000" points="344.182,-178.5002 354.1819,-175 344.1818,-171.5002 344.182,-178.5002"/>
</g>
<!-- ResponsavelModule -->
<g id="node6" class="node">
<title>ResponsavelModule</title>
<polygon fill="#8dd3c7" stroke="#000000" points="154.3104,-122 151.3104,-126 130.3104,-126 127.3104,-122 23.6896,-122 23.6896,-86 154.3104,-86 154.3104,-122"/>
<text text-anchor="middle" x="89" y="-99.8" font-family="Times,serif" font-size="14.00" fill="#000000">ResponsavelModule</text>
</g>
<!-- ResponsavelModule&#45;&gt;PacienteMedicoModule -->
<g id="edge5" class="edge">
<title>ResponsavelModule&#45;&gt;PacienteMedicoModule</title>
<path fill="none" stroke="#000000" d="M89,-122.0225C89,-139.3734 89,-163 89,-163 89,-163 343.9647,-163 343.9647,-163"/>
<polygon fill="#000000" stroke="#000000" points="343.9647,-166.5001 353.9647,-163 343.9646,-159.5001 343.9647,-166.5001"/>
</g>
</g>
</svg>
