<?xml version="1.0" encoding="UTF-8" standalone="no"?>
<!DOCTYPE svg PUBLIC "-//W3C//DTD SVG 1.1//EN"
 "http://www.w3.org/Graphics/SVG/1.1/DTD/svg11.dtd">
<!-- Generated by graphviz version 2.40.1 (20161225.0304)
 -->
<!-- Title: dependencies Pages: 1 -->
<svg width="1238pt" height="211pt"
 viewBox="0.00 0.00 1238.00 211.00" xmlns="http://www.w3.org/2000/svg" xmlns:xlink="http://www.w3.org/1999/xlink">
<g id="graph0" class="graph" transform="scale(1 1) rotate(0) translate(4 207)">
<title>dependencies</title>
<polygon fill="#ffffff" stroke="transparent" points="-4,4 -4,-207 1234,-207 1234,4 -4,4"/>
<text text-anchor="start" x="594.0091" y="-42.4" font-family="sans-serif" font-weight="bold" font-size="14.00" fill="#000000">Legend</text>
<polygon fill="#ffffb3" stroke="transparent" points="381,-10 381,-30 401,-30 401,-10 381,-10"/>
<text text-anchor="start" x="404.629" y="-15.4" font-family="sans-serif" font-size="14.00" fill="#000000"> &#160;Declarations</text>
<polygon fill="#8dd3c7" stroke="transparent" points="494,-10 494,-30 514,-30 514,-10 494,-10"/>
<text text-anchor="start" x="517.7251" y="-15.4" font-family="sans-serif" font-size="14.00" fill="#000000"> &#160;Module</text>
<polygon fill="#80b1d3" stroke="transparent" points="580,-10 580,-30 600,-30 600,-10 580,-10"/>
<text text-anchor="start" x="603.7812" y="-15.4" font-family="sans-serif" font-size="14.00" fill="#000000"> &#160;Bootstrap</text>
<polygon fill="#fdb462" stroke="transparent" points="677,-10 677,-30 697,-30 697,-10 677,-10"/>
<text text-anchor="start" x="700.6732" y="-15.4" font-family="sans-serif" font-size="14.00" fill="#000000"> &#160;Providers</text>
<polygon fill="#fb8072" stroke="transparent" points="773,-10 773,-30 793,-30 793,-10 773,-10"/>
<text text-anchor="start" x="796.7258" y="-15.4" font-family="sans-serif" font-size="14.00" fill="#000000"> &#160;Exports</text>
<g id="clust1" class="cluster">
<title>cluster_DispensacaoModule</title>
<polygon fill="none" stroke="#000000" stroke-dasharray="1,5" points="8,-70 8,-195 1222,-195 1222,-70 8,-70"/>
</g>
<g id="clust2" class="cluster">
<title>cluster_DispensacaoModule_declarations</title>
<polygon fill="none" stroke="#000000" points="1046,-78 1046,-130 1214,-130 1214,-78 1046,-78"/>
</g>
<g id="clust4" class="cluster">
<title>cluster_DispensacaoModule_imports</title>
<polygon fill="none" stroke="#000000" points="16,-78 16,-130 1038,-130 1038,-78 16,-78"/>
</g>
<!-- DispensacaoComponent -->
<g id="node1" class="node">
<title>DispensacaoComponent</title>
<polygon fill="#ffffb3" stroke="#000000" points="1206.0772,-122 1053.9228,-122 1053.9228,-86 1206.0772,-86 1206.0772,-122"/>
<text text-anchor="middle" x="1130" y="-99.8" font-family="Times,serif" font-size="14.00" fill="#000000">DispensacaoComponent</text>
</g>
<!-- DispensacaoModule -->
<g id="node2" class="node">
<title>DispensacaoModule</title>
<polygon fill="#8dd3c7" stroke="#000000" points="593.2949,-187 590.2949,-191 569.2949,-191 566.2949,-187 462.7051,-187 462.7051,-151 593.2949,-151 593.2949,-187"/>
<text text-anchor="middle" x="528" y="-164.8" font-family="Times,serif" font-size="14.00" fill="#000000">DispensacaoModule</text>
</g>
<!-- DispensacaoComponent&#45;&gt;DispensacaoModule -->
<g id="edge1" class="edge">
<title>DispensacaoComponent&#45;&gt;DispensacaoModule</title>
<path fill="none" stroke="#000000" d="M1130,-122.2921C1130,-144.2057 1130,-178 1130,-178 1130,-178 603.2833,-178 603.2833,-178"/>
<polygon fill="#000000" stroke="#000000" points="603.2833,-174.5001 593.2833,-178 603.2832,-181.5001 603.2833,-174.5001"/>
</g>
<!-- DispensacaoFormModule -->
<g id="node3" class="node">
<title>DispensacaoFormModule</title>
<polygon fill="#8dd3c7" stroke="#000000" points="1030.1288,-122 1027.1288,-126 1006.1288,-126 1003.1288,-122 869.8712,-122 869.8712,-86 1030.1288,-86 1030.1288,-122"/>
<text text-anchor="middle" x="950" y="-99.8" font-family="Times,serif" font-size="14.00" fill="#000000">DispensacaoFormModule</text>
</g>
<!-- DispensacaoFormModule&#45;&gt;DispensacaoModule -->
<g id="edge2" class="edge">
<title>DispensacaoFormModule&#45;&gt;DispensacaoModule</title>
<path fill="none" stroke="#000000" d="M950,-122.1061C950,-141.3391 950,-169 950,-169 950,-169 603.4745,-169 603.4745,-169"/>
<polygon fill="#000000" stroke="#000000" points="603.4745,-165.5001 593.4745,-169 603.4744,-172.5001 603.4745,-165.5001"/>
</g>
<!-- DispensacaoRoutingModule -->
<g id="node4" class="node">
<title>DispensacaoRoutingModule</title>
<polygon fill="#8dd3c7" stroke="#000000" points="851.9129,-122 848.9129,-126 827.9129,-126 824.9129,-122 676.0871,-122 676.0871,-86 851.9129,-86 851.9129,-122"/>
<text text-anchor="middle" x="764" y="-99.8" font-family="Times,serif" font-size="14.00" fill="#000000">DispensacaoRoutingModule</text>
</g>
<!-- DispensacaoRoutingModule&#45;&gt;DispensacaoModule -->
<g id="edge3" class="edge">
<title>DispensacaoRoutingModule&#45;&gt;DispensacaoModule</title>
<path fill="none" stroke="#000000" d="M764,-122.027C764,-138.3976 764,-160 764,-160 764,-160 603.4258,-160 603.4258,-160"/>
<polygon fill="#000000" stroke="#000000" points="603.4258,-156.5001 593.4258,-160 603.4257,-163.5001 603.4258,-156.5001"/>
</g>
<!-- ElementListModule -->
<g id="node5" class="node">
<title>ElementListModule</title>
<polygon fill="#8dd3c7" stroke="#000000" points="657.9818,-122 654.9818,-126 633.9818,-126 630.9818,-122 530.0182,-122 530.0182,-86 657.9818,-86 657.9818,-122"/>
<text text-anchor="middle" x="594" y="-99.8" font-family="Times,serif" font-size="14.00" fill="#000000">ElementListModule</text>
</g>
<!-- ElementListModule&#45;&gt;DispensacaoModule -->
<g id="edge4" class="edge">
<title>ElementListModule&#45;&gt;DispensacaoModule</title>
<path fill="none" stroke="#000000" d="M561.5782,-122.1061C561.5782,-122.1061 561.5782,-140.991 561.5782,-140.991"/>
<polygon fill="#000000" stroke="#000000" points="558.0783,-140.9909 561.5782,-150.991 565.0783,-140.991 558.0783,-140.9909"/>
</g>
<!-- LayoutModule -->
<g id="node6" class="node">
<title>LayoutModule</title>
<polygon fill="#8dd3c7" stroke="#000000" points="511.7078,-122 508.7078,-126 487.7078,-126 484.7078,-122 412.2922,-122 412.2922,-86 511.7078,-86 511.7078,-122"/>
<text text-anchor="middle" x="462" y="-99.8" font-family="Times,serif" font-size="14.00" fill="#000000">LayoutModule</text>
</g>
<!-- LayoutModule&#45;&gt;DispensacaoModule -->
<g id="edge5" class="edge">
<title>LayoutModule&#45;&gt;DispensacaoModule</title>
<path fill="none" stroke="#000000" d="M487.2283,-122.1061C487.2283,-122.1061 487.2283,-140.991 487.2283,-140.991"/>
<polygon fill="#000000" stroke="#000000" points="483.7283,-140.9909 487.2283,-150.991 490.7283,-140.991 483.7283,-140.9909"/>
</g>
<!-- MaterialModule -->
<g id="node7" class="node">
<title>MaterialModule</title>
<polygon fill="#8dd3c7" stroke="#000000" points="394.4706,-122 391.4706,-126 370.4706,-126 367.4706,-122 287.5294,-122 287.5294,-86 394.4706,-86 394.4706,-122"/>
<text text-anchor="middle" x="341" y="-99.8" font-family="Times,serif" font-size="14.00" fill="#000000">MaterialModule</text>
</g>
<!-- MaterialModule&#45;&gt;DispensacaoModule -->
<g id="edge6" class="edge">
<title>MaterialModule&#45;&gt;DispensacaoModule</title>
<path fill="none" stroke="#000000" d="M341,-122.027C341,-138.3976 341,-160 341,-160 341,-160 452.5965,-160 452.5965,-160"/>
<polygon fill="#000000" stroke="#000000" points="452.5965,-163.5001 462.5965,-160 452.5964,-156.5001 452.5965,-163.5001"/>
</g>
<!-- MedicamentoModule -->
<g id="node8" class="node">
<title>MedicamentoModule</title>
<polygon fill="#8dd3c7" stroke="#000000" points="269.0254,-122 266.0254,-126 245.0254,-126 242.0254,-122 132.9746,-122 132.9746,-86 269.0254,-86 269.0254,-122"/>
<text text-anchor="middle" x="201" y="-99.8" font-family="Times,serif" font-size="14.00" fill="#000000">MedicamentoModule</text>
</g>
<!-- MedicamentoModule&#45;&gt;DispensacaoModule -->
<g id="edge7" class="edge">
<title>MedicamentoModule&#45;&gt;DispensacaoModule</title>
<path fill="none" stroke="#000000" d="M201,-122.1061C201,-141.3391 201,-169 201,-169 201,-169 452.6126,-169 452.6126,-169"/>
<polygon fill="#000000" stroke="#000000" points="452.6126,-172.5001 462.6126,-169 452.6126,-165.5001 452.6126,-172.5001"/>
</g>
<!-- SheetModule -->
<g id="node9" class="node">
<title>SheetModule</title>
<polygon fill="#8dd3c7" stroke="#000000" points="114.1529,-122 111.1529,-126 90.1529,-126 87.1529,-122 23.8471,-122 23.8471,-86 114.1529,-86 114.1529,-122"/>
<text text-anchor="middle" x="69" y="-99.8" font-family="Times,serif" font-size="14.00" fill="#000000">SheetModule</text>
</g>
<!-- SheetModule&#45;&gt;DispensacaoModule -->
<g id="edge8" class="edge">
<title>SheetModule&#45;&gt;DispensacaoModule</title>
<path fill="none" stroke="#000000" d="M69,-122.2921C69,-144.2057 69,-178 69,-178 69,-178 452.7239,-178 452.7239,-178"/>
<polygon fill="#000000" stroke="#000000" points="452.724,-181.5001 462.7239,-178 452.7239,-174.5001 452.724,-181.5001"/>
</g>
</g>
</svg>
