<?xml version="1.0" encoding="UTF-8" standalone="no"?>
<!DOCTYPE svg PUBLIC "-//W3C//DTD SVG 1.1//EN"
 "http://www.w3.org/Graphics/SVG/1.1/DTD/svg11.dtd">
<!-- Generated by graphviz version 2.40.1 (20161225.0304)
 -->
<!-- Title: dependencies Pages: 1 -->
<svg width="504pt" height="284pt"
 viewBox="0.00 0.00 504.00 284.00" xmlns="http://www.w3.org/2000/svg" xmlns:xlink="http://www.w3.org/1999/xlink">
<g id="graph0" class="graph" transform="scale(1 1) rotate(0) translate(4 280)">
<title>dependencies</title>
<polygon fill="#ffffff" stroke="transparent" points="-4,4 -4,-280 500,-280 500,4 -4,4"/>
<text text-anchor="start" x="227.0091" y="-42.4" font-family="sans-serif" font-weight="bold" font-size="14.00" fill="#000000">Legend</text>
<polygon fill="#ffffb3" stroke="transparent" points="14,-10 14,-30 34,-30 34,-10 14,-10"/>
<text text-anchor="start" x="37.629" y="-15.4" font-family="sans-serif" font-size="14.00" fill="#000000"> &#160;Declarations</text>
<polygon fill="#8dd3c7" stroke="transparent" points="127,-10 127,-30 147,-30 147,-10 127,-10"/>
<text text-anchor="start" x="150.7251" y="-15.4" font-family="sans-serif" font-size="14.00" fill="#000000"> &#160;Module</text>
<polygon fill="#80b1d3" stroke="transparent" points="213,-10 213,-30 233,-30 233,-10 213,-10"/>
<text text-anchor="start" x="236.7812" y="-15.4" font-family="sans-serif" font-size="14.00" fill="#000000"> &#160;Bootstrap</text>
<polygon fill="#fdb462" stroke="transparent" points="310,-10 310,-30 330,-30 330,-10 310,-10"/>
<text text-anchor="start" x="333.6732" y="-15.4" font-family="sans-serif" font-size="14.00" fill="#000000"> &#160;Providers</text>
<polygon fill="#fb8072" stroke="transparent" points="406,-10 406,-30 426,-30 426,-10 406,-10"/>
<text text-anchor="start" x="429.7258" y="-15.4" font-family="sans-serif" font-size="14.00" fill="#000000"> &#160;Exports</text>
<g id="clust1" class="cluster">
<title>cluster_ToolbarHeaderModule</title>
<polygon fill="none" stroke="#000000" stroke-dasharray="1,5" points="84,-70 84,-268 412,-268 412,-70 84,-70"/>
</g>
<g id="clust2" class="cluster">
<title>cluster_ToolbarHeaderModule_declarations</title>
<polygon fill="none" stroke="#000000" points="222,-78 222,-130 404,-130 404,-78 222,-78"/>
</g>
<g id="clust4" class="cluster">
<title>cluster_ToolbarHeaderModule_imports</title>
<polygon fill="none" stroke="#000000" points="92,-78 92,-130 214,-130 214,-78 92,-78"/>
</g>
<g id="clust5" class="cluster">
<title>cluster_ToolbarHeaderModule_exports</title>
<polygon fill="none" stroke="#000000" points="155,-208 155,-260 341,-260 341,-208 155,-208"/>
</g>
<!-- ToolbarHeaderComponent -->
<g id="node1" class="node">
<title>ToolbarHeaderComponent</title>
<polygon fill="#ffffb3" stroke="#000000" points="396.0618,-122 229.9382,-122 229.9382,-86 396.0618,-86 396.0618,-122"/>
<text text-anchor="middle" x="313" y="-99.8" font-family="Times,serif" font-size="14.00" fill="#000000">ToolbarHeaderComponent</text>
</g>
<!-- ToolbarHeaderModule -->
<g id="node2" class="node">
<title>ToolbarHeaderModule</title>
<polygon fill="#8dd3c7" stroke="#000000" points="320.2795,-187 317.2795,-191 296.2795,-191 293.2795,-187 175.7205,-187 175.7205,-151 320.2795,-151 320.2795,-187"/>
<text text-anchor="middle" x="248" y="-164.8" font-family="Times,serif" font-size="14.00" fill="#000000">ToolbarHeaderModule</text>
</g>
<!-- ToolbarHeaderComponent&#45;&gt;ToolbarHeaderModule -->
<g id="edge1" class="edge">
<title>ToolbarHeaderComponent&#45;&gt;ToolbarHeaderModule</title>
<path fill="none" stroke="#000000" d="M275.0544,-122.1061C275.0544,-122.1061 275.0544,-140.991 275.0544,-140.991"/>
<polygon fill="#000000" stroke="#000000" points="271.5544,-140.9909 275.0544,-150.991 278.5544,-140.991 271.5544,-140.9909"/>
</g>
<!-- ToolbarHeaderComponent  -->
<g id="node4" class="node">
<title>ToolbarHeaderComponent </title>
<polygon fill="#fb8072" stroke="#000000" points="332.5624,-252 163.4376,-252 163.4376,-216 332.5624,-216 332.5624,-252"/>
<text text-anchor="middle" x="248" y="-229.8" font-family="Times,serif" font-size="14.00" fill="#000000">ToolbarHeaderComponent </text>
</g>
<!-- ToolbarHeaderModule&#45;&gt;ToolbarHeaderComponent  -->
<g id="edge3" class="edge">
<title>ToolbarHeaderModule&#45;&gt;ToolbarHeaderComponent </title>
<path fill="none" stroke="#000000" stroke-dasharray="5,2" d="M248,-187.1061C248,-187.1061 248,-205.991 248,-205.991"/>
<polygon fill="#000000" stroke="#000000" points="244.5001,-205.9909 248,-215.991 251.5001,-205.991 244.5001,-205.9909"/>
</g>
<!-- MaterialModule -->
<g id="node3" class="node">
<title>MaterialModule</title>
<polygon fill="#8dd3c7" stroke="#000000" points="206.4706,-122 203.4706,-126 182.4706,-126 179.4706,-122 99.5294,-122 99.5294,-86 206.4706,-86 206.4706,-122"/>
<text text-anchor="middle" x="153" y="-99.8" font-family="Times,serif" font-size="14.00" fill="#000000">MaterialModule</text>
</g>
<!-- MaterialModule&#45;&gt;ToolbarHeaderModule -->
<g id="edge2" class="edge">
<title>MaterialModule&#45;&gt;ToolbarHeaderModule</title>
<path fill="none" stroke="#000000" d="M191.1728,-122.1061C191.1728,-122.1061 191.1728,-140.991 191.1728,-140.991"/>
<polygon fill="#000000" stroke="#000000" points="187.6729,-140.9909 191.1728,-150.991 194.6729,-140.991 187.6729,-140.9909"/>
</g>
</g>
</svg>
