<?xml version="1.0" encoding="UTF-8" standalone="no"?>
<!DOCTYPE svg PUBLIC "-//W3C//DTD SVG 1.1//EN"
 "http://www.w3.org/Graphics/SVG/1.1/DTD/svg11.dtd">
<!-- Generated by graphviz version 2.40.1 (20161225.0304)
 -->
<!-- Title: dependencies Pages: 1 -->
<svg width="504pt" height="284pt"
 viewBox="0.00 0.00 504.00 284.00" xmlns="http://www.w3.org/2000/svg" xmlns:xlink="http://www.w3.org/1999/xlink">
<g id="graph0" class="graph" transform="scale(1 1) rotate(0) translate(4 280)">
<title>dependencies</title>
<polygon fill="#ffffff" stroke="transparent" points="-4,4 -4,-280 500,-280 500,4 -4,4"/>
<text text-anchor="start" x="227.0091" y="-42.4" font-family="sans-serif" font-weight="bold" font-size="14.00" fill="#000000">Legend</text>
<polygon fill="#ffffb3" stroke="transparent" points="14,-10 14,-30 34,-30 34,-10 14,-10"/>
<text text-anchor="start" x="37.629" y="-15.4" font-family="sans-serif" font-size="14.00" fill="#000000"> &#160;Declarations</text>
<polygon fill="#8dd3c7" stroke="transparent" points="127,-10 127,-30 147,-30 147,-10 127,-10"/>
<text text-anchor="start" x="150.7251" y="-15.4" font-family="sans-serif" font-size="14.00" fill="#000000"> &#160;Module</text>
<polygon fill="#80b1d3" stroke="transparent" points="213,-10 213,-30 233,-30 233,-10 213,-10"/>
<text text-anchor="start" x="236.7812" y="-15.4" font-family="sans-serif" font-size="14.00" fill="#000000"> &#160;Bootstrap</text>
<polygon fill="#fdb462" stroke="transparent" points="310,-10 310,-30 330,-30 330,-10 310,-10"/>
<text text-anchor="start" x="333.6732" y="-15.4" font-family="sans-serif" font-size="14.00" fill="#000000"> &#160;Providers</text>
<polygon fill="#fb8072" stroke="transparent" points="406,-10 406,-30 426,-30 426,-10 406,-10"/>
<text text-anchor="start" x="429.7258" y="-15.4" font-family="sans-serif" font-size="14.00" fill="#000000"> &#160;Exports</text>
<g id="clust1" class="cluster">
<title>cluster_ResponsavelModule</title>
<polygon fill="none" stroke="#000000" stroke-dasharray="1,5" points="91,-70 91,-268 405,-268 405,-70 91,-70"/>
</g>
<g id="clust2" class="cluster">
<title>cluster_ResponsavelModule_declarations</title>
<polygon fill="none" stroke="#000000" points="229,-78 229,-130 397,-130 397,-78 229,-78"/>
</g>
<g id="clust4" class="cluster">
<title>cluster_ResponsavelModule_imports</title>
<polygon fill="none" stroke="#000000" points="99,-78 99,-130 221,-130 221,-78 99,-78"/>
</g>
<g id="clust5" class="cluster">
<title>cluster_ResponsavelModule_exports</title>
<polygon fill="none" stroke="#000000" points="162,-208 162,-260 334,-260 334,-208 162,-208"/>
</g>
<!-- ResponsavelComponent -->
<g id="node1" class="node">
<title>ResponsavelComponent</title>
<polygon fill="#ffffb3" stroke="#000000" points="389.0926,-122 236.9074,-122 236.9074,-86 389.0926,-86 389.0926,-122"/>
<text text-anchor="middle" x="313" y="-99.8" font-family="Times,serif" font-size="14.00" fill="#000000">ResponsavelComponent</text>
</g>
<!-- ResponsavelModule -->
<g id="node2" class="node">
<title>ResponsavelModule</title>
<polygon fill="#8dd3c7" stroke="#000000" points="313.3104,-187 310.3104,-191 289.3104,-191 286.3104,-187 182.6896,-187 182.6896,-151 313.3104,-151 313.3104,-187"/>
<text text-anchor="middle" x="248" y="-164.8" font-family="Times,serif" font-size="14.00" fill="#000000">ResponsavelModule</text>
</g>
<!-- ResponsavelComponent&#45;&gt;ResponsavelModule -->
<g id="edge1" class="edge">
<title>ResponsavelComponent&#45;&gt;ResponsavelModule</title>
<path fill="none" stroke="#000000" d="M275.0544,-122.1061C275.0544,-122.1061 275.0544,-140.991 275.0544,-140.991"/>
<polygon fill="#000000" stroke="#000000" points="271.5544,-140.9909 275.0544,-150.991 278.5544,-140.991 271.5544,-140.9909"/>
</g>
<!-- ResponsavelComponent  -->
<g id="node4" class="node">
<title>ResponsavelComponent </title>
<polygon fill="#fb8072" stroke="#000000" points="325.5931,-252 170.4069,-252 170.4069,-216 325.5931,-216 325.5931,-252"/>
<text text-anchor="middle" x="248" y="-229.8" font-family="Times,serif" font-size="14.00" fill="#000000">ResponsavelComponent </text>
</g>
<!-- ResponsavelModule&#45;&gt;ResponsavelComponent  -->
<g id="edge3" class="edge">
<title>ResponsavelModule&#45;&gt;ResponsavelComponent </title>
<path fill="none" stroke="#000000" stroke-dasharray="5,2" d="M248,-187.1061C248,-187.1061 248,-205.991 248,-205.991"/>
<polygon fill="#000000" stroke="#000000" points="244.5001,-205.9909 248,-215.991 251.5001,-205.991 244.5001,-205.9909"/>
</g>
<!-- MaterialModule -->
<g id="node3" class="node">
<title>MaterialModule</title>
<polygon fill="#8dd3c7" stroke="#000000" points="213.4706,-122 210.4706,-126 189.4706,-126 186.4706,-122 106.5294,-122 106.5294,-86 213.4706,-86 213.4706,-122"/>
<text text-anchor="middle" x="160" y="-99.8" font-family="Times,serif" font-size="14.00" fill="#000000">MaterialModule</text>
</g>
<!-- MaterialModule&#45;&gt;ResponsavelModule -->
<g id="edge2" class="edge">
<title>MaterialModule&#45;&gt;ResponsavelModule</title>
<path fill="none" stroke="#000000" d="M198.1651,-122.1061C198.1651,-122.1061 198.1651,-140.991 198.1651,-140.991"/>
<polygon fill="#000000" stroke="#000000" points="194.6652,-140.9909 198.1651,-150.991 201.6652,-140.991 194.6652,-140.9909"/>
</g>
</g>
</svg>
