<?xml version="1.0" encoding="UTF-8" standalone="no"?>
<!DOCTYPE svg PUBLIC "-//W3C//DTD SVG 1.1//EN"
 "http://www.w3.org/Graphics/SVG/1.1/DTD/svg11.dtd">
<!-- Generated by graphviz version 2.40.1 (20161225.0304)
 -->
<!-- Title: dependencies Pages: 1 -->
<svg width="967pt" height="284pt"
 viewBox="0.00 0.00 967.00 284.00" xmlns="http://www.w3.org/2000/svg" xmlns:xlink="http://www.w3.org/1999/xlink">
<g id="graph0" class="graph" transform="scale(1 1) rotate(0) translate(4 280)">
<title>dependencies</title>
<polygon fill="#ffffff" stroke="transparent" points="-4,4 -4,-280 963,-280 963,4 -4,4"/>
<text text-anchor="start" x="458.5091" y="-42.4" font-family="sans-serif" font-weight="bold" font-size="14.00" fill="#000000">Legend</text>
<polygon fill="#ffffb3" stroke="transparent" points="245.5,-10 245.5,-30 265.5,-30 265.5,-10 245.5,-10"/>
<text text-anchor="start" x="269.129" y="-15.4" font-family="sans-serif" font-size="14.00" fill="#000000"> &#160;Declarations</text>
<polygon fill="#8dd3c7" stroke="transparent" points="358.5,-10 358.5,-30 378.5,-30 378.5,-10 358.5,-10"/>
<text text-anchor="start" x="382.2251" y="-15.4" font-family="sans-serif" font-size="14.00" fill="#000000"> &#160;Module</text>
<polygon fill="#80b1d3" stroke="transparent" points="444.5,-10 444.5,-30 464.5,-30 464.5,-10 444.5,-10"/>
<text text-anchor="start" x="468.2812" y="-15.4" font-family="sans-serif" font-size="14.00" fill="#000000"> &#160;Bootstrap</text>
<polygon fill="#fdb462" stroke="transparent" points="541.5,-10 541.5,-30 561.5,-30 561.5,-10 541.5,-10"/>
<text text-anchor="start" x="565.1732" y="-15.4" font-family="sans-serif" font-size="14.00" fill="#000000"> &#160;Providers</text>
<polygon fill="#fb8072" stroke="transparent" points="637.5,-10 637.5,-30 657.5,-30 657.5,-10 637.5,-10"/>
<text text-anchor="start" x="661.2258" y="-15.4" font-family="sans-serif" font-size="14.00" fill="#000000"> &#160;Exports</text>
<g id="clust1" class="cluster">
<title>cluster_IntercambialidadeDialogModule</title>
<polygon fill="none" stroke="#000000" stroke-dasharray="1,5" points="8,-70 8,-268 951,-268 951,-70 8,-70"/>
</g>
<g id="clust2" class="cluster">
<title>cluster_IntercambialidadeDialogModule_declarations</title>
<polygon fill="none" stroke="#000000" points="707,-78 707,-130 943,-130 943,-78 707,-78"/>
</g>
<g id="clust4" class="cluster">
<title>cluster_IntercambialidadeDialogModule_imports</title>
<polygon fill="none" stroke="#000000" points="204,-78 204,-130 699,-130 699,-78 204,-78"/>
</g>
<g id="clust5" class="cluster">
<title>cluster_IntercambialidadeDialogModule_exports</title>
<polygon fill="none" stroke="#000000" points="314,-208 314,-260 554,-260 554,-208 314,-208"/>
</g>
<g id="clust7" class="cluster">
<title>cluster_IntercambialidadeDialogModule_providers</title>
<polygon fill="none" stroke="#000000" points="16,-78 16,-130 196,-130 196,-78 16,-78"/>
</g>
<!-- IntercambialidadeDialogComponent -->
<g id="node1" class="node">
<title>IntercambialidadeDialogComponent</title>
<polygon fill="#ffffb3" stroke="#000000" points="935.4972,-122 714.5028,-122 714.5028,-86 935.4972,-86 935.4972,-122"/>
<text text-anchor="middle" x="825" y="-99.8" font-family="Times,serif" font-size="14.00" fill="#000000">IntercambialidadeDialogComponent</text>
</g>
<!-- IntercambialidadeDialogModule -->
<g id="node2" class="node">
<title>IntercambialidadeDialogModule</title>
<polygon fill="#8dd3c7" stroke="#000000" points="533.2142,-187 530.2142,-191 509.2142,-191 506.2142,-187 334.7858,-187 334.7858,-151 533.2142,-151 533.2142,-187"/>
<text text-anchor="middle" x="434" y="-164.8" font-family="Times,serif" font-size="14.00" fill="#000000">IntercambialidadeDialogModule</text>
</g>
<!-- IntercambialidadeDialogComponent&#45;&gt;IntercambialidadeDialogModule -->
<g id="edge1" class="edge">
<title>IntercambialidadeDialogComponent&#45;&gt;IntercambialidadeDialogModule</title>
<path fill="none" stroke="#000000" d="M825,-122.2843C825,-143.3211 825,-175 825,-175 825,-175 543.4243,-175 543.4243,-175"/>
<polygon fill="#000000" stroke="#000000" points="543.4243,-171.5001 533.4243,-175 543.4242,-178.5001 543.4243,-171.5001"/>
</g>
<!-- IntercambialidadeDialogComponent  -->
<g id="node7" class="node">
<title>IntercambialidadeDialogComponent </title>
<polygon fill="#fb8072" stroke="#000000" points="545.9966,-252 322.0034,-252 322.0034,-216 545.9966,-216 545.9966,-252"/>
<text text-anchor="middle" x="434" y="-229.8" font-family="Times,serif" font-size="14.00" fill="#000000">IntercambialidadeDialogComponent </text>
</g>
<!-- IntercambialidadeDialogModule&#45;&gt;IntercambialidadeDialogComponent  -->
<g id="edge6" class="edge">
<title>IntercambialidadeDialogModule&#45;&gt;IntercambialidadeDialogComponent </title>
<path fill="none" stroke="#000000" stroke-dasharray="5,2" d="M434,-187.1061C434,-187.1061 434,-205.991 434,-205.991"/>
<polygon fill="#000000" stroke="#000000" points="430.5001,-205.9909 434,-215.991 437.5001,-205.991 430.5001,-205.9909"/>
</g>
<!-- ElementListModule -->
<g id="node3" class="node">
<title>ElementListModule</title>
<polygon fill="#8dd3c7" stroke="#000000" points="690.9818,-122 687.9818,-126 666.9818,-126 663.9818,-122 563.0182,-122 563.0182,-86 690.9818,-86 690.9818,-122"/>
<text text-anchor="middle" x="627" y="-99.8" font-family="Times,serif" font-size="14.00" fill="#000000">ElementListModule</text>
</g>
<!-- ElementListModule&#45;&gt;IntercambialidadeDialogModule -->
<g id="edge2" class="edge">
<title>ElementListModule&#45;&gt;IntercambialidadeDialogModule</title>
<path fill="none" stroke="#000000" d="M627,-122.0225C627,-139.3734 627,-163 627,-163 627,-163 543.3268,-163 543.3268,-163"/>
<polygon fill="#000000" stroke="#000000" points="543.3268,-159.5001 533.3268,-163 543.3268,-166.5001 543.3268,-159.5001"/>
</g>
<!-- LayoutModule -->
<g id="node4" class="node">
<title>LayoutModule</title>
<polygon fill="#8dd3c7" stroke="#000000" points="544.7078,-122 541.7078,-126 520.7078,-126 517.7078,-122 445.2922,-122 445.2922,-86 544.7078,-86 544.7078,-122"/>
<text text-anchor="middle" x="495" y="-99.8" font-family="Times,serif" font-size="14.00" fill="#000000">LayoutModule</text>
</g>
<!-- LayoutModule&#45;&gt;IntercambialidadeDialogModule -->
<g id="edge3" class="edge">
<title>LayoutModule&#45;&gt;IntercambialidadeDialogModule</title>
<path fill="none" stroke="#000000" d="M489.3766,-122.1061C489.3766,-122.1061 489.3766,-140.991 489.3766,-140.991"/>
<polygon fill="#000000" stroke="#000000" points="485.8767,-140.9909 489.3766,-150.991 492.8767,-140.991 485.8767,-140.9909"/>
</g>
<!-- MaterialModule -->
<g id="node5" class="node">
<title>MaterialModule</title>
<polygon fill="#8dd3c7" stroke="#000000" points="427.4706,-122 424.4706,-126 403.4706,-126 400.4706,-122 320.5294,-122 320.5294,-86 427.4706,-86 427.4706,-122"/>
<text text-anchor="middle" x="374" y="-99.8" font-family="Times,serif" font-size="14.00" fill="#000000">MaterialModule</text>
</g>
<!-- MaterialModule&#45;&gt;IntercambialidadeDialogModule -->
<g id="edge4" class="edge">
<title>MaterialModule&#45;&gt;IntercambialidadeDialogModule</title>
<path fill="none" stroke="#000000" d="M381.0642,-122.1061C381.0642,-122.1061 381.0642,-140.991 381.0642,-140.991"/>
<polygon fill="#000000" stroke="#000000" points="377.5642,-140.9909 381.0642,-150.991 384.5642,-140.991 377.5642,-140.9909"/>
</g>
<!-- SheetModule -->
<g id="node6" class="node">
<title>SheetModule</title>
<polygon fill="#8dd3c7" stroke="#000000" points="302.1529,-122 299.1529,-126 278.1529,-126 275.1529,-122 211.8471,-122 211.8471,-86 302.1529,-86 302.1529,-122"/>
<text text-anchor="middle" x="257" y="-99.8" font-family="Times,serif" font-size="14.00" fill="#000000">SheetModule</text>
</g>
<!-- SheetModule&#45;&gt;IntercambialidadeDialogModule -->
<g id="edge5" class="edge">
<title>SheetModule&#45;&gt;IntercambialidadeDialogModule</title>
<path fill="none" stroke="#000000" d="M257,-122.0225C257,-139.3734 257,-163 257,-163 257,-163 324.6348,-163 324.6348,-163"/>
<polygon fill="#000000" stroke="#000000" points="324.6348,-166.5001 334.6348,-163 324.6347,-159.5001 324.6348,-166.5001"/>
</g>
<!-- BiologicosService -->
<g id="node8" class="node">
<title>BiologicosService</title>
<ellipse fill="#fdb462" stroke="#000000" cx="106" cy="-104" rx="81.6789" ry="18"/>
<text text-anchor="middle" x="106" y="-99.8" font-family="Times,serif" font-size="14.00" fill="#000000">BiologicosService</text>
</g>
<!-- BiologicosService&#45;&gt;IntercambialidadeDialogModule -->
<g id="edge7" class="edge">
<title>BiologicosService&#45;&gt;IntercambialidadeDialogModule</title>
<path fill="none" stroke="#000000" d="M106,-122.2843C106,-143.3211 106,-175 106,-175 106,-175 324.6991,-175 324.6991,-175"/>
<polygon fill="#000000" stroke="#000000" points="324.6991,-178.5001 334.6991,-175 324.699,-171.5001 324.6991,-178.5001"/>
</g>
</g>
</svg>
