<?xml version="1.0" encoding="UTF-8" standalone="no"?>
<!DOCTYPE svg PUBLIC "-//W3C//DTD SVG 1.1//EN"
 "http://www.w3.org/Graphics/SVG/1.1/DTD/svg11.dtd">
<!-- Generated by graphviz version 2.40.1 (20161225.0304)
 -->
<!-- Title: dependencies Pages: 1 -->
<svg width="564pt" height="211pt"
 viewBox="0.00 0.00 564.00 211.00" xmlns="http://www.w3.org/2000/svg" xmlns:xlink="http://www.w3.org/1999/xlink">
<g id="graph0" class="graph" transform="scale(1 1) rotate(0) translate(4 207)">
<title>dependencies</title>
<polygon fill="#ffffff" stroke="transparent" points="-4,4 -4,-207 560,-207 560,4 -4,4"/>
<text text-anchor="start" x="257.0091" y="-42.4" font-family="sans-serif" font-weight="bold" font-size="14.00" fill="#000000">Legend</text>
<polygon fill="#ffffb3" stroke="transparent" points="44,-10 44,-30 64,-30 64,-10 44,-10"/>
<text text-anchor="start" x="67.629" y="-15.4" font-family="sans-serif" font-size="14.00" fill="#000000"> &#160;Declarations</text>
<polygon fill="#8dd3c7" stroke="transparent" points="157,-10 157,-30 177,-30 177,-10 157,-10"/>
<text text-anchor="start" x="180.7251" y="-15.4" font-family="sans-serif" font-size="14.00" fill="#000000"> &#160;Module</text>
<polygon fill="#80b1d3" stroke="transparent" points="243,-10 243,-30 263,-30 263,-10 243,-10"/>
<text text-anchor="start" x="266.7812" y="-15.4" font-family="sans-serif" font-size="14.00" fill="#000000"> &#160;Bootstrap</text>
<polygon fill="#fdb462" stroke="transparent" points="340,-10 340,-30 360,-30 360,-10 340,-10"/>
<text text-anchor="start" x="363.6732" y="-15.4" font-family="sans-serif" font-size="14.00" fill="#000000"> &#160;Providers</text>
<polygon fill="#fb8072" stroke="transparent" points="436,-10 436,-30 456,-30 456,-10 436,-10"/>
<text text-anchor="start" x="459.7258" y="-15.4" font-family="sans-serif" font-size="14.00" fill="#000000"> &#160;Exports</text>
<g id="clust1" class="cluster">
<title>cluster_RastreabilidadeModule</title>
<polygon fill="none" stroke="#000000" stroke-dasharray="1,5" points="8,-70 8,-195 548,-195 548,-70 8,-70"/>
</g>
<g id="clust2" class="cluster">
<title>cluster_RastreabilidadeModule_declarations</title>
<polygon fill="none" stroke="#000000" points="356,-78 356,-130 540,-130 540,-78 356,-78"/>
</g>
<g id="clust4" class="cluster">
<title>cluster_RastreabilidadeModule_imports</title>
<polygon fill="none" stroke="#000000" points="16,-78 16,-130 348,-130 348,-78 16,-78"/>
</g>
<!-- RastreabilidadeComponent -->
<g id="node1" class="node">
<title>RastreabilidadeComponent</title>
<polygon fill="#ffffb3" stroke="#000000" points="532.4101,-122 363.5899,-122 363.5899,-86 532.4101,-86 532.4101,-122"/>
<text text-anchor="middle" x="448" y="-99.8" font-family="Times,serif" font-size="14.00" fill="#000000">RastreabilidadeComponent</text>
</g>
<!-- RastreabilidadeModule -->
<g id="node2" class="node">
<title>RastreabilidadeModule</title>
<polygon fill="#8dd3c7" stroke="#000000" points="360.1275,-187 357.1275,-191 336.1275,-191 333.1275,-187 213.8725,-187 213.8725,-151 360.1275,-151 360.1275,-187"/>
<text text-anchor="middle" x="287" y="-164.8" font-family="Times,serif" font-size="14.00" fill="#000000">RastreabilidadeModule</text>
</g>
<!-- RastreabilidadeComponent&#45;&gt;RastreabilidadeModule -->
<g id="edge1" class="edge">
<title>RastreabilidadeComponent&#45;&gt;RastreabilidadeModule</title>
<path fill="none" stroke="#000000" d="M363.5623,-104C355.5835,-104 350.3994,-104 350.3994,-104 350.3994,-104 350.3994,-140.8939 350.3994,-140.8939"/>
<polygon fill="#000000" stroke="#000000" points="346.8995,-140.8938 350.3994,-150.8939 353.8995,-140.8939 346.8995,-140.8938"/>
</g>
<!-- MaterialModule -->
<g id="node3" class="node">
<title>MaterialModule</title>
<polygon fill="#8dd3c7" stroke="#000000" points="340.4706,-122 337.4706,-126 316.4706,-126 313.4706,-122 233.5294,-122 233.5294,-86 340.4706,-86 340.4706,-122"/>
<text text-anchor="middle" x="287" y="-99.8" font-family="Times,serif" font-size="14.00" fill="#000000">MaterialModule</text>
</g>
<!-- MaterialModule&#45;&gt;RastreabilidadeModule -->
<g id="edge2" class="edge">
<title>MaterialModule&#45;&gt;RastreabilidadeModule</title>
<path fill="none" stroke="#000000" d="M287,-122.1061C287,-122.1061 287,-140.991 287,-140.991"/>
<polygon fill="#000000" stroke="#000000" points="283.5001,-140.9909 287,-150.991 290.5001,-140.991 283.5001,-140.9909"/>
</g>
<!-- RastreabilidadeRoutingModule -->
<g id="node4" class="node">
<title>RastreabilidadeRoutingModule</title>
<polygon fill="#8dd3c7" stroke="#000000" points="215.745,-122 212.745,-126 191.745,-126 188.745,-122 24.255,-122 24.255,-86 215.745,-86 215.745,-122"/>
<text text-anchor="middle" x="120" y="-99.8" font-family="Times,serif" font-size="14.00" fill="#000000">RastreabilidadeRoutingModule</text>
</g>
<!-- RastreabilidadeRoutingModule&#45;&gt;RastreabilidadeModule -->
<g id="edge3" class="edge">
<title>RastreabilidadeRoutingModule&#45;&gt;RastreabilidadeModule</title>
<path fill="none" stroke="#000000" d="M215.7674,-104C221.3132,-104 224.6936,-104 224.6936,-104 224.6936,-104 224.6936,-140.8939 224.6936,-140.8939"/>
<polygon fill="#000000" stroke="#000000" points="221.1936,-140.8938 224.6936,-150.8939 228.1936,-140.8939 221.1936,-140.8938"/>
</g>
</g>
</svg>
