<?xml version="1.0" encoding="UTF-8" standalone="no"?>
<!DOCTYPE svg PUBLIC "-//W3C//DTD SVG 1.1//EN"
 "http://www.w3.org/Graphics/SVG/1.1/DTD/svg11.dtd">
<!-- Generated by graphviz version 2.40.1 (20161225.0304)
 -->
<!-- Title: dependencies Pages: 1 -->
<svg width="1354pt" height="284pt"
 viewBox="0.00 0.00 1354.00 284.00" xmlns="http://www.w3.org/2000/svg" xmlns:xlink="http://www.w3.org/1999/xlink">
<g id="graph0" class="graph" transform="scale(1 1) rotate(0) translate(4 280)">
<title>dependencies</title>
<polygon fill="#ffffff" stroke="transparent" points="-4,4 -4,-280 1350,-280 1350,4 -4,4"/>
<text text-anchor="start" x="652.0091" y="-42.4" font-family="sans-serif" font-weight="bold" font-size="14.00" fill="#000000">Legend</text>
<polygon fill="#ffffb3" stroke="transparent" points="439,-10 439,-30 459,-30 459,-10 439,-10"/>
<text text-anchor="start" x="462.629" y="-15.4" font-family="sans-serif" font-size="14.00" fill="#000000"> &#160;Declarations</text>
<polygon fill="#8dd3c7" stroke="transparent" points="552,-10 552,-30 572,-30 572,-10 552,-10"/>
<text text-anchor="start" x="575.7251" y="-15.4" font-family="sans-serif" font-size="14.00" fill="#000000"> &#160;Module</text>
<polygon fill="#80b1d3" stroke="transparent" points="638,-10 638,-30 658,-30 658,-10 638,-10"/>
<text text-anchor="start" x="661.7812" y="-15.4" font-family="sans-serif" font-size="14.00" fill="#000000"> &#160;Bootstrap</text>
<polygon fill="#fdb462" stroke="transparent" points="735,-10 735,-30 755,-30 755,-10 735,-10"/>
<text text-anchor="start" x="758.6732" y="-15.4" font-family="sans-serif" font-size="14.00" fill="#000000"> &#160;Providers</text>
<polygon fill="#fb8072" stroke="transparent" points="831,-10 831,-30 851,-30 851,-10 831,-10"/>
<text text-anchor="start" x="854.7258" y="-15.4" font-family="sans-serif" font-size="14.00" fill="#000000"> &#160;Exports</text>
<g id="clust1" class="cluster">
<title>cluster_IntercambialidadeModule</title>
<polygon fill="none" stroke="#000000" stroke-dasharray="1,5" points="8,-70 8,-268 1338,-268 1338,-70 8,-70"/>
</g>
<g id="clust2" class="cluster">
<title>cluster_IntercambialidadeModule_declarations</title>
<polygon fill="none" stroke="#000000" points="1132,-78 1132,-130 1330,-130 1330,-78 1132,-78"/>
</g>
<g id="clust4" class="cluster">
<title>cluster_IntercambialidadeModule_imports</title>
<polygon fill="none" stroke="#000000" points="204,-78 204,-130 1124,-130 1124,-78 204,-78"/>
</g>
<g id="clust5" class="cluster">
<title>cluster_IntercambialidadeModule_exports</title>
<polygon fill="none" stroke="#000000" points="479,-208 479,-260 681,-260 681,-208 479,-208"/>
</g>
<g id="clust7" class="cluster">
<title>cluster_IntercambialidadeModule_providers</title>
<polygon fill="none" stroke="#000000" points="16,-78 16,-130 196,-130 196,-78 16,-78"/>
</g>
<!-- IntercambialidadeComponent -->
<g id="node1" class="node">
<title>IntercambialidadeComponent</title>
<polygon fill="#ffffb3" stroke="#000000" points="1322.3946,-122 1139.6054,-122 1139.6054,-86 1322.3946,-86 1322.3946,-122"/>
<text text-anchor="middle" x="1231" y="-99.8" font-family="Times,serif" font-size="14.00" fill="#000000">IntercambialidadeComponent</text>
</g>
<!-- IntercambialidadeModule -->
<g id="node2" class="node">
<title>IntercambialidadeModule</title>
<polygon fill="#8dd3c7" stroke="#000000" points="660.1121,-187 657.1121,-191 636.1121,-191 633.1121,-187 499.8879,-187 499.8879,-151 660.1121,-151 660.1121,-187"/>
<text text-anchor="middle" x="580" y="-164.8" font-family="Times,serif" font-size="14.00" fill="#000000">IntercambialidadeModule</text>
</g>
<!-- IntercambialidadeComponent&#45;&gt;IntercambialidadeModule -->
<g id="edge1" class="edge">
<title>IntercambialidadeComponent&#45;&gt;IntercambialidadeModule</title>
<path fill="none" stroke="#000000" d="M1231,-122.2921C1231,-144.2057 1231,-178 1231,-178 1231,-178 670.1516,-178 670.1516,-178"/>
<polygon fill="#000000" stroke="#000000" points="670.1516,-174.5001 660.1516,-178 670.1515,-181.5001 670.1516,-174.5001"/>
</g>
<!-- IntercambialidadeComponent  -->
<g id="node9" class="node">
<title>IntercambialidadeComponent </title>
<polygon fill="#fb8072" stroke="#000000" points="672.8942,-252 487.1058,-252 487.1058,-216 672.8942,-216 672.8942,-252"/>
<text text-anchor="middle" x="580" y="-229.8" font-family="Times,serif" font-size="14.00" fill="#000000">IntercambialidadeComponent </text>
</g>
<!-- IntercambialidadeModule&#45;&gt;IntercambialidadeComponent  -->
<g id="edge8" class="edge">
<title>IntercambialidadeModule&#45;&gt;IntercambialidadeComponent </title>
<path fill="none" stroke="#000000" stroke-dasharray="5,2" d="M580,-187.1061C580,-187.1061 580,-205.991 580,-205.991"/>
<polygon fill="#000000" stroke="#000000" points="576.5001,-205.9909 580,-215.991 583.5001,-205.991 576.5001,-205.9909"/>
</g>
<!-- ElementListModule -->
<g id="node3" class="node">
<title>ElementListModule</title>
<polygon fill="#8dd3c7" stroke="#000000" points="1115.9818,-122 1112.9818,-126 1091.9818,-126 1088.9818,-122 988.0182,-122 988.0182,-86 1115.9818,-86 1115.9818,-122"/>
<text text-anchor="middle" x="1052" y="-99.8" font-family="Times,serif" font-size="14.00" fill="#000000">ElementListModule</text>
</g>
<!-- ElementListModule&#45;&gt;IntercambialidadeModule -->
<g id="edge2" class="edge">
<title>ElementListModule&#45;&gt;IntercambialidadeModule</title>
<path fill="none" stroke="#000000" d="M1052,-122.1061C1052,-141.3391 1052,-169 1052,-169 1052,-169 670.3357,-169 670.3357,-169"/>
<polygon fill="#000000" stroke="#000000" points="670.3358,-165.5001 660.3357,-169 670.3357,-172.5001 670.3358,-165.5001"/>
</g>
<!-- IntercambialidadeInfoModule -->
<g id="node4" class="node">
<title>IntercambialidadeInfoModule</title>
<polygon fill="#8dd3c7" stroke="#000000" points="969.9328,-122 966.9328,-126 945.9328,-126 942.9328,-122 786.0672,-122 786.0672,-86 969.9328,-86 969.9328,-122"/>
<text text-anchor="middle" x="878" y="-99.8" font-family="Times,serif" font-size="14.00" fill="#000000">IntercambialidadeInfoModule</text>
</g>
<!-- IntercambialidadeInfoModule&#45;&gt;IntercambialidadeModule -->
<g id="edge3" class="edge">
<title>IntercambialidadeInfoModule&#45;&gt;IntercambialidadeModule</title>
<path fill="none" stroke="#000000" d="M878,-122.027C878,-138.3976 878,-160 878,-160 878,-160 670.2505,-160 670.2505,-160"/>
<polygon fill="#000000" stroke="#000000" points="670.2506,-156.5001 660.2505,-160 670.2505,-163.5001 670.2506,-156.5001"/>
</g>
<!-- IntercambialidadeRoutingModule -->
<g id="node5" class="node">
<title>IntercambialidadeRoutingModule</title>
<polygon fill="#8dd3c7" stroke="#000000" points="767.7296,-122 764.7296,-126 743.7296,-126 740.7296,-122 562.2704,-122 562.2704,-86 767.7296,-86 767.7296,-122"/>
<text text-anchor="middle" x="665" y="-99.8" font-family="Times,serif" font-size="14.00" fill="#000000">IntercambialidadeRoutingModule</text>
</g>
<!-- IntercambialidadeRoutingModule&#45;&gt;IntercambialidadeModule -->
<g id="edge4" class="edge">
<title>IntercambialidadeRoutingModule&#45;&gt;IntercambialidadeModule</title>
<path fill="none" stroke="#000000" d="M611.2206,-122.1061C611.2206,-122.1061 611.2206,-140.991 611.2206,-140.991"/>
<polygon fill="#000000" stroke="#000000" points="607.7206,-140.9909 611.2206,-150.991 614.7206,-140.991 607.7206,-140.9909"/>
</g>
<!-- LayoutModule -->
<g id="node6" class="node">
<title>LayoutModule</title>
<polygon fill="#8dd3c7" stroke="#000000" points="544.7078,-122 541.7078,-126 520.7078,-126 517.7078,-122 445.2922,-122 445.2922,-86 544.7078,-86 544.7078,-122"/>
<text text-anchor="middle" x="495" y="-99.8" font-family="Times,serif" font-size="14.00" fill="#000000">LayoutModule</text>
</g>
<!-- LayoutModule&#45;&gt;IntercambialidadeModule -->
<g id="edge5" class="edge">
<title>LayoutModule&#45;&gt;IntercambialidadeModule</title>
<path fill="none" stroke="#000000" d="M522.149,-122.1061C522.149,-122.1061 522.149,-140.991 522.149,-140.991"/>
<polygon fill="#000000" stroke="#000000" points="518.6491,-140.9909 522.149,-150.991 525.6491,-140.991 518.6491,-140.9909"/>
</g>
<!-- MaterialModule -->
<g id="node7" class="node">
<title>MaterialModule</title>
<polygon fill="#8dd3c7" stroke="#000000" points="427.4706,-122 424.4706,-126 403.4706,-126 400.4706,-122 320.5294,-122 320.5294,-86 427.4706,-86 427.4706,-122"/>
<text text-anchor="middle" x="374" y="-99.8" font-family="Times,serif" font-size="14.00" fill="#000000">MaterialModule</text>
</g>
<!-- MaterialModule&#45;&gt;IntercambialidadeModule -->
<g id="edge6" class="edge">
<title>MaterialModule&#45;&gt;IntercambialidadeModule</title>
<path fill="none" stroke="#000000" d="M374,-122.027C374,-138.3976 374,-160 374,-160 374,-160 489.7652,-160 489.7652,-160"/>
<polygon fill="#000000" stroke="#000000" points="489.7652,-163.5001 499.7652,-160 489.7651,-156.5001 489.7652,-163.5001"/>
</g>
<!-- SheetModule -->
<g id="node8" class="node">
<title>SheetModule</title>
<polygon fill="#8dd3c7" stroke="#000000" points="302.1529,-122 299.1529,-126 278.1529,-126 275.1529,-122 211.8471,-122 211.8471,-86 302.1529,-86 302.1529,-122"/>
<text text-anchor="middle" x="257" y="-99.8" font-family="Times,serif" font-size="14.00" fill="#000000">SheetModule</text>
</g>
<!-- SheetModule&#45;&gt;IntercambialidadeModule -->
<g id="edge7" class="edge">
<title>SheetModule&#45;&gt;IntercambialidadeModule</title>
<path fill="none" stroke="#000000" d="M257,-122.1061C257,-141.3391 257,-169 257,-169 257,-169 489.7423,-169 489.7423,-169"/>
<polygon fill="#000000" stroke="#000000" points="489.7423,-172.5001 499.7423,-169 489.7423,-165.5001 489.7423,-172.5001"/>
</g>
<!-- BiologicosService -->
<g id="node10" class="node">
<title>BiologicosService</title>
<ellipse fill="#fdb462" stroke="#000000" cx="106" cy="-104" rx="81.6789" ry="18"/>
<text text-anchor="middle" x="106" y="-99.8" font-family="Times,serif" font-size="14.00" fill="#000000">BiologicosService</text>
</g>
<!-- BiologicosService&#45;&gt;IntercambialidadeModule -->
<g id="edge9" class="edge">
<title>BiologicosService&#45;&gt;IntercambialidadeModule</title>
<path fill="none" stroke="#000000" d="M106,-122.2921C106,-144.2057 106,-178 106,-178 106,-178 489.8605,-178 489.8605,-178"/>
<polygon fill="#000000" stroke="#000000" points="489.8606,-181.5001 499.8605,-178 489.8605,-174.5001 489.8606,-181.5001"/>
</g>
</g>
</svg>
