<?xml version="1.0" encoding="UTF-8" standalone="no"?>
<!DOCTYPE svg PUBLIC "-//W3C//DTD SVG 1.1//EN"
 "http://www.w3.org/Graphics/SVG/1.1/DTD/svg11.dtd">
<!-- Generated by graphviz version 2.40.1 (20161225.0304)
 -->
<!-- Title: dependencies Pages: 1 -->
<svg width="1152pt" height="284pt"
 viewBox="0.00 0.00 1152.00 284.00" xmlns="http://www.w3.org/2000/svg" xmlns:xlink="http://www.w3.org/1999/xlink">
<g id="graph0" class="graph" transform="scale(1 1) rotate(0) translate(4 280)">
<title>dependencies</title>
<polygon fill="#ffffff" stroke="transparent" points="-4,4 -4,-280 1148,-280 1148,4 -4,4"/>
<text text-anchor="start" x="551.0091" y="-42.4" font-family="sans-serif" font-weight="bold" font-size="14.00" fill="#000000">Legend</text>
<polygon fill="#ffffb3" stroke="transparent" points="338,-10 338,-30 358,-30 358,-10 338,-10"/>
<text text-anchor="start" x="361.629" y="-15.4" font-family="sans-serif" font-size="14.00" fill="#000000"> &#160;Declarations</text>
<polygon fill="#8dd3c7" stroke="transparent" points="451,-10 451,-30 471,-30 471,-10 451,-10"/>
<text text-anchor="start" x="474.7251" y="-15.4" font-family="sans-serif" font-size="14.00" fill="#000000"> &#160;Module</text>
<polygon fill="#80b1d3" stroke="transparent" points="537,-10 537,-30 557,-30 557,-10 537,-10"/>
<text text-anchor="start" x="560.7812" y="-15.4" font-family="sans-serif" font-size="14.00" fill="#000000"> &#160;Bootstrap</text>
<polygon fill="#fdb462" stroke="transparent" points="634,-10 634,-30 654,-30 654,-10 634,-10"/>
<text text-anchor="start" x="657.6732" y="-15.4" font-family="sans-serif" font-size="14.00" fill="#000000"> &#160;Providers</text>
<polygon fill="#fb8072" stroke="transparent" points="730,-10 730,-30 750,-30 750,-10 730,-10"/>
<text text-anchor="start" x="753.7258" y="-15.4" font-family="sans-serif" font-size="14.00" fill="#000000"> &#160;Exports</text>
<g id="clust1" class="cluster">
<title>cluster_IntercambialidadeModule</title>
<polygon fill="none" stroke="#000000" stroke-dasharray="1,5" points="8,-70 8,-268 1136,-268 1136,-70 8,-70"/>
</g>
<g id="clust2" class="cluster">
<title>cluster_IntercambialidadeModule_declarations</title>
<polygon fill="none" stroke="#000000" points="930,-78 930,-130 1128,-130 1128,-78 930,-78"/>
</g>
<g id="clust4" class="cluster">
<title>cluster_IntercambialidadeModule_imports</title>
<polygon fill="none" stroke="#000000" points="204,-78 204,-130 922,-130 922,-78 204,-78"/>
</g>
<g id="clust5" class="cluster">
<title>cluster_IntercambialidadeModule_exports</title>
<polygon fill="none" stroke="#000000" points="394,-208 394,-260 596,-260 596,-208 394,-208"/>
</g>
<g id="clust7" class="cluster">
<title>cluster_IntercambialidadeModule_providers</title>
<polygon fill="none" stroke="#000000" points="16,-78 16,-130 196,-130 196,-78 16,-78"/>
</g>
<!-- IntercambialidadeComponent -->
<g id="node1" class="node">
<title>IntercambialidadeComponent</title>
<polygon fill="#ffffb3" stroke="#000000" points="1120.3946,-122 937.6054,-122 937.6054,-86 1120.3946,-86 1120.3946,-122"/>
<text text-anchor="middle" x="1029" y="-99.8" font-family="Times,serif" font-size="14.00" fill="#000000">IntercambialidadeComponent</text>
</g>
<!-- IntercambialidadeModule -->
<g id="node2" class="node">
<title>IntercambialidadeModule</title>
<polygon fill="#8dd3c7" stroke="#000000" points="575.1121,-187 572.1121,-191 551.1121,-191 548.1121,-187 414.8879,-187 414.8879,-151 575.1121,-151 575.1121,-187"/>
<text text-anchor="middle" x="495" y="-164.8" font-family="Times,serif" font-size="14.00" fill="#000000">IntercambialidadeModule</text>
</g>
<!-- IntercambialidadeComponent&#45;&gt;IntercambialidadeModule -->
<g id="edge1" class="edge">
<title>IntercambialidadeComponent&#45;&gt;IntercambialidadeModule</title>
<path fill="none" stroke="#000000" d="M1029,-122.2843C1029,-143.3211 1029,-175 1029,-175 1029,-175 585.2341,-175 585.2341,-175"/>
<polygon fill="#000000" stroke="#000000" points="585.2341,-171.5001 575.2341,-175 585.2341,-178.5001 585.2341,-171.5001"/>
</g>
<!-- IntercambialidadeComponent  -->
<g id="node8" class="node">
<title>IntercambialidadeComponent </title>
<polygon fill="#fb8072" stroke="#000000" points="587.8942,-252 402.1058,-252 402.1058,-216 587.8942,-216 587.8942,-252"/>
<text text-anchor="middle" x="495" y="-229.8" font-family="Times,serif" font-size="14.00" fill="#000000">IntercambialidadeComponent </text>
</g>
<!-- IntercambialidadeModule&#45;&gt;IntercambialidadeComponent  -->
<g id="edge7" class="edge">
<title>IntercambialidadeModule&#45;&gt;IntercambialidadeComponent </title>
<path fill="none" stroke="#000000" stroke-dasharray="5,2" d="M495,-187.1061C495,-187.1061 495,-205.991 495,-205.991"/>
<polygon fill="#000000" stroke="#000000" points="491.5001,-205.9909 495,-215.991 498.5001,-205.991 491.5001,-205.9909"/>
</g>
<!-- ElementListModule -->
<g id="node3" class="node">
<title>ElementListModule</title>
<polygon fill="#8dd3c7" stroke="#000000" points="913.9818,-122 910.9818,-126 889.9818,-126 886.9818,-122 786.0182,-122 786.0182,-86 913.9818,-86 913.9818,-122"/>
<text text-anchor="middle" x="850" y="-99.8" font-family="Times,serif" font-size="14.00" fill="#000000">ElementListModule</text>
</g>
<!-- ElementListModule&#45;&gt;IntercambialidadeModule -->
<g id="edge2" class="edge">
<title>ElementListModule&#45;&gt;IntercambialidadeModule</title>
<path fill="none" stroke="#000000" d="M850,-122.0225C850,-139.3734 850,-163 850,-163 850,-163 585.555,-163 585.555,-163"/>
<polygon fill="#000000" stroke="#000000" points="585.555,-159.5001 575.555,-163 585.555,-166.5001 585.555,-159.5001"/>
</g>
<!-- IntercambialidadeRoutingModule -->
<g id="node4" class="node">
<title>IntercambialidadeRoutingModule</title>
<polygon fill="#8dd3c7" stroke="#000000" points="767.7296,-122 764.7296,-126 743.7296,-126 740.7296,-122 562.2704,-122 562.2704,-86 767.7296,-86 767.7296,-122"/>
<text text-anchor="middle" x="665" y="-99.8" font-family="Times,serif" font-size="14.00" fill="#000000">IntercambialidadeRoutingModule</text>
</g>
<!-- IntercambialidadeRoutingModule&#45;&gt;IntercambialidadeModule -->
<g id="edge3" class="edge">
<title>IntercambialidadeRoutingModule&#45;&gt;IntercambialidadeModule</title>
<path fill="none" stroke="#000000" d="M568.7206,-122.1061C568.7206,-122.1061 568.7206,-140.991 568.7206,-140.991"/>
<polygon fill="#000000" stroke="#000000" points="565.2206,-140.9909 568.7206,-150.991 572.2206,-140.991 565.2206,-140.9909"/>
</g>
<!-- LayoutModule -->
<g id="node5" class="node">
<title>LayoutModule</title>
<polygon fill="#8dd3c7" stroke="#000000" points="544.7078,-122 541.7078,-126 520.7078,-126 517.7078,-122 445.2922,-122 445.2922,-86 544.7078,-86 544.7078,-122"/>
<text text-anchor="middle" x="495" y="-99.8" font-family="Times,serif" font-size="14.00" fill="#000000">LayoutModule</text>
</g>
<!-- LayoutModule&#45;&gt;IntercambialidadeModule -->
<g id="edge4" class="edge">
<title>LayoutModule&#45;&gt;IntercambialidadeModule</title>
<path fill="none" stroke="#000000" d="M495,-122.1061C495,-122.1061 495,-140.991 495,-140.991"/>
<polygon fill="#000000" stroke="#000000" points="491.5001,-140.9909 495,-150.991 498.5001,-140.991 491.5001,-140.9909"/>
</g>
<!-- MaterialModule -->
<g id="node6" class="node">
<title>MaterialModule</title>
<polygon fill="#8dd3c7" stroke="#000000" points="427.4706,-122 424.4706,-126 403.4706,-126 400.4706,-122 320.5294,-122 320.5294,-86 427.4706,-86 427.4706,-122"/>
<text text-anchor="middle" x="374" y="-99.8" font-family="Times,serif" font-size="14.00" fill="#000000">MaterialModule</text>
</g>
<!-- MaterialModule&#45;&gt;IntercambialidadeModule -->
<g id="edge5" class="edge">
<title>MaterialModule&#45;&gt;IntercambialidadeModule</title>
<path fill="none" stroke="#000000" d="M421.0898,-122.1061C421.0898,-122.1061 421.0898,-140.991 421.0898,-140.991"/>
<polygon fill="#000000" stroke="#000000" points="417.5898,-140.9909 421.0898,-150.991 424.5898,-140.991 417.5898,-140.9909"/>
</g>
<!-- SheetModule -->
<g id="node7" class="node">
<title>SheetModule</title>
<polygon fill="#8dd3c7" stroke="#000000" points="302.1529,-122 299.1529,-126 278.1529,-126 275.1529,-122 211.8471,-122 211.8471,-86 302.1529,-86 302.1529,-122"/>
<text text-anchor="middle" x="257" y="-99.8" font-family="Times,serif" font-size="14.00" fill="#000000">SheetModule</text>
</g>
<!-- SheetModule&#45;&gt;IntercambialidadeModule -->
<g id="edge6" class="edge">
<title>SheetModule&#45;&gt;IntercambialidadeModule</title>
<path fill="none" stroke="#000000" d="M257,-122.0225C257,-139.3734 257,-163 257,-163 257,-163 404.7559,-163 404.7559,-163"/>
<polygon fill="#000000" stroke="#000000" points="404.7559,-166.5001 414.7559,-163 404.7558,-159.5001 404.7559,-166.5001"/>
</g>
<!-- BiologicosService -->
<g id="node9" class="node">
<title>BiologicosService</title>
<ellipse fill="#fdb462" stroke="#000000" cx="106" cy="-104" rx="81.6789" ry="18"/>
<text text-anchor="middle" x="106" y="-99.8" font-family="Times,serif" font-size="14.00" fill="#000000">BiologicosService</text>
</g>
<!-- BiologicosService&#45;&gt;IntercambialidadeModule -->
<g id="edge8" class="edge">
<title>BiologicosService&#45;&gt;IntercambialidadeModule</title>
<path fill="none" stroke="#000000" d="M106,-122.2843C106,-143.3211 106,-175 106,-175 106,-175 404.8706,-175 404.8706,-175"/>
<polygon fill="#000000" stroke="#000000" points="404.8707,-178.5001 414.8706,-175 404.8706,-171.5001 404.8707,-178.5001"/>
</g>
</g>
</svg>
